SplineFontDB: 3.0
FontName: SquareAntiqua-BoldOblique
FullName: Square Antiqua Bold Oblique
FamilyName: Square Antiqua
Weight: Bold
Copyright: Copyright (c) 2020-2024 by Wojciech Kalinowski "wmk69" with Reserved Font Name "SquareAntiqua-BoldOblique".\nThis Font Software is licensed under the SIL Open Font License, Version 1.1.
Version: 2.1.1; 2021-05-15
ItalicAngle: -12
UnderlinePosition: -80
UnderlineWidth: 320
Ascent: 1638
Descent: 410
InvalidEm: 0
LayerCount: 2
Layer: 0 1 "Warstwa t+AUIA-a" 1
Layer: 1 1 "Plan pierwszy" 0
XUID: [1021 783 23647091 10727182]
StyleMap: 0x0021
FSType: 0
OS2Version: 3
OS2_WeightWidthSlopeOnly: 0
OS2_UseTypoMetrics: 1
CreationTime: 1260698820
ModificationTime: 1621086121
PfmFamily: 17
TTFWeight: 700
TTFWidth: 5
LineGap: 300
VLineGap: 0
Panose: 2 14 8 2 7 5 3 13 2 4
OS2TypoAscent: 1990
OS2TypoAOffset: 0
OS2TypoDescent: -490
OS2TypoDOffset: 0
OS2TypoLinegap: 300
OS2WinAscent: 1990
OS2WinAOffset: 0
OS2WinDescent: 490
OS2WinDOffset: 0
HheadAscent: 1990
HheadAOffset: 0
HheadDescent: -490
HheadDOffset: 0
OS2SubXSize: 1434
OS2SubYSize: 1331
OS2SubXOff: 0
OS2SubYOff: 287
OS2SupXSize: 1434
OS2SupYSize: 1331
OS2SupXOff: 0
OS2SupYOff: 977
OS2StrikeYSize: 102
OS2StrikeYPos: 512
OS2CapHeight: 1510
OS2XHeight: 1100
OS2Vendor: '    '
OS2CodePages: 20000093.00000000
OS2UnicodeRanges: 8000002f.4000204b.00000000.00000000
Lookup: 258 0 0 "'kern' Horizontal Kerning lookup 0" { "'kern' Horizontal Kerning lookup 0-1 subtable" [307,0,6] } ['kern' ('DFLT' <'dflt' > 'grek' <'dflt' > 'latn' <'dflt' > ) ]
MarkAttachClasses: 1
DEI: 91125
KernClass2: 56 48 "'kern' Horizontal Kerning lookup 0-1 subtable"
 147 H I M N Igrave Iacute Icircumflex Idieresis Ntilde Hcircumflex Hbar Itilde Imacron Ibreve Iogonek Idotaccent Nacute Ncommaaccent Ncaron Eng uni1E40
 73 A Agrave Aacute Acircumflex Atilde Adieresis Aring Amacron Abreve Aogonek

StartChar: .notdef
Encoding: 65536 -1 0
Width: 914
Flags: W
HStem: 0 178<376 614> 1333 178<621 859>
VStem: 100 714<0 714> 421 714<797 1511>
DStem2: 100 0 338.165 0 0.207912 0.978148<231.494 1412.19> 576.165 0 814 0 0.207912 0.978148<181.977 1362.68>
LayerCount: 2
Fore
SplineSet
100 0 m 1,0,-1
 421 1511 l 1,1,-1
 1135 1511 l 1,2,-1
 814 0 l 1,3,-1
 100 0 l 1,0,-1
621 1333 m 1,4,-1
 376 178 l 1,5,-1
 614 178 l 1,6,-1
 859 1333 l 1,7,-1
 621 1333 l 1,4,-1
EndSplineSet
Validated: 1
EndChar

StartChar: exclam
Encoding: 33 33 4
Width: 764
GlyphClass: 2
Flags: W
HStem: -20 377<304.04 531.96> 1490 20G<517.981 885>
VStem: 225 386<61.2812 275.719>
LayerCount: 2
Fore
SplineSet
378 -20 m 0,0,1
 225 -20 225 -20 225 108 c 24,2,3
 225 356 225 356 458 357 c 0,4,5
 611 357 611 357 611 229 c 24,6,7
 611 -20 611 -20 378 -20 c 0,0,1
521 1510 m 1,8,-1
 885 1510 l 1,9,-1
 600 470 l 1,10,-1
 364 470 l 1,11,-1
 521 1510 l 1,8,-1
EndSplineSet
Validated: 1
EndChar

StartChar: quotedbl
Encoding: 34 34 5
Width: 651
GlyphClass: 2
Flags: W
HStem: 1120 410<345 479 700 834>
VStem: 292 664
LayerCount: 2
Fore
SplineSet
700 1530 m 1,0,-1
 956 1530 l 1,1,-1
 834 1120 l 1,2,-1
 647 1120 l 1,3,-1
 700 1530 l 1,0,-1
345 1530 m 1,4,-1
 601 1530 l 1,5,-1
 479 1120 l 1,6,-1
 292 1120 l 1,7,-1
 345 1530 l 1,4,-1
EndSplineSet
Validated: 1
EndChar

StartChar: numbersign
Encoding: 35 35 6
Width: 1446
GlyphClass: 2
Flags: W
HStem: 456 210<243 508 765 922 1177 1443> 868 212<331 595 853 1009 1265 1530>
VStem: 442 212<145 357> 706 212<1178 1390> 856 210<145 355> 1120 210<1180 1390>
DStem2: 442 145 654 145 0.207912 0.978148<44.0773 317.926 576.77 739.011 1000.02 1272.68> 856 145 1066 145 0.207912 0.978148<43.6615 317.926 576.355 739.011 999.604 1272.68>
LayerCount: 2
Fore
SplineSet
706 1390 m 1,0,-1
 918 1390 l 1,1,-1
 853 1080 l 1,2,-1
 1055 1080 l 1,3,-1
 1120 1390 l 1,4,-1
 1330 1390 l 1,5,-1
 1265 1080 l 1,6,-1
 1576 1080 l 1,7,-1
 1530 868 l 1,8,-1
 1219 868 l 1,9,-1
 1177 666 l 1,10,-1
 1488 666 l 1,11,-1
 1443 456 l 1,12,-1
 1132 456 l 1,13,-1
 1066 145 l 1,14,-1
 856 145 l 1,15,-1
 922 456 l 1,16,-1
 720 456 l 1,17,-1
 654 145 l 1,18,-1
 442 145 l 1,19,-1
 508 456 l 1,20,-1
 198 456 l 1,21,-1
 243 666 l 1,22,-1
 553 666 l 1,23,-1
 595 868 l 1,24,-1
 285 868 l 1,25,-1
 331 1080 l 1,26,-1
 641 1080 l 1,27,-1
 706 1390 l 1,0,-1
967 666 m 1,28,-1
 1009 868 l 1,29,-1
 807 868 l 1,30,-1
 765 666 l 1,31,-1
 967 666 l 1,28,-1
EndSplineSet
Validated: 1
EndChar

StartChar: dollar
Encoding: 36 36 7
Width: 1388
GlyphClass: 2
Flags: W
HStem: -20 189<569.471 624 795 893.49> 713 218<742.555 780 955 1020.76> 923 607<1084.69 1393>
VStem: 192 326<221.145 399> 371 329<966.957 1198.48> 589 130<-186 -56> 989 130<1565 1695> 1073 320<390.426 663.661> 1154 324<1108.56 1306.26>
DStem2: 589 -186 719 -186 0.207912 0.978148<27.0285 170.628 392.029 919.066 1160.86 1558.06 1780.44 1923.06>
LayerCount: 2
Fore
SplineSet
581 -20 m 0,0,1
 192 -19 192 -19 192 332 c 0,2,3
 192 364 192 364 195 399 c 1,4,-1
 532 480 l 1,5,6
 518 413 518 413 518 360 c 0,7,8
 518 194 518 194 664 169 c 1,9,-1
 780 713 l 1,10,11
 371 734 371 734 371 1001 c 0,12,13
 371 1063 371 1063 393 1139 c 0,14,15
 452 1340 452 1340 690 1450 c 0,16,17
 801 1502 801 1502 952 1520 c 1,18,-1
 989 1695 l 1,19,-1
 1119 1695 l 1,20,-1
 1084 1529 l 1,21,22
 1106 1530 1106 1530 1128 1530 c 0,23,24
 1478 1530 1478 1530 1478 1191 c 0,25,26
 1478 1154 1478 1154 1474 1112 c 1,27,-1
 1137 1031 l 1,28,29
 1154 1111 1154 1111 1154 1171 c 0,30,31
 1154 1318 1154 1318 1044 1341 c 1,32,-1
 955 923 l 1,33,34
 1393 911 1393 911 1393 599 c 0,35,36
 1393 545 1393 545 1380 481 c 0,37,38
 1327 230 1327 230 1060 80 c 0,39,40
 937 11 937 11 756 -10 c 1,41,-1
 719 -186 l 1,42,-1
 589 -186 l 1,43,-1
 624 -19 l 1,44,45
 603 -20 603 -20 581 -20 c 0,0,1
827 931 m 1,46,-1
 913 1338 l 1,47,48
 748 1302 748 1302 706 1112 c 0,49,50
 700 1085 700 1085 700 1063 c 0,51,52
 700 957 700 957 827 931 c 1,46,-1
909 708 m 1,53,-1
 795 171 l 1,54,55
 1003 214 1003 214 1067 515 c 0,56,57
 1073 543 1073 543 1073 568 c 0,58,59
 1073 691 1073 691 909 708 c 1,53,-1
EndSplineSet
Validated: 1
EndChar

StartChar: percent
Encoding: 37 37 8
Width: 1863
GlyphClass: 2
Flags: W
HStem: -20 174<1176.58 1511.42> 0 21G<406 740.907> 506 175<1383.72 1721.18> 829 174<465.578 800.421> 1355 175<672.72 1010.18> 1490 20G<1442.09 1777>
VStem: 334 253<1015.12 1254.83> 406 321<0 321> 886 257<1103.66 1344.17> 1045 253<166.122 405.833> 1456 321<1189 1510> 1597 257<254.661 495.171>
DStem2: 406 0 727 0 0.570905 0.821016<183.261 1839.18>
LayerCount: 2
Fore
SplineSet
1312 -20 m 0,0,1
 1045 -20 1045 -20 1045 208 c 0,2,3
 1045 274 1045 274 1068 360 c 0,4,5
 1111 525 1111 525 1279 615 c 0,6,7
 1401 681 1401 681 1582 681 c 0,8,9
 1854 681 1854 681 1854 461 c 0,10,11
 1854 392 1854 392 1827 301 c 0,12,13
 1781 146 1781 146 1635 57 c 0,14,15
 1508 -20 1508 -20 1312 -20 c 0,0,1
1402 154 m 0,16,17
 1546 154 1546 154 1591 368 c 16,18,19
 1597 395 1597 395 1597 416 c 0,20,21
 1597 506 1597 506 1499 506 c 0,22,23
 1348 506 1348 506 1304 296 c 16,24,25
 1298 269 1298 269 1298 247 c 0,26,27
 1298 154 1298 154 1402 154 c 0,16,17
871 1530 m 0,28,29
 1143 1530 1143 1530 1143 1310 c 0,30,31
 1143 1241 1143 1241 1116 1150 c 0,32,33
 1070 995 1070 995 924 906 c 0,34,35
 797 829 797 829 601 829 c 0,36,37
 334 829 334 829 334 1057 c 0,38,39
 334 1123 334 1123 357 1209 c 0,40,41
 400 1374 400 1374 568 1464 c 0,42,43
 690 1530 690 1530 871 1530 c 0,28,29
788 1355 m 0,44,45
 637 1355 637 1355 593 1145 c 16,46,47
 587 1118 587 1118 587 1096 c 0,48,49
 587 1003 587 1003 691 1003 c 0,50,51
 835 1003 835 1003 880 1217 c 16,52,53
 886 1244 886 1244 886 1265 c 0,54,55
 886 1355 886 1355 788 1355 c 0,44,45
406 0 m 1,56,-1
 1456 1510 l 1,57,-1
 1777 1510 l 1,58,-1
 727 0 l 1,59,-1
 406 0 l 1,56,-1
EndSplineSet
Validated: 1
EndChar

StartChar: ampersand
Encoding: 38 38 9
Width: 1606
GlyphClass: 2
Flags: W
HStem: -20 184<573.139 923.594> 0 21G<1193.17 1556> 1334 196<854.298 1306>
VStem: 180 332<221.124 515.64> 434 309<949.234 1207.59>
LayerCount: 2
Fore
SplineSet
1556 0 m 1,0,-1
 1203 0 l 1,1,-1
 1145 118 l 1,2,3
 909 -20 909 -20 589 -20 c 0,4,5
 180 -20 180 -20 180 286 c 0,6,7
 180 373 180 373 213 485 c 0,8,9
 270 681 270 681 531 803 c 1,10,11
 434 881 434 881 434 1013 c 0,12,13
 434 1065 434 1065 449 1126 c 0,14,15
 551 1530 551 1530 1158 1530 c 0,16,17
 1454 1530 1454 1530 1454 1208 c 1,18,-1
 1130 1125 l 1,19,-1
 1137 1157 l 2,20,21
 1143 1187 1143 1187 1143 1211 c 0,22,23
 1143 1334 1143 1334 983 1334 c 0,24,25
 800 1334 800 1334 749 1096 c 16,26,27
 743 1067 743 1067 743 1043 c 0,28,29
 743 919 743 919 908 919 c 2,30,-1
 1029 919 l 1,31,-1
 1232 551 l 1,32,33
 1292 681 1292 681 1341 915 c 1,34,-1
 1658 974 l 1,35,36
 1569 553 1569 553 1379 320 c 1,37,-1
 1556 0 l 1,0,-1
788 729 m 1,38,39
 576 687 576 687 522 436 c 16,40,41
 512 387 512 387 512 348 c 0,42,43
 512 165 512 165 730 164 c 0,44,45
 920 164 920 164 1050 279 c 1,46,-1
 788 729 l 1,38,39
EndSplineSet
Validated: 1
EndChar

StartChar: quotesingle
Encoding: 39 39 10
Width: 296
GlyphClass: 2
Flags: W
HStem: 1120 410<345 479>
VStem: 292 309
LayerCount: 2
Fore
SplineSet
345 1530 m 1,0,-1
 601 1530 l 1,1,-1
 479 1120 l 1,2,-1
 292 1120 l 1,3,-1
 345 1530 l 1,0,-1
EndSplineSet
Validated: 1
EndChar

StartChar: parenleft
Encoding: 40 40 11
Width: 888
GlyphClass: 2
Flags: W
VStem: 324 317<55.9281 764.962>
LayerCount: 2
Fore
SplineSet
967 1827 m 9,0,1
 1226 1827 l 1,2,3
 801 1322 801 1322 683 765 c 0,4,5
 641 568 641 568 641 375 c 0,6,7
 641 31 641 31 775 -297 c 1,8,-1
 516 -297 l 17,9,10
 324 32 324 32 324 412 c 0,11,12
 324 583 324 583 363 765 c 0,13,14
 485 1341 485 1341 967 1827 c 9,0,1
EndSplineSet
Validated: 1
EndChar

StartChar: parenright
Encoding: 41 41 12
Width: 888
GlyphClass: 2
Flags: W
VStem: 573 315<765.038 1467.19>
LayerCount: 2
Fore
SplineSet
697 1827 m 17,0,1
 888 1490 888 1490 888 1110 c 0,2,3
 888 942 888 942 851 765 c 0,4,5
 727 180 727 180 246 -297 c 9,6,-1
 -13 -297 l 1,7,8
 414 215 414 215 531 765 c 0,9,10
 573 965 573 965 573 1158 c 0,11,12
 573 1503 573 1503 438 1827 c 1,13,-1
 697 1827 l 17,0,1
EndSplineSet
Validated: 1
EndChar

StartChar: asterisk
Encoding: 42 42 13
Width: 1080
GlyphClass: 2
Flags: W
HStem: 1490 20G<750.741 967>
VStem: 565 212<617 829> 755 212<1298 1510>
DStem2: 298 932 365 748 0.889252 0.457417<0 263.443 689.198 952.641> 499 1379 354 1195 0.835254 -0.549865<0 219.146 573.294 792.99> 565 617 777 617 0.207912 0.978148<44.0773 268.896 688.17 912.989>
LayerCount: 2
Fore
SplineSet
755 1510 m 1,0,-1
 967 1510 l 1,1,-1
 911 1247 l 1,2,-1
 1167 1379 l 1,3,-1
 1234 1195 l 1,4,-1
 978 1064 l 1,5,-1
 1178 932 l 1,6,-1
 1033 748 l 1,7,-1
 833 880 l 1,8,-1
 777 617 l 1,9,-1
 565 617 l 1,10,-1
 621 880 l 1,11,-1
 365 748 l 1,12,-1
 298 932 l 1,13,-1
 554 1064 l 1,14,-1
 354 1195 l 1,15,-1
 499 1379 l 1,16,-1
 699 1247 l 1,17,-1
 755 1510 l 1,0,-1
EndSplineSet
Validated: 1
EndChar

StartChar: plus
Encoding: 43 43 14
Width: 1184
GlyphClass: 2
Flags: W
HStem: 642 251<290 602 907 1220>
VStem: 524 251<275 526> 729 251<984 1235>
DStem2: 524 275 775 275 0.207912 0.978148<52.1858 375.197 684.125 981.644>
LayerCount: 2
Fore
SplineSet
524 275 m 1,0,-1
 602 642 l 1,1,-1
 236 642 l 1,2,-1
 290 893 l 1,3,-1
 656 893 l 1,4,-1
 729 1235 l 1,5,-1
 980 1235 l 1,6,-1
 907 893 l 1,7,-1
 1274 893 l 1,8,-1
 1220 642 l 1,9,-1
 853 642 l 1,10,-1
 775 275 l 1,11,-1
 524 275 l 1,0,-1
EndSplineSet
Validated: 1
EndChar

StartChar: comma
Encoding: 44 44 15
Width: 422
GlyphClass: 2
Flags: W
VStem: 177 243<-50.0215 130.744>
LayerCount: 2
Fore
SplineSet
268 380 m 1,0,1
 420 277 420 277 420 121 c 0,2,3
 420 84 420 84 411 44 c 0,4,5
 364 -179 364 -179 31 -328 c 1,6,-1
 -21 -195 l 1,7,8
 147 -124 147 -124 173 0 c 0,9,10
 177 18 177 18 177 34 c 0,11,12
 177 122 177 122 69 171 c 1,13,-1
 268 380 l 1,0,1
EndSplineSet
Validated: 1
EndChar

StartChar: hyphen
Encoding: 45 45 16
Width: 1184
GlyphClass: 2
Flags: W
HStem: 642 251<290 1220>
LayerCount: 2
Fore
SplineSet
290 893 m 1,0,-1
 1274 893 l 1,1,-1
 1220 642 l 1,2,-1
 236 642 l 1,3,-1
 290 893 l 1,0,-1
EndSplineSet
Validated: 1
EndChar

StartChar: period
Encoding: 46 46 17
Width: 400
GlyphClass: 2
Flags: W
HStem: -20 377<122.04 349.96>
VStem: 43 386<61.2812 275.719>
LayerCount: 2
Fore
SplineSet
196 -20 m 0,0,1
 43 -20 43 -20 43 108 c 24,2,3
 43 356 43 356 276 357 c 0,4,5
 429 357 429 357 429 229 c 24,6,7
 429 -20 429 -20 196 -20 c 0,0,1
EndSplineSet
Validated: 1
EndChar

StartChar: slash
Encoding: 47 47 18
Width: 1222
GlyphClass: 2
Flags: W
DStem2: -17 -126 237 -259 0.573288 0.819354<36.6409 2304.25>
LayerCount: 2
Fore
SplineSet
1304 1762 m 1,0,-1
 1558 1628 l 1,1,-1
 237 -259 l 1,2,-1
 -17 -126 l 1,3,-1
 1304 1762 l 1,0,-1
EndSplineSet
Validated: 1
EndChar

StartChar: zero
Encoding: 48 48 19
Width: 1409
GlyphClass: 2
Flags: W
HStem: -20 184<564.118 881.571> 1346 184<849.405 1166.79>
VStem: 193 323<211.719 559.57> 1215 321<950.43 1298.28>
DStem2: 105.722 -20 437.127 -20 0.207912 0.978148<419.738 1240.1> 964.853 -20 1294.28 -20 0.207912 0.978148<413.218 1233.7>
LayerCount: 2
Fore
SplineSet
733 164 m 0,0,1
 1004 164 1004 164 1096 597 c 2,2,-1
 1208 1126 l 2,3,4
 1215 1160 1215 1160 1215 1189 c 0,5,6
 1215 1346 1215 1346 998 1346 c 0,7,8
 727 1346 727 1346 635 913 c 2,9,-1
 523 384 l 2,10,11
 516 350 516 350 516 321 c 0,12,13
 516 164 516 164 733 164 c 0,0,1
602 -20 m 0,14,15
 193 -20 193 -20 193 319 c 0,16,17
 193 392 193 392 212 480 c 2,18,-1
 305 915 l 2,19,20
 436 1530 436 1530 1129 1530 c 0,21,22
 1536 1530 1536 1530 1536 1191 c 0,23,24
 1536 1118 1536 1118 1517 1030 c 2,25,-1
 1425 595 l 2,26,27
 1295 -20 1295 -20 602 -20 c 0,14,15
EndSplineSet
Validated: 1
EndChar

StartChar: one
Encoding: 49 49 20
Width: 775
GlyphClass: 2
Flags: W
HStem: 0 21G<255 579.258> 1318 192<386.479 521>
VStem: 255 320<0 320> 521 328<1081.16 1318>
DStem2: 255 0 575 0 0.207912 0.978148<66.5317 1342.49>
LayerCount: 2
Fore
SplineSet
255 0 m 1,0,-1
 508 1192 l 2,1,2
 521 1252 521 1252 521 1318 c 1,3,4
 419 1318 419 1318 279 1218 c 1,5,-1
 328 1447 l 1,6,7
 511 1510 511 1510 701 1510 c 2,8,-1
 833 1510 l 1,9,10
 849 1446 849 1446 849 1372 c 0,11,12
 849 1289 849 1289 829 1193 c 2,13,-1
 575 0 l 1,14,-1
 255 0 l 1,0,-1
EndSplineSet
Validated: 1
EndChar

StartChar: two
Encoding: 50 50 21
Width: 1208
GlyphClass: 2
Flags: W
HStem: 0 187<405 1052.37> 625 189<614.973 863.657> 1343 187<581.062 1017.54>
VStem: 1061 329<1037.51 1305.47>
LayerCount: 2
Fore
SplineSet
30 0 m 1,0,1
 203 814 203 814 689 814 c 0,2,3
 980 814 980 814 1056 1166 c 16,4,5
 1061 1191 1061 1191 1061 1212 c 0,6,7
 1061 1343 1061 1343 858 1343 c 2,8,-1
 827 1343 l 2,9,10
 639 1343 639 1343 446 1240 c 1,11,-1
 494 1466 l 1,12,13
 664 1530 664 1530 867 1530 c 2,14,-1
 980 1530 l 2,15,16
 1390 1530 1390 1530 1390 1236 c 0,17,18
 1390 1171 1390 1171 1370 1091 c 0,19,20
 1314 871 1314 871 1146 747 c 0,21,22
 979 625 979 625 707 625 c 0,23,24
 543 625 543 625 405 187 c 1,25,-1
 801 187 l 2,26,27
 998 187 998 187 1183 291 c 1,28,-1
 1135 66 l 1,29,30
 962 0 962 0 761 0 c 2,31,-1
 30 0 l 1,0,1
EndSplineSet
Validated: 1
EndChar

StartChar: three
Encoding: 51 51 22
Width: 1308
GlyphClass: 2
Flags: W
HStem: -20 184<309.287 813.508> 730 188<498 819.333> 1343 187<636.166 1039.06>
VStem: 113 335<223.867 399> 1008 331<408.359 684.039> 1061 318<1107.08 1321.53>
LayerCount: 2
Fore
SplineSet
511 -20 m 0,0,1
 113 -20 113 -20 113 341 c 0,2,3
 113 369 113 369 115 399 c 1,4,-1
 462 480 l 1,5,6
 448 415 448 415 448 363 c 0,7,8
 448 164 448 164 652 164 c 0,9,10
 923 164 923 164 1002 536 c 16,11,12
 1008 563 1008 563 1008 586 c 0,13,14
 1008 730 1008 730 786 730 c 2,15,-1
 458 730 l 1,16,-1
 498 918 l 1,17,18
 995 918 995 918 1057 1207 c 16,19,20
 1061 1227 1061 1227 1061 1243 c 0,21,22
 1061 1343 1061 1343 914 1343 c 2,23,-1
 883 1343 l 2,24,25
 695 1343 695 1343 502 1240 c 1,26,-1
 550 1467 l 1,27,28
 733 1530 733 1530 923 1530 c 2,29,-1
 979 1530 l 2,30,31
 1379 1530 1379 1530 1379 1266 c 0,32,33
 1379 1223 1379 1223 1368 1172 c 0,34,35
 1346 1068 1346 1068 1246 979 c 0,36,37
 1180 920 1180 920 1111 886 c 1,38,39
 1339 828 1339 828 1339 615 c 0,40,41
 1339 551 1339 551 1318 472 c 0,42,43
 1254 234 1254 234 1034 101 c 0,44,45
 834 -20 834 -20 511 -20 c 0,0,1
EndSplineSet
Validated: 1
EndChar

StartChar: four
Encoding: 52 52 23
Width: 1301
GlyphClass: 2
Flags: W
HStem: 0 21G<851 1175.26> 422 188<580 941> 1490 20G<446.754 771>
VStem: 451 320<1190 1510> 851 320<0 320> 1111 320<902 1222>
DStem2: 130.301 0 450.34 0 0.207912 0.978148<690.168 1543.68> 851 0 1171 0 0.207912 0.978148<66.5317 431.49 623.699 1249.35>
LayerCount: 2
Fore
SplineSet
1171 0 m 1,0,-1
 851 0 l 1,1,-1
 941 422 l 1,2,-1
 220 422 l 1,3,-1
 451 1510 l 1,4,-1
 771 1510 l 1,5,-1
 580 610 l 1,6,-1
 981 610 l 1,7,-1
 1111 1222 l 1,8,-1
 1431 1222 l 1,9,-1
 1171 0 l 1,0,-1
EndSplineSet
Validated: 1
EndChar

StartChar: five
Encoding: 53 53 24
Width: 1288
GlyphClass: 2
Flags: W
HStem: -20 184<309.287 813.938> 730 188<714 958.544> 1322 188<827 1391>
VStem: 113 335<223.867 399> 1008 333<409.404 685.013>
DStem2: 353 730 714 918 0.269172 0.963092<278.232 697.738>
LayerCount: 2
Fore
SplineSet
511 -20 m 0,0,1
 113 -20 113 -20 113 341 c 0,2,3
 113 369 113 369 115 399 c 1,4,-1
 462 480 l 1,5,6
 448 415 448 415 448 363 c 0,7,8
 448 164 448 164 652 164 c 0,9,10
 923 164 923 164 1002 536 c 16,11,12
 1008 563 1008 563 1008 586 c 0,13,14
 1008 730 1008 730 786 730 c 2,15,-1
 353 730 l 1,16,-1
 571 1510 l 1,17,-1
 1431 1510 l 1,18,-1
 1391 1322 l 1,19,-1
 827 1322 l 1,20,-1
 714 918 l 1,21,-1
 920 918 l 2,22,23
 1341 918 1341 918 1341 625 c 0,24,25
 1341 556 1341 556 1318 472 c 0,26,27
 1255 242 1255 242 1048 109 c 0,28,29
 845 -20 845 -20 511 -20 c 0,0,1
EndSplineSet
Validated: 1
EndChar

StartChar: six
Encoding: 54 54 25
Width: 1409
GlyphClass: 2
Flags: W
HStem: -20 185<574.974 897.685> 732 185<686.325 1037.45> 1346 184<842.113 1140.16>
VStem: 193 319<225.523 541.652> 1088 331<406.582 685.186> 1201 331<1112 1289.96>
DStem2: 105.722 -20 425.712 -20 0.207912 0.978148<445.593 730.792 969.173 1239.87>
LayerCount: 2
Fore
SplineSet
591 -20 m 0,0,1
 193 -20 193 -20 193 316 c 0,2,3
 193 390 193 390 212 480 c 2,4,-1
 305 915 l 2,5,6
 436 1530 436 1530 1111 1530 c 0,7,8
 1532 1530 1532 1530 1532 1193 c 0,9,10
 1532 1155 1532 1155 1527 1112 c 1,11,-1
 1187 1030 l 1,12,13
 1201 1095 1201 1095 1201 1147 c 0,14,15
 1201 1346 1201 1346 997 1346 c 0,16,17
 722 1346 722 1346 625 916 c 2,18,-1
 613 863 l 1,19,20
 775 917 775 917 979 917 c 0,21,22
 1419 917 1419 917 1419 613 c 0,23,24
 1419 542 1419 542 1395 454 c 0,25,26
 1329 213 1329 213 1079 81 c 0,27,28
 886 -20 886 -20 591 -20 c 0,0,1
735 165 m 0,29,30
 1004 165 1004 165 1082 537 c 16,31,32
 1088 564 1088 564 1088 587 c 0,33,34
 1088 732 1088 732 867 732 c 0,35,36
 586 732 586 732 522 433 c 16,37,38
 512 386 512 386 512 348 c 0,39,40
 512 165 512 165 735 165 c 0,29,30
EndSplineSet
Validated: 1
EndChar

StartChar: seven
Encoding: 55 55 26
Width: 1129
GlyphClass: 2
Flags: W
HStem: 0 21G<102 488.793> 1323 187<410.453 1033>
VStem: 102 373<0 373>
LayerCount: 2
Fore
SplineSet
102 0 m 1,0,-1
 1033 1323 l 1,1,-1
 651 1323 l 2,2,3
 457 1323 457 1323 268 1213 c 1,4,-1
 317 1445 l 1,5,6
 479 1510 479 1510 691 1510 c 2,7,-1
 1440 1510 l 1,8,-1
 1406 1350 l 1,9,-1
 475 0 l 1,10,-1
 102 0 l 1,0,-1
EndSplineSet
Validated: 1
EndChar

StartChar: eight
Encoding: 56 56 27
Width: 1406
GlyphClass: 2
Flags: W
HStem: -20 184<574.409 891.999> 730 194<769.383 1037.22> 1334 196<846.395 1249.5>
VStem: 180 340<220.278 517.293> 428 310<952.845 1189.85> 1086 331<406.888 684.251> 1143 311<1069.51 1305.45>
LayerCount: 2
Fore
SplineSet
730 164 m 0,0,1
 1001 164 1001 164 1080 536 c 16,2,3
 1086 563 1086 563 1086 586 c 0,4,5
 1086 730 1086 730 864 730 c 0,6,7
 592 730 592 730 530 433 c 16,8,9
 520 384 520 384 520 344 c 0,10,11
 520 164 520 164 730 164 c 0,0,1
982 1334 m 0,12,13
 794 1334 794 1334 744 1099 c 16,14,15
 738 1071 738 1071 738 1047 c 0,16,17
 738 924 738 924 902 924 c 0,18,19
 1088 924 1088 924 1137 1156 c 16,20,21
 1143 1185 1143 1185 1143 1210 c 0,22,23
 1143 1334 1143 1334 982 1334 c 0,12,13
589 -20 m 0,24,25
 180 -20 180 -20 180 286 c 0,26,27
 180 373 180 373 213 485 c 8,28,29
 273 687 273 687 521 801 c 1,30,31
 428 867 428 867 428 995 c 0,32,33
 428 1046 428 1046 443 1107 c 0,34,35
 495 1319 495 1319 703 1434 c 0,36,37
 878 1530 878 1530 1157 1530 c 0,38,39
 1342 1530 1342 1530 1416 1401 c 0,40,41
 1454 1335 1454 1335 1454 1255 c 0,42,43
 1454 1202 1454 1202 1437 1142 c 0,44,45
 1386 962 1386 962 1221 875 c 1,46,47
 1417 821 1417 821 1417 619 c 0,48,49
 1417 549 1417 549 1394 462 c 0,50,51
 1338 251 1338 251 1139 118 c 0,52,53
 934 -20 934 -20 589 -20 c 0,24,25
EndSplineSet
Validated: 1
EndChar

StartChar: nine
Encoding: 57 57 28
Width: 1408
GlyphClass: 2
Flags: W
HStem: -20 184<588.836 886.887> 593 185<691.547 1042.67> 1345 185<831.315 1154.03>
VStem: 197 331<220.039 398> 310 331<824.814 1103.42> 1217 319<968.348 1284.48>
DStem2: 973.49 -20 1293.28 -20 0.207912 0.978148<411.357 682.054 920.435 1205.63>
LayerCount: 2
Fore
SplineSet
618 -20 m 0,0,1
 197 -20 197 -20 197 317 c 0,2,3
 197 355 197 355 202 398 c 1,4,-1
 542 480 l 1,5,6
 528 415 528 415 528 363 c 0,7,8
 528 164 528 164 732 164 c 0,9,10
 1007 164 1007 164 1104 594 c 2,11,-1
 1116 647 l 1,12,13
 954 593 954 593 750 593 c 0,14,15
 310 593 310 593 310 897 c 0,16,17
 310 968 310 968 334 1056 c 0,18,19
 400 1297 400 1297 650 1429 c 0,20,21
 843 1530 843 1530 1138 1530 c 0,22,23
 1536 1530 1536 1530 1536 1194 c 0,24,25
 1536 1120 1536 1120 1517 1030 c 2,26,-1
 1424 595 l 2,27,28
 1293 -20 1293 -20 618 -20 c 0,0,1
994 1345 m 0,29,30
 725 1345 725 1345 647 973 c 16,31,32
 641 946 641 946 641 923 c 0,33,34
 641 778 641 778 862 778 c 0,35,36
 1143 778 1143 778 1207 1077 c 16,37,38
 1217 1124 1217 1124 1217 1162 c 0,39,40
 1217 1345 1217 1345 994 1345 c 0,29,30
EndSplineSet
Validated: 1
EndChar

StartChar: colon
Encoding: 58 58 29
Width: 400
GlyphClass: 2
Flags: W
HStem: -20 377<122.04 349.96> 575 377<248.04 475.96>
VStem: 43 386<61.2812 275.719> 169 386<656.281 870.719>
LayerCount: 2
Fore
SplineSet
402 952 m 0,0,1
 555 952 555 952 555 824 c 24,2,3
 555 575 555 575 322 575 c 0,4,5
 169 575 169 575 169 703 c 24,6,7
 169 951 169 951 402 952 c 0,0,1
196 -20 m 0,8,9
 43 -20 43 -20 43 108 c 24,10,11
 43 356 43 356 276 357 c 0,12,13
 429 357 429 357 429 229 c 24,14,15
 429 -20 429 -20 196 -20 c 0,8,9
EndSplineSet
Validated: 1
EndChar

StartChar: semicolon
Encoding: 59 59 30
Width: 422
GlyphClass: 2
Flags: W
HStem: 575 377<254.04 481.96>
VStem: 175 386<656.281 870.719> 177 243<-50.0215 130.744>
LayerCount: 2
Fore
SplineSet
408 952 m 0,0,1
 561 952 561 952 561 824 c 24,2,3
 561 575 561 575 328 575 c 0,4,5
 175 575 175 575 175 703 c 24,6,7
 175 951 175 951 408 952 c 0,0,1
268 380 m 1,8,9
 420 277 420 277 420 121 c 0,10,11
 420 84 420 84 411 44 c 0,12,13
 364 -179 364 -179 31 -328 c 1,14,-1
 -21 -195 l 1,15,16
 147 -124 147 -124 173 0 c 0,17,18
 177 18 177 18 177 34 c 0,19,20
 177 122 177 122 69 171 c 1,21,-1
 268 380 l 1,8,9
EndSplineSet
Validated: 1
EndChar

StartChar: less
Encoding: 60 60 31
Width: 1106
GlyphClass: 2
Flags: W
DStem2: 620 791 246 685 0.816542 -0.577286<0 532.126>
LayerCount: 2
Fore
SplineSet
1254 1400 m 1,0,-1
 1186 1082 l 1,1,-1
 620 791 l 1,2,-1
 1061 493 l 1,3,-1
 990 159 l 1,4,-1
 246 685 l 1,5,-1
 286 874 l 1,6,-1
 1254 1400 l 1,0,-1
EndSplineSet
Validated: 1
EndChar

StartChar: equal
Encoding: 61 61 32
Width: 1203
GlyphClass: 2
Flags: W
HStem: 420 251<243 1192> 868 251<338 1287>
LayerCount: 2
Fore
SplineSet
1287 868 m 1,0,-1
 284 868 l 1,1,-1
 338 1119 l 1,2,-1
 1341 1119 l 1,3,-1
 1287 868 l 1,0,-1
1192 420 m 1,4,-1
 189 420 l 1,5,-1
 243 671 l 1,6,-1
 1246 671 l 1,7,-1
 1192 420 l 1,4,-1
EndSplineSet
Validated: 1
EndChar

StartChar: greater
Encoding: 62 62 33
Width: 1106
GlyphClass: 2
Flags: W
DStem2: 251 477 184 159 0.878658 0.477452<0 637.138> 448 1400 376 1066 0.816542 -0.577286<134.023 666.965>
LayerCount: 2
Fore
SplineSet
448 1400 m 1,0,-1
 1192 874 l 1,1,-1
 1152 685 l 1,2,-1
 184 159 l 1,3,-1
 251 477 l 1,4,-1
 818 768 l 1,5,-1
 376 1066 l 1,6,-1
 448 1400 l 1,0,-1
EndSplineSet
Validated: 1
EndChar

StartChar: question
Encoding: 63 63 34
Width: 1408
GlyphClass: 2
Flags: W
HStem: -20 377<576.04 803.96> 559 176<929.99 1054.03> 1346 184<839.117 1174.7>
VStem: 497 386<61.2812 275.719> 1225 314<990 1295.74>
LayerCount: 2
Fore
SplineSet
650 -20 m 0,0,1
 497 -20 497 -20 497 108 c 24,2,3
 497 356 497 356 730 357 c 0,4,5
 883 357 883 357 883 229 c 24,6,7
 883 -20 883 -20 650 -20 c 0,0,1
1138 1530 m 0,8,9
 1539 1530 1539 1530 1539 1201 c 0,10,11
 1539 1126 1539 1126 1518 1034 c 0,12,13
 1474 840 1474 840 1314 692 c 0,14,15
 1172 559 1172 559 977 559 c 0,16,17
 932 559 932 559 918 495 c 1,18,-1
 575 388 l 1,19,20
 649 735 649 735 939 735 c 0,21,22
 1134 735 1134 735 1218 1127 c 16,23,24
 1225 1160 1225 1160 1225 1187 c 0,25,26
 1225 1346 1225 1346 996 1346 c 0,27,28
 726 1346 726 1346 642 950 c 9,29,-1
 295 869 l 1,30,31
 435 1530 435 1530 1138 1530 c 0,8,9
EndSplineSet
Validated: 1
EndChar

StartChar: at
Encoding: 64 64 35
Width: 1480
GlyphClass: 2
Flags: W
HStem: -430 167<453.083 790.57> -20 190<658 898.026> 0 21G<1088 1410> 545 151<942.628 1130> 933 187<813.658 1171.19>
VStem: 125 288<-222.213 134.438> 532 249<171.659 351.656> 1085 292<1.72144 213.83> 1200 297<698.062 904.375>
DStem2: 38.7845 -430 337.615 -430 0.207912 0.978148<389.987 1226.04>
LayerCount: 2
Fore
SplineSet
1410 0 m 1,0,-1
 1091 0 l 1,1,2
 1085 37 1085 37 1085 77 c 0,3,4
 1085 143 1085 143 1101 215 c 1,5,6
 939 -20 939 -20 716 -20 c 0,7,8
 600 -20 600 -20 556 72 c 0,9,10
 532 122 532 122 532 179 c 0,11,12
 532 235 532 235 555 299 c 0,13,14
 634 520 634 520 834 622 c 0,15,16
 978 696 978 696 1183 696 c 1,17,-1
 1193 744 l 2,18,19
 1200 778 1200 778 1200 804 c 0,20,21
 1200 933 1200 933 1045 933 c 0,22,23
 627 932 627 932 536 504 c 2,24,-1
 422 -33 l 2,25,26
 413 -75 413 -75 413 -112 c 0,27,28
 413 -263 413 -263 584 -263 c 0,29,30
 840 -263 840 -263 874 -103 c 1,31,-1
 1183 -67 l 1,32,33
 1106 -430 1106 -430 514 -430 c 0,34,35
 125 -430 125 -430 125 -98 c 0,36,37
 125 -24 125 -24 144 65 c 2,38,-1
 238 507 l 2,39,40
 368 1120 368 1120 1137 1120 c 0,41,42
 1497 1120 1497 1120 1497 838 c 0,43,44
 1497 782 1497 782 1482 712 c 2,45,-1
 1395 308 l 2,46,47
 1377 224 1377 224 1377 165 c 0,48,49
 1377 73 1377 73 1410 0 c 1,0,-1
1130 545 m 1,50,51
 847 545 847 545 785 262 c 16,52,53
 781 243 781 243 781 228 c 0,54,55
 781 170 781 170 843 170 c 0,56,57
 972 170 972 170 1130 545 c 1,50,51
EndSplineSet
Validated: 1
EndChar

StartChar: B
Encoding: 66 66 36
Width: 1357
GlyphClass: 2
Flags: W
HStem: 0 187<510 867.25> 730 190<667 913.008> 1323 187<738.165 1084.26>
VStem: 1057 330<420.17 685.41> 1106 325<1103.06 1302.8>
DStem2: 150 0 470.252 0 0.207912 0.978148<257.762 813.014 1007.39 1355.11>
LayerCount: 2
Fore
SplineSet
510 187 m 1,0,-1
 705 187 l 2,1,2
 974 187 974 187 1051 542 c 16,3,4
 1057 568 1057 568 1057 590 c 0,5,6
 1057 730 1057 730 834 730 c 2,7,-1
 626 730 l 1,8,-1
 510 187 l 1,0,-1
150 0 m 1,9,-1
 404 1193 l 2,10,11
 420 1266 420 1266 420 1330 c 0,12,13
 420 1431 420 1431 381 1510 c 1,14,-1
 1023 1510 l 2,15,16
 1431 1510 1431 1510 1431 1273 c 0,17,18
 1431 1223 1431 1223 1413 1162 c 0,19,20
 1385 1069 1385 1069 1285 985 c 0,21,22
 1221 930 1221 930 1129 890 c 1,23,24
 1387 840 1387 840 1387 612 c 0,25,26
 1387 545 1387 545 1365 463 c 0,27,28
 1300 223 1300 223 1041 95 c 0,29,30
 850 0 850 0 563 0 c 2,31,-1
 150 0 l 1,9,-1
667 920 m 1,32,33
 1044 920 1044 920 1103 1199 c 16,34,35
 1106 1215 1106 1215 1106 1230 c 0,36,37
 1106 1323 1106 1323 958 1323 c 2,38,-1
 742 1323 l 1,39,40
 739 1266 739 1266 723 1189 c 2,41,-1
 667 920 l 1,32,33
EndSplineSet
Validated: 1
EndChar

StartChar: C
Encoding: 67 67 37
Width: 1410
GlyphClass: 2
Flags: W
HStem: -20 184<565.597 878.022> 1346 184<852.286 1340.71>
VStem: 194 322<211.033 559.57> 1202 335<1110 1288.89>
DStem2: 106.722 -20 437.127 -20 0.207912 0.978148<419.53 1239.95>
LayerCount: 2
Fore
SplineSet
592 -20 m 0,0,1
 194 -20 194 -20 194 317 c 0,2,3
 194 391 194 391 213 480 c 2,4,-1
 305 915 l 2,5,6
 435 1530 435 1530 1139 1530 c 0,7,8
 1537 1530 1537 1530 1537 1190 c 0,9,10
 1537 1152 1537 1152 1532 1110 c 1,11,-1
 1188 1029 l 1,12,13
 1202 1095 1202 1095 1202 1147 c 0,14,15
 1202 1346 1202 1346 998 1346 c 0,16,17
 727 1346 727 1346 635 913 c 2,18,-1
 523 384 l 2,19,20
 516 350 516 350 516 321 c 0,21,22
 516 164 516 164 733 164 c 0,23,24
 967 164 967 164 1074 509 c 9,25,-1
 1416 546 l 1,26,27
 1244 -20 1244 -20 592 -20 c 0,0,1
EndSplineSet
Validated: 1
EndChar

StartChar: D
Encoding: 68 68 38
Width: 1408
GlyphClass: 2
Flags: W
HStem: 0 187<510 889.27> 1323 187<739 1158.49>
VStem: 419 320<1062.52 1323> 1210 322<930.234 1273.57>
DStem2: 150 0 470.252 0 0.207912 0.978148<257.762 1348.12> 968.065 0 1298.28 0 0.207912 0.978148<413.576 1190.94>
LayerCount: 2
Fore
SplineSet
510 187 m 1,0,-1
 738 187 l 2,1,2
 1008 187 1008 187 1099 616 c 2,3,-1
 1203 1106 l 2,4,5
 1210 1139 1210 1139 1210 1167 c 0,6,7
 1210 1323 1210 1323 991 1323 c 2,8,-1
 739 1323 l 1,9,10
 737 1258 737 1258 722 1187 c 2,11,-1
 510 187 l 1,0,-1
150 0 m 1,12,-1
 404 1193 l 2,13,14
 419 1261 419 1261 419 1323 c 0,15,16
 419 1423 419 1423 381 1510 c 1,17,-1
 1134 1510 l 2,18,19
 1532 1510 1532 1510 1532 1174 c 0,20,21
 1532 1101 1532 1101 1513 1011 c 2,22,-1
 1429 615 l 2,23,24
 1299 0 1299 0 621 0 c 2,25,-1
 150 0 l 1,12,-1
EndSplineSet
Validated: 1
EndChar

StartChar: E
Encoding: 69 69 39
Width: 1131
GlyphClass: 2
Flags: W
HStem: 0 187<510 1021.9> 667 188<652 1094> 1323 187<739 1233>
VStem: 420 319<1062.52 1323>
DStem2: 150 0 470.252 0 0.207912 0.978148<257.762 748.48 940.688 1356.09>
LayerCount: 2
Fore
SplineSet
150 0 m 1,0,-1
 404 1193 l 2,1,2
 420 1267 420 1267 420 1331 c 0,3,4
 420 1432 420 1432 381 1510 c 1,5,-1
 1273 1510 l 1,6,-1
 1233 1323 l 1,7,-1
 739 1323 l 1,8,9
 737 1256 737 1256 723 1189 c 2,10,-1
 652 855 l 1,11,-1
 1134 855 l 1,12,-1
 1094 667 l 1,13,-1
 612 667 l 1,14,-1
 510 187 l 1,15,-1
 781 187 l 2,16,17
 977 187 977 187 1165 302 c 1,18,-1
 1115 66 l 1,19,20
 944 0 944 0 741 0 c 2,21,-1
 150 0 l 1,0,-1
EndSplineSet
Validated: 1
EndChar

StartChar: F
Encoding: 70 70 40
Width: 1022
GlyphClass: 2
Flags: W
HStem: 0 21G<150 474.253> 663 188<651 1093> 1323 187<739 1230>
VStem: 150 320<0 320> 419 320<1062.52 1323>
DStem2: 150 0 470 0 0.207912 0.978148<66.5317 744.359 936.567 1352.95>
LayerCount: 2
Fore
SplineSet
150 0 m 1,0,-1
 404 1193 l 2,1,2
 419 1264 419 1264 419 1328 c 0,3,4
 419 1429 419 1429 381 1510 c 1,5,-1
 1273 1510 l 1,6,-1
 1230 1323 l 1,7,-1
 739 1323 l 1,8,9
 736 1254 736 1254 722 1187 c 2,10,-1
 651 851 l 1,11,-1
 1133 851 l 1,12,-1
 1093 663 l 1,13,-1
 611 663 l 1,14,-1
 470 0 l 1,15,-1
 150 0 l 1,0,-1
EndSplineSet
Validated: 1
EndChar

StartChar: G
Encoding: 71 71 41
Width: 1409
GlyphClass: 2
Flags: W
HStem: -20 184<564.164 882.278> 607 188<876.272 1098> 1346 184<849.234 1142.68>
VStem: 194 322<211.719 559.57> 1201 336<1110 1289.32>
DStem2: 106.722 -20 437.127 -20 0.207912 0.978148<419.53 1239.82>
LayerCount: 2
Fore
SplineSet
602 -20 m 0,0,1
 194 -20 194 -20 194 319 c 0,2,3
 194 392 194 392 213 480 c 2,4,-1
 305 915 l 2,5,6
 435 1530 435 1530 1129 1530 c 0,7,8
 1537 1530 1537 1530 1537 1192 c 0,9,10
 1537 1153 1537 1153 1532 1110 c 1,11,-1
 1188 1029 l 1,12,13
 1201 1093 1201 1093 1201 1145 c 0,14,15
 1201 1346 1201 1346 998 1346 c 0,16,17
 727 1346 727 1346 635 913 c 2,18,-1
 523 384 l 2,19,20
 516 350 516 350 516 321 c 0,21,22
 516 164 516 164 733 164 c 0,23,24
 1009 164 1009 164 1095 592 c 2,25,-1
 1098 607 l 1,26,27
 920 607 920 607 732 492 c 1,28,-1
 782 729 l 1,29,30
 956 795 956 795 1156 795 c 2,31,-1
 1468 795 l 1,32,-1
 1426 599 l 2,33,34
 1293 -20 1293 -20 602 -20 c 0,0,1
EndSplineSet
Validated: 1
EndChar

StartChar: H
Encoding: 72 72 42
Width: 1426
GlyphClass: 2
Flags: W
HStem: 0 21G<150 474.241 1011.5 1366> 665 188<651 1097> 1490 20G<381 735 1272.74 1597>
VStem: 150 320<0 320> 419 324<1078.97 1507.64> 1004 324<2.40881 432.078> 1277 320<1190 1510>
DStem2: 150 0 470 0 0.207912 0.978148<66.5317 746.315 938.524 1350.05> 956.045 0 1275.62 0 0.207912 0.978148<261.167 679.774 871.983 1543.73>
LayerCount: 2
Fore
SplineSet
150 0 m 1,0,-1
 404 1193 l 2,1,2
 419 1262 419 1262 419 1325 c 0,3,4
 419 1426 419 1426 381 1510 c 1,5,-1
 727 1510 l 1,6,7
 743 1443 743 1443 743 1368 c 0,8,9
 743 1286 743 1286 724 1194 c 2,10,-1
 651 853 l 1,11,-1
 1137 853 l 1,12,-1
 1277 1510 l 1,13,-1
 1597 1510 l 1,14,-1
 1343 317 l 2,15,16
 1328 248 1328 248 1328 186 c 0,17,18
 1328 85 1328 85 1366 0 c 1,19,-1
 1019 0 l 1,20,21
 1004 69 1004 69 1004 143 c 0,22,23
 1004 226 1004 226 1023 315 c 2,24,-1
 1097 665 l 1,25,-1
 611 665 l 1,26,-1
 470 0 l 1,27,-1
 150 0 l 1,0,-1
EndSplineSet
Validated: 1
EndChar

StartChar: I
Encoding: 73 73 43
Width: 620
GlyphClass: 2
Flags: W
HStem: 0 21G<150 474.258> 1490 20G<381 735>
VStem: 150 320<0 320> 419 324<1081.16 1507.64>
DStem2: 150 0 470 0 0.207912 0.978148<66.5317 1350.05>
LayerCount: 2
Fore
SplineSet
150 0 m 1,0,-1
 404 1193 l 2,1,2
 419 1262 419 1262 419 1325 c 0,3,4
 419 1426 419 1426 381 1510 c 1,5,-1
 727 1510 l 1,6,7
 743 1443 743 1443 743 1367 c 0,8,9
 743 1285 743 1285 724 1193 c 2,10,-1
 470 0 l 1,11,-1
 150 0 l 1,0,-1
EndSplineSet
Validated: 1
EndChar

StartChar: J
Encoding: 74 74 44
Width: 1148
GlyphClass: 2
Flags: W
HStem: -20 184<222.5 636.822> 1323 187<621.471 959>
VStem: 75 337<179.929 319>
DStem2: 674.108 -20 993.345 -20 0.207912 0.978148<349.5 1372.88>
LayerCount: 2
Fore
SplineSet
370 -20 m 0,0,1
 75 -20 75 -20 75 264 c 0,2,3
 75 290 75 290 78 319 c 1,4,-1
 425 401 l 1,5,6
 412 337 412 337 412 291 c 0,7,8
 412 164 412 164 511 164 c 0,9,10
 713 164 713 164 784 497 c 2,11,-1
 959 1323 l 1,12,-1
 869 1323 l 2,13,14
 685 1323 685 1323 487 1220 c 1,15,-1
 535 1444 l 1,16,17
 701 1510 701 1510 909 1510 c 2,18,-1
 1319 1510 l 1,19,-1
 1106 510 l 2,20,21
 994 -20 994 -20 370 -20 c 0,0,1
EndSplineSet
Validated: 1
EndChar

StartChar: K
Encoding: 75 75 45
Width: 1336
GlyphClass: 2
Flags: W
HStem: 0 21G<150 474.241 911 1276> 665 188<651 899.656> 1490 20G<381 737.5 1156.77 1491>
VStem: 150 320<0 320> 420 325<1090.95 1507.89> 903 337<2.22253 465.887> 944 327<159.815 624.977>
DStem2: 150 0 470 0 0.207912 0.978148<66.5317 746.315 938.524 1359.97> 857.045 0 1187.41 0 0.207912 0.978148<258.655 482.54 1144.13 1493.15>
LayerCount: 2
Fore
SplineSet
150 0 m 1,0,-1
 404 1193 l 2,1,2
 420 1270 420 1270 420 1335 c 0,3,4
 420 1436 420 1436 381 1510 c 1,5,-1
 730 1510 l 1,6,7
 745 1449 745 1449 745 1378 c 0,8,9
 745 1294 745 1294 724 1194 c 2,10,-1
 651 853 l 1,11,-1
 833 853 l 2,12,13
 1022 853 1022 853 1091 1179 c 2,14,-1
 1161 1510 l 1,15,-1
 1491 1510 l 1,16,-1
 1443 1284 l 2,17,18
 1366 922 1366 922 1101 780 c 1,19,20
 1271 674 1271 674 1271 459 c 0,21,22
 1271 393 1271 393 1255 318 c 0,23,24
 1240 246 1240 246 1240 181 c 0,25,26
 1240 81 1240 81 1276 0 c 1,27,-1
 919 0 l 1,28,29
 903 61 903 61 903 134 c 0,30,31
 903 217 903 217 924 315 c 0,32,33
 944 408 944 408 944 477 c 0,34,35
 944 665 944 665 793 665 c 2,36,-1
 611 665 l 1,37,-1
 470 0 l 1,38,-1
 150 0 l 1,0,-1
EndSplineSet
Validated: 1
EndChar

StartChar: L
Encoding: 76 76 46
Width: 1111
GlyphClass: 2
Flags: W
HStem: 0 187<510 1021.9> 1490 20G<381 735>
VStem: 419 324<1082.06 1507.64>
DStem2: 150 0 470.252 0 0.207912 0.978148<257.762 1350.05>
LayerCount: 2
Fore
SplineSet
150 0 m 1,0,-1
 404 1193 l 2,1,2
 419 1262 419 1262 419 1325 c 0,3,4
 419 1426 419 1426 381 1510 c 1,5,-1
 727 1510 l 1,6,7
 743 1443 743 1443 743 1367 c 0,8,9
 743 1285 743 1285 724 1193 c 2,10,-1
 510 187 l 1,11,-1
 781 187 l 2,12,13
 977 187 977 187 1165 302 c 1,14,-1
 1115 66 l 1,15,16
 944 0 944 0 741 0 c 2,17,-1
 150 0 l 1,0,-1
EndSplineSet
Validated: 1
EndChar

StartChar: O
Encoding: 79 79 47
Width: 1409
GlyphClass: 2
Flags: W
HStem: -20 184<564.118 881.571> 1346 184<849.405 1166.79>
VStem: 193 323<211.719 559.57> 1215 321<950.43 1298.28>
DStem2: 105.722 -20 437.127 -20 0.207912 0.978148<419.738 1240.1> 964.853 -20 1294.28 -20 0.207912 0.978148<413.218 1233.7>
LayerCount: 2
Fore
SplineSet
733 164 m 0,0,1
 1004 164 1004 164 1096 597 c 2,2,-1
 1208 1126 l 2,3,4
 1215 1160 1215 1160 1215 1189 c 0,5,6
 1215 1346 1215 1346 998 1346 c 0,7,8
 727 1346 727 1346 635 913 c 2,9,-1
 523 384 l 2,10,11
 516 350 516 350 516 321 c 0,12,13
 516 164 516 164 733 164 c 0,0,1
602 -20 m 0,14,15
 193 -20 193 -20 193 319 c 0,16,17
 193 392 193 392 212 480 c 2,18,-1
 305 915 l 2,19,20
 436 1530 436 1530 1129 1530 c 0,21,22
 1536 1530 1536 1530 1536 1191 c 0,23,24
 1536 1118 1536 1118 1517 1030 c 2,25,-1
 1425 595 l 2,26,27
 1295 -20 1295 -20 602 -20 c 0,14,15
EndSplineSet
Validated: 1
EndChar

StartChar: P
Encoding: 80 80 48
Width: 1295
GlyphClass: 2
Flags: W
HStem: 0 21G<150 474.241> 481 188<612 915.602> 1323 187<737 1083.28>
VStem: 150 320<0 320> 418 319<1062.52 1322.12> 1136 328<966.696 1274.61>
DStem2: 150 0 470 0 0.207912 0.978148<66.5317 558.228 750.436 1344.06>
LayerCount: 2
Fore
SplineSet
150 0 m 1,0,-1
 404 1193 l 2,1,2
 418 1259 418 1259 418 1319 c 0,3,4
 418 1419 418 1419 381 1510 c 1,5,-1
 1060 1510 l 2,6,7
 1312 1510 1312 1510 1405 1377 c 0,8,9
 1464 1292 1464 1292 1464 1183 c 0,10,11
 1464 1125 1464 1125 1449 1055 c 0,12,13
 1317 481 1317 481 649 481 c 2,14,-1
 572 481 l 1,15,-1
 470 0 l 1,16,-1
 150 0 l 1,0,-1
612 669 m 1,17,-1
 766 669 l 2,18,19
 1036 669 1036 669 1128 1100 c 16,20,21
 1136 1135 1136 1135 1136 1164 c 0,22,23
 1136 1323 1136 1323 917 1323 c 2,24,-1
 737 1323 l 1,25,26
 737 1255 737 1255 723 1189 c 2,27,-1
 612 669 l 1,17,-1
EndSplineSet
Validated: 1
EndChar

StartChar: Q
Encoding: 81 81 49
Width: 1419
GlyphClass: 2
Flags: W
HStem: -20 184<564.164 880.424> 0 21G<1014.65 1379> 1346 184<849.234 1166.84>
VStem: 194 322<211.719 559.57> 1215 322<950.43 1298.62>
DStem2: 106.722 -20 437.127 -20 0.207912 0.978148<419.53 1239.82> 964.853 -20 1294.28 -20 0.207912 0.978148<478.515 1233.7>
LayerCount: 2
Fore
SplineSet
622 568 m 1,0,-1
 968 568 l 1,1,-1
 1054 448 l 1,2,3
 1078 515 1078 515 1096 597 c 2,4,-1
 1208 1126 l 2,5,6
 1215 1160 1215 1160 1215 1189 c 0,7,8
 1215 1346 1215 1346 998 1346 c 0,9,10
 727 1346 727 1346 635 913 c 2,11,-1
 523 384 l 2,12,13
 516 350 516 350 516 321 c 0,14,15
 516 164 516 164 733 164 c 0,16,17
 816 164 816 164 883 205 c 1,18,-1
 622 568 l 1,0,-1
1379 0 m 1,19,-1
 1029 0 l 1,20,-1
 996 46 l 1,21,22
 829 -20 829 -20 602 -20 c 0,23,24
 194 -20 194 -20 194 319 c 0,25,26
 194 392 194 392 213 480 c 2,27,-1
 305 915 l 2,28,29
 435 1530 435 1530 1129 1530 c 0,30,31
 1537 1530 1537 1530 1537 1192 c 0,32,33
 1537 1119 1537 1119 1518 1030 c 2,34,-1
 1425 595 l 2,35,36
 1372 348 1372 348 1232 203 c 1,37,-1
 1379 0 l 1,19,-1
EndSplineSet
Validated: 1
EndChar

StartChar: R
Encoding: 82 82 50
Width: 1377
GlyphClass: 2
Flags: W
HStem: 0 21G<150 474.241 903.5 1267> 481 188<612 903.795> 1323 187<737 1083.28>
VStem: 150 320<0 320> 417 320<1050.88 1321.25> 896 336<2.59412 383.608> 925 333<193.063 457.637> 1136 328<965.486 1274.61>
DStem2: 150 0 470 0 0.207912 0.978148<66.5317 558.228 750.436 1339.94>
LayerCount: 2
Fore
SplineSet
150 0 m 1,0,-1
 404 1193 l 2,1,2
 417 1255 417 1255 417 1315 c 0,3,4
 417 1415 417 1415 381 1510 c 1,5,-1
 1060 1510 l 2,6,7
 1312 1510 1312 1510 1405 1377 c 0,8,9
 1464 1292 1464 1292 1464 1183 c 0,10,11
 1464 1125 1464 1125 1449 1055 c 0,12,13
 1385 761 1385 761 1084 601 c 1,14,15
 1258 538 1258 538 1258 395 c 0,16,17
 1258 362 1258 362 1249 324 c 0,18,19
 1232 257 1232 257 1232 191 c 0,20,21
 1232 95 1232 95 1267 0 c 1,22,-1
 911 0 l 1,23,24
 896 71 896 71 896 144 c 0,25,26
 896 231 896 231 918 320 c 0,27,28
 925 350 925 350 925 374 c 0,29,30
 925 481 925 481 782 481 c 2,31,-1
 572 481 l 1,32,-1
 470 0 l 1,33,-1
 150 0 l 1,0,-1
612 669 m 1,34,-1
 766 669 l 2,35,36
 1036 669 1036 669 1128 1100 c 16,37,38
 1136 1135 1136 1135 1136 1164 c 0,39,40
 1136 1323 1136 1323 917 1323 c 2,41,-1
 737 1323 l 1,42,43
 737 1255 737 1255 723 1189 c 2,44,-1
 612 669 l 1,34,-1
EndSplineSet
Validated: 1
EndChar

StartChar: S
Encoding: 83 83 51
Width: 1328
GlyphClass: 2
Flags: W
HStem: -20 184<346.5 839.552> 711 212<712.535 977.81> 1346 184<790.623 1263>
VStem: 152 336<220.5 399> 331 339<965.376 1198.5> 1023 330<388.657 667.116> 1104 334<1108.56 1308.14>
LayerCount: 2
Fore
SplineSet
541 -20 m 0,0,1
 152 -19 152 -19 152 332 c 0,2,3
 152 364 152 364 155 399 c 1,4,-1
 502 480 l 1,5,6
 488 413 488 413 488 360 c 0,7,8
 488 164 488 164 682 164 c 0,9,10
 942 164 942 164 1017 515 c 16,11,12
 1023 543 1023 543 1023 568 c 0,13,14
 1023 711 1023 711 812 711 c 0,15,16
 331 711 331 711 331 1001 c 0,17,18
 331 1063 331 1063 353 1139 c 0,19,20
 412 1340 412 1340 650 1450 c 0,21,22
 822 1530 822 1530 1088 1530 c 0,23,24
 1438 1530 1438 1530 1438 1191 c 0,25,26
 1438 1154 1438 1154 1434 1112 c 1,27,-1
 1087 1031 l 1,28,29
 1104 1111 1104 1111 1104 1171 c 0,30,31
 1104 1346 1104 1346 957 1346 c 0,32,33
 725 1346 725 1346 676 1112 c 16,34,35
 670 1085 670 1085 670 1063 c 0,36,37
 670 923 670 923 880 923 c 0,38,39
 1353 923 1353 923 1353 599 c 0,40,41
 1353 545 1353 545 1340 481 c 0,42,43
 1287 230 1287 230 1020 80 c 0,44,45
 841 -20 841 -20 541 -20 c 0,0,1
EndSplineSet
Validated: 1
EndChar

StartChar: T
Encoding: 84 84 52
Width: 1160
GlyphClass: 2
Flags: W
HStem: 0 21G<420 744.248> 1323 187<422.66 701 1021 1431>
VStem: 420 320<0 320>
DStem2: 420 0 740 0 0.207912 0.978148<66.5317 1352.51>
LayerCount: 2
Fore
SplineSet
420 0 m 1,0,-1
 701 1323 l 1,1,-1
 651 1323 l 2,2,3
 476 1323 476 1323 267 1209 c 1,4,-1
 316 1439 l 1,5,6
 479 1510 479 1510 691 1510 c 2,7,-1
 1471 1510 l 1,8,-1
 1431 1323 l 1,9,-1
 1021 1323 l 1,10,-1
 740 0 l 1,11,-1
 420 0 l 1,0,-1
EndSplineSet
Validated: 1
EndChar

StartChar: U
Encoding: 85 85 53
Width: 1426
GlyphClass: 2
Flags: W
HStem: -20 183<591.552 885.623> 1490 20G<381 736 1272.74 1597>
VStem: 233 310<209.891 552.562> 417 327<1081.13 1507.62> 1277 320<1190 1510>
DStem2: 145.934 -20 465.34 -20 0.207912 0.978148<414.057 1367.1> 951.278 -20 1271.28 -20 0.207912 0.978148<400.981 1564.29>
LayerCount: 2
Fore
SplineSet
631 -20 m 0,0,1
 233 -20 233 -20 233 316 c 0,2,3
 233 389 233 389 252 479 c 2,4,-1
 403 1192 l 2,5,6
 417 1259 417 1259 417 1322 c 0,7,8
 417 1422 417 1422 381 1510 c 1,9,-1
 728 1510 l 1,10,11
 744 1446 744 1446 744 1372 c 0,12,13
 744 1290 744 1290 724 1196 c 2,14,-1
 551 383 l 2,15,16
 543 347 543 347 543 318 c 0,17,18
 544 163 544 163 748 163 c 8,19,20
 990 163 990 163 1082 595 c 2,21,-1
 1277 1510 l 1,22,-1
 1597 1510 l 1,23,-1
 1402 595 l 2,24,25
 1271 -20 1271 -20 631 -20 c 0,0,1
EndSplineSet
Validated: 1
EndChar

StartChar: V
Encoding: 86 86 54
Width: 1378
GlyphClass: 2
Flags: W
HStem: 0 21G<428.5 1105.5> 1490 20G<331 696 1188.5 1609>
VStem: 309 318<429.862 1127.25> 370 335<1069.85 1507.81> 1279 330<1329.29 1510>
LayerCount: 2
Fore
SplineSet
548 0 m 1,0,1
 309 348 309 348 309 791 c 0,2,3
 309 983 309 983 354 1193 c 0,4,5
 370 1265 370 1265 370 1329 c 0,6,7
 370 1430 370 1430 331 1510 c 1,8,-1
 687 1510 l 1,9,10
 705 1450 705 1450 705 1375 c 0,11,12
 705 1293 705 1293 684 1193 c 0,13,14
 627 925 627 925 627 701 c 0,15,16
 627 424 627 424 714 214 c 1,17,18
 1098 662 1098 662 1279 1510 c 1,19,-1
 1609 1510 l 1,20,21
 1424 497 1424 497 787 0 c 1,22,-1
 548 0 l 1,0,1
EndSplineSet
Validated: 1
EndChar

StartChar: X
Encoding: 88 88 55
Width: 1318
GlyphClass: 2
Flags: W
HStem: 0 21G<90 461 901.5 1268> 1490 20G<371 735.5 1180.5 1549>
VStem: 385 332<990.648 1317.09> 408 336<1123.08 1507.58> 892 338<2.12964 411.015> 925 332<187.939 557.793>
LayerCount: 2
Fore
SplineSet
90 0 m 1,0,1
 175 516 175 516 618 765 c 1,2,3
 385 908 385 908 385 1111 c 0,4,5
 385 1151 385 1151 394 1193 c 0,6,7
 408 1258 408 1258 408 1319 c 0,8,9
 408 1419 408 1419 371 1510 c 1,10,-1
 727 1510 l 1,11,12
 744 1446 744 1446 744 1371 c 0,13,14
 744 1289 744 1289 724 1193 c 0,15,16
 717 1162 717 1162 717 1133 c 0,17,18
 717 1006 717 1006 841 903 c 1,19,20
 1142 1148 1142 1148 1219 1510 c 1,21,-1
 1549 1510 l 1,22,23
 1471 1050 1471 1050 1024 786 c 1,24,25
 1257 652 1257 652 1257 425 c 0,26,27
 1257 373 1257 373 1245 317 c 0,28,29
 1230 248 1230 248 1230 186 c 0,30,31
 1230 85 1230 85 1268 0 c 1,32,-1
 911 0 l 1,33,34
 892 51 892 51 892 124 c 0,35,36
 892 204 892 204 915 310 c 0,37,38
 925 357 925 357 925 400 c 0,39,40
 925 547 925 547 806 642 c 1,41,42
 502 390 502 390 420 0 c 1,43,-1
 90 0 l 1,0,1
EndSplineSet
Validated: 1
EndChar

StartChar: Y
Encoding: 89 89 56
Width: 1355
GlyphClass: 2
Flags: W
HStem: 0 21G<507 831.235> 1490 20G<351 706 1241.76 1566>
VStem: 312 312<736.489 1082.07> 388 325<1080.5 1507.67> 507 320<0 320> 1246 320<1190 1510>
DStem2: 118.869 0 438.636 0 0.207912 0.978148<929.511 1351.11> 507 0 827 0 0.207912 0.978148<66.5317 522.496> 925.212 0 1245.42 0 0.207912 0.978148<905.358 1543.7>
LayerCount: 2
Fore
SplineSet
507 0 m 1,0,-1
 616 511 l 1,1,2
 312 540 312 540 312 833 c 0,3,4
 312 907 312 907 331 998 c 2,5,-1
 374 1199 l 2,6,7
 388 1265 388 1265 388 1326 c 0,8,9
 388 1425 388 1425 351 1510 c 1,10,-1
 699 1510 l 1,11,12
 713 1446 713 1446 713 1375 c 0,13,14
 713 1293 713 1293 694 1202 c 2,15,-1
 631 905 l 2,16,17
 624 871 624 871 624 842 c 0,18,19
 624 690 624 690 828 690 c 0,20,21
 1072 690 1072 690 1162 1114 c 2,22,-1
 1246 1510 l 1,23,-1
 1566 1510 l 1,24,-1
 1482 1113 l 2,25,26
 1376 612 1376 612 935 510 c 1,27,-1
 827 0 l 1,28,-1
 507 0 l 1,0,-1
EndSplineSet
Validated: 1
EndChar

StartChar: Z
Encoding: 90 90 57
Width: 1217
GlyphClass: 2
Flags: W
HStem: 0 187<457 1112.75> 1323 187<527.391 1060>
DStem2: 70 187 457 187 0.657 0.753891<254.259 1506.85>
LayerCount: 2
Fore
SplineSet
30 0 m 1,0,-1
 70 187 l 1,1,-1
 1060 1323 l 1,2,-1
 767 1323 l 2,3,4
 575 1323 575 1323 384 1213 c 1,5,-1
 433 1445 l 1,6,7
 612 1510 612 1510 810 1510 c 2,8,-1
 1487 1510 l 1,9,-1
 1447 1323 l 1,10,-1
 457 187 l 1,11,-1
 869 187 l 2,12,13
 1060 187 1060 187 1249 294 c 1,14,-1
 1201 66 l 1,15,16
 1028 0 1028 0 827 0 c 2,17,-1
 30 0 l 1,0,-1
EndSplineSet
Validated: 19457
EndChar

StartChar: bracketleft
Encoding: 91 91 58
Width: 883
GlyphClass: 2
Flags: W
HStem: -320 211<447 805> 1637 211<818 1221>
DStem2: 82 -320 402.151 -320 0.207912 0.978148<282.277 2067.26>
LayerCount: 2
Fore
SplineSet
82 -320 m 1,0,-1
 543 1848 l 1,1,-1
 1266 1848 l 1,2,-1
 1221 1637 l 1,3,-1
 818 1637 l 1,4,-1
 447 -109 l 1,5,-1
 850 -109 l 1,6,-1
 805 -320 l 1,7,-1
 82 -320 l 1,0,-1
EndSplineSet
Validated: 1
EndChar

StartChar: backslash
Encoding: 92 92 59
Width: 1149
GlyphClass: 2
Flags: W
DStem2: 632 1762 360 1646 0.243374 -0.969932<46.3144 1960.9>
LayerCount: 2
Fore
SplineSet
632 1762 m 1,0,-1
 1109 -140 l 1,1,-1
 838 -259 l 1,2,-1
 360 1646 l 1,3,-1
 632 1762 l 1,0,-1
EndSplineSet
Validated: 1
EndChar

StartChar: bracketright
Encoding: 93 93 60
Width: 883
GlyphClass: 2
Flags: W
HStem: -320 211<-13 390> 1637 211<403 761>
DStem2: 345.151 -320 665 -320 0.207912 0.978148<215.714 2000.69>
LayerCount: 2
Fore
SplineSet
665 -320 m 1,0,-1
 -58 -320 l 1,1,-1
 -13 -109 l 1,2,-1
 390 -109 l 1,3,-1
 761 1637 l 1,4,-1
 358 1637 l 1,5,-1
 403 1848 l 1,6,-1
 1126 1848 l 1,7,-1
 665 -320 l 1,0,-1
EndSplineSet
Validated: 1
EndChar

StartChar: asciicircum
Encoding: 94 94 61
Width: 1255
GlyphClass: 2
Flags: W
HStem: 928 583<768 814>
VStem: 247 354<928 1282>
DStem2: 247 928 601 928 0.697201 0.716875<246.809 652.728>
LayerCount: 2
Fore
SplineSet
247 928 m 1,0,-1
 814 1511 l 1,1,-1
 1084 1511 l 1,2,-1
 1402 928 l 1,3,-1
 1038 928 l 1,4,-1
 884 1219 l 1,5,-1
 601 928 l 1,6,-1
 247 928 l 1,0,-1
EndSplineSet
Validated: 1
EndChar

StartChar: underscore
Encoding: 95 95 62
Width: 1203
GlyphClass: 2
Flags: W
HStem: -410 250<66 1016>
LayerCount: 2
Fore
SplineSet
1016 -410 m 1,0,-1
 13 -410 l 1,1,-1
 66 -160 l 1,2,-1
 1069 -160 l 1,3,-1
 1016 -410 l 1,0,-1
EndSplineSet
Validated: 1
EndChar

StartChar: grave
Encoding: 96 96 63
Width: 458
GlyphClass: 2
Flags: W
HStem: 1135 409
VStem: 312 392
LayerCount: 2
Fore
SplineSet
522 1544 m 1,0,-1
 704 1253 l 1,1,-1
 557 1135 l 1,2,-1
 312 1374 l 1,3,-1
 522 1544 l 1,0,-1
EndSplineSet
Validated: 1
EndChar

StartChar: a
Encoding: 97 97 64
Width: 1157
GlyphClass: 2
Flags: W
HStem: -20 190<238.5 575.062> 0 21G<765 1087> 545 151<580.513 807> 956 164<691.826 1031.5>
VStem: 84 313<177.166 372.881> 762 292<1.79944 213.54> 883 293<698.062 948.347>
LayerCount: 2
Fore
SplineSet
1087 0 m 1,0,-1
 768 0 l 1,1,2
 762 37 762 37 762 77 c 0,3,4
 762 143 762 143 778 215 c 1,5,6
 616 -20 616 -20 393 -20 c 0,7,8
 84 -20 84 -20 84 212 c 0,9,10
 84 248 84 248 91 289 c 0,11,12
 130 507 130 507 385 617 c 0,13,14
 568 696 568 696 860 696 c 1,15,-1
 870 744 l 2,16,17
 883 806 883 806 883 851 c 0,18,19
 883 956 883 956 810 956 c 0,20,21
 688 956 688 956 562 768 c 1,22,-1
 327 870 l 1,23,24
 540 1120 540 1120 887 1120 c 0,25,26
 1176 1120 1176 1120 1176 856 c 0,27,28
 1176 791 1176 791 1159 712 c 2,29,-1
 1072 308 l 2,30,31
 1054 224 1054 224 1054 174 c 0,32,33
 1054 78 1054 78 1087 0 c 1,0,-1
807 545 m 1,34,35
 461 545 461 545 400 263 c 16,36,37
 397 247 397 247 397 234 c 0,38,39
 397 170 397 170 479 170 c 0,40,41
 649 170 649 170 807 545 c 1,34,35
EndSplineSet
Validated: 1
EndChar

StartChar: b
Encoding: 98 98 65
Width: 1224
GlyphClass: 2
Flags: W
HStem: -20 176<355 763.417> 928 192<803.719 1144.5> 1490 20G<391 716.5>
VStem: 215 295<178.582 469.307> 425 299<1105.38 1508.15> 983 309<588.969 919.586>
DStem2: 145.639 -20 440.417 -20 0.207912 0.978148<366.206 745.467 1037.75 1388.78> 809.171 -20 1118.38 -20 0.207912 0.978148<338.014 869.459>
LayerCount: 2
Fore
SplineSet
634 156 m 0,0,1
 847 156 847 156 918 492 c 2,2,-1
 973 754 l 2,3,4
 983 799 983 799 983 833 c 0,5,6
 983 928 983 928 905 928 c 0,7,8
 797 928 797 928 684 742 c 0,9,10
 558 536 558 536 518 345 c 16,11,12
 510 306 510 306 510 276 c 0,13,14
 510 156 510 156 634 156 c 0,0,1
495 -20 m 0,15,16
 215 -20 215 -20 215 243 c 0,17,18
 215 307 215 307 233 391 c 2,19,-1
 405 1198 l 2,20,21
 425 1292 425 1292 425 1342 c 0,22,23
 425 1440 425 1440 391 1510 c 1,24,-1
 709 1510 l 1,25,26
 724 1462 724 1462 724 1396 c 0,27,28
 724 1310 724 1310 698 1188 c 2,29,-1
 644 935 l 1,30,31
 778 1120 778 1120 997 1120 c 0,32,33
 1292 1120 1292 1120 1292 855 c 0,34,35
 1292 790 1292 790 1275 712 c 2,36,-1
 1227 491 l 2,37,38
 1116 -20 1116 -20 495 -20 c 0,15,16
EndSplineSet
Validated: 1
EndChar

StartChar: c
Encoding: 99 99 66
Width: 1163
GlyphClass: 2
Flags: W
HStem: -20 164<328 728.955> 956 164<685.557 1105.5>
VStem: 170 303<165.52 506.508> 948 317<805 924.55>
DStem2: 96.0886 -20 406.243 -20 0.207912 0.978148<357.994 892.356>
LayerCount: 2
Fore
SplineSet
486 -20 m 0,0,1
 170 -20 170 -20 170 261 c 0,2,3
 170 325 170 325 186 403 c 2,4,-1
 229 609 l 2,5,6
 336 1120 336 1120 946 1120 c 0,7,8
 1265 1120 1265 1120 1265 835 c 0,9,10
 1265 821 1265 821 1264 805 c 1,11,-1
 938 727 l 1,12,13
 948 775 948 775 948 813 c 0,14,15
 948 956 948 956 809 956 c 0,16,17
 612 956 612 956 539 608 c 2,18,-1
 480 327 l 2,19,20
 473 293 473 293 473 265 c 0,21,22
 473 144 473 144 606 144 c 0,23,24
 758 144 758 144 855 374 c 1,25,-1
 1177 408 l 1,26,27
 1020 -20 1020 -20 486 -20 c 0,0,1
EndSplineSet
Validated: 1
EndChar

StartChar: d
Encoding: 100 100 67
Width: 1224
GlyphClass: 2
Flags: W
HStem: -20 192<313.5 658.004> 0 21G<824 1154> 944 176<691.504 928.208> 1490 20G<1020 1343>
VStem: 166 309<180.031 510.156> 811 309<2.05115 191.281> 1055 294<1096.82 1507.98>
DStem2: 96.1271 -20 407.204 -20 0.207912 0.978148<360.543 904.247> 774.269 -20 1069.43 -20 0.207912 0.978148<480.594 861.498 1135.94 1404.41>
LayerCount: 2
Fore
SplineSet
553 172 m 0,0,1
 661 172 661 172 774 358 c 0,2,3
 898 562 898 562 939 755 c 16,4,5
 947 794 947 794 947 825 c 0,6,7
 947 944 947 944 824 944 c 0,8,9
 611 944 611 944 540 608 c 2,10,-1
 485 346 l 2,11,12
 475 301 475 301 475 267 c 0,13,14
 475 172 475 172 553 172 c 0,0,1
1154 0 m 1,15,-1
 837 0 l 1,16,17
 811 59 811 59 811 133 c 0,18,19
 811 151 811 151 814 165 c 1,20,21
 688 -20 688 -20 461 -20 c 0,22,23
 166 -20 166 -20 166 244 c 0,24,25
 166 309 166 309 182 384 c 2,26,-1
 230 609 l 2,27,28
 339 1120 339 1120 861 1120 c 0,29,30
 944 1120 944 1120 1011 1091 c 1,31,-1
 1032 1190 l 2,32,33
 1055 1298 1055 1298 1055 1358 c 0,34,35
 1055 1444 1055 1444 1020 1510 c 1,36,-1
 1337 1510 l 1,37,38
 1349 1447 1349 1447 1349 1380 c 0,39,40
 1349 1292 1349 1292 1329 1198 c 2,41,-1
 1140 312 l 2,42,43
 1120 218 1120 218 1120 164 c 0,44,45
 1120 72 1120 72 1154 0 c 1,15,-1
EndSplineSet
Validated: 1
EndChar

StartChar: e
Encoding: 101 101 68
Width: 1203
GlyphClass: 2
Flags: W
HStem: -20 164<328 729.857> 956 164<685.916 1105>
VStem: 170 301<165.854 375.779> 955 309<756.068 928.762>
DStem2: 537 596 489 371 0.927291 0.374342<0 440.85>
LayerCount: 2
Fore
SplineSet
486 -20 m 0,0,1
 170 -20 170 -20 170 261 c 0,2,3
 170 325 170 325 186 403 c 2,4,-1
 229 609 l 2,5,6
 336 1120 336 1120 946 1120 c 0,7,8
 1264 1120 1264 1120 1264 827 c 0,9,10
 1264 760 1264 760 1247 677 c 1,11,-1
 489 371 l 1,12,-1
 478 321 l 2,13,14
 471 287 471 287 471 260 c 0,15,16
 471 144 471 144 606 144 c 0,17,18
 767 144 767 144 855 374 c 1,19,-1
 1177 408 l 1,20,21
 1013 -20 1013 -20 486 -20 c 0,0,1
809 956 m 0,22,23
 613 956 613 956 541 614 c 2,24,-1
 537 596 l 1,25,-1
 945 763 l 1,26,-1
 948 776 l 2,27,28
 955 808 955 808 955 834 c 0,29,30
 955 956 955 956 809 956 c 0,22,23
EndSplineSet
Validated: 1
EndChar

StartChar: f
Encoding: 102 102 69
Width: 885
GlyphClass: 2
Flags: W
HStem: 0 21G<150 454.265> 680 169<630 895> 1354 176<805.865 1108.98>
VStem: 150 300<0 300>
DStem2: 150 0 450 0 0.207912 0.978148<62.3735 695.288 930.245 1300.54>
LayerCount: 2
Fore
SplineSet
150 0 m 1,0,-1
 295 680 l 1,1,2
 245 680 245 680 173 613 c 1,3,-1
 213 802 l 1,4,5
 265 838 265 838 330 849 c 1,6,-1
 366 1014 l 2,7,8
 476 1530 476 1530 1008 1530 c 0,9,10
 1123 1530 1123 1530 1199 1522 c 1,11,12
 1098 1289 l 1,13,14
 1029 1354 1029 1354 918 1354 c 0,15,16
 738 1354 738 1354 665 1013 c 2,17,-1
 630 849 l 1,18,-1
 930 849 l 1,19,-1
 895 680 l 1,20,-1
 595 680 l 1,21,-1
 450 0 l 1,22,-1
 150 0 l 1,0,-1
EndSplineSet
Validated: 1
EndChar

StartChar: g
Encoding: 103 103 70
Width: 1200
GlyphClass: 2
Flags: W
HStem: -430 167<313.119 605.804> -20 192<313.5 655.28> 944 176<694.018 1105.5>
VStem: 166 309<180.797 511.031> 947 301<625.908 924.695>
DStem2: 9.12873 -430 320.056 -430 0.207912 0.978148<779.671 1311.12> 687.529 -430 987.216 -430 0.207912 0.978148<509.023 608.293 899.669 1280.57>
LayerCount: 2
Fore
SplineSet
553 172 m 0,0,1
 661 172 661 172 774 358 c 0,2,3
 898 562 898 562 939 755 c 16,4,5
 947 794 947 794 947 825 c 0,6,7
 947 944 947 944 824 944 c 0,8,9
 611 944 611 944 540 608 c 2,10,-1
 485 346 l 2,11,12
 475 301 475 301 475 267 c 0,13,14
 475 172 475 172 553 172 c 0,0,1
461 -20 m 0,15,16
 166 -20 166 -20 166 246 c 0,17,18
 166 309 166 309 183 388 c 2,19,-1
 230 609 l 2,20,21
 339 1120 339 1120 963 1120 c 0,22,23
 1248 1120 1248 1120 1248 856 c 0,24,25
 1248 790 1248 790 1230 707 c 2,26,-1
 1163 397 l 2,27,28
 984 -430 984 -430 374 -430 c 0,29,30
 103 -430 103 -430 68 -249 c 1,31,-1
 378 -168 l 1,32,33
 378 -263 378 -263 460 -263 c 0,34,35
 723 -263 723 -263 814 165 c 1,36,37
 684 -20 684 -20 461 -20 c 0,15,16
EndSplineSet
Validated: 1
EndChar

StartChar: h
Encoding: 104 104 71
Width: 1263
GlyphClass: 2
Flags: W
HStem: 0 21G<150 449.301 864.5 1193> 930 190<793.494 1139.5> 1490 20G<391 715>
VStem: 424 297<1085.45 1507.98> 858 302<2.11279 419.562> 983 299<591.891 921.32>
DStem2: 150 0 445 0 0.207912 0.978148<61.3339 719.729 1017.28 1367.95> 812.958 0 1112.53 0 0.207912 0.978148<239.15 850.056>
LayerCount: 2
Fore
SplineSet
150 0 m 1,0,-1
 405 1198 l 2,1,2
 424 1287 424 1287 424 1342 c 0,3,4
 424 1439 424 1439 391 1510 c 1,5,-1
 709 1510 l 1,6,7
 721 1452 721 1452 721 1386 c 0,8,9
 721 1296 721 1296 698 1188 c 2,10,-1
 644 935 l 1,11,12
 751 1120 751 1120 997 1120 c 0,13,14
 1282 1120 1282 1120 1282 857 c 0,15,16
 1282 791 1282 791 1265 712 c 2,17,-1
 1178 308 l 2,18,19
 1160 224 1160 224 1160 169 c 0,20,21
 1160 74 1160 74 1193 0 c 1,22,-1
 871 0 l 1,23,24
 858 61 858 61 858 129 c 0,25,26
 858 212 858 212 878 306 c 2,27,-1
 973 752 l 2,28,29
 983 799 983 799 983 834 c 0,30,31
 983 930 983 930 906 930 c 0,32,33
 645 930 645 930 465 93 c 2,34,-1
 445 0 l 1,35,-1
 150 0 l 1,0,-1
EndSplineSet
Validated: 1
EndChar

StartChar: i
Encoding: 105 105 72
Width: 600
GlyphClass: 2
Flags: W
HStem: 0 21G<202 530> 1080 20G<304 632.5> 1176 354<447.191 667.809>
VStem: 196 301<2.22083 423.562> 208 322<0 127.907 132.751 168.128 172.603 313.838> 336 302<676.438 1097.95> 376 363<1246.34 1459.66>
DStem2: 149.682 0 449.682 0 0.207912 0.978148<241.044 951.554>
LayerCount: 2
Fore
SplineSet
595 1530 m 0,0,1
 739 1530 739 1530 739 1410 c 24,2,3
 739 1176 739 1176 520 1176 c 0,4,5
 376 1176 376 1176 376 1296 c 24,6,7
 376 1530 376 1530 595 1530 c 0,0,1
208 0 m 1,8,9
 196 63 196 63 196 130 c 0,10,11
 196 218 196 218 216 312 c 2,12,-1
 317 788 l 2,13,14
 336 878 336 878 336 935 c 0,15,16
 336 1028 336 1028 304 1100 c 1,17,-1
 627 1100 l 1,18,19
 638 1041 638 1041 638 976 c 0,20,21
 638 887 638 887 617 788 c 2,22,-1
 516 312 l 2,23,24
 497 222 497 222 497 171 c 0,25,26
 497 79 497 79 530 0 c 1,27,-1
 208 0 l 1,8,9
EndSplineSet
Validated: 1
EndChar

StartChar: j
Encoding: 106 106 73
Width: 650
GlyphClass: 2
Flags: W
HStem: -430 21G<-86.7396 171> 1080 20G<354 682.5> 1176 354<497.191 717.809>
VStem: 386 302<677.961 1097.95> 426 363<1246.34 1459.66>
DStem2: 109.008 -430 408.795 -430 0.207912 0.978148<478.35 1390.06>
LayerCount: 2
Fore
SplineSet
-91 -430 m 1,0,-1
 -55 -261 l 1,1,2
 174 -130 174 -130 268 318 c 2,3,-1
 367 788 l 2,4,5
 386 878 386 878 386 934 c 0,6,7
 386 1030 386 1030 354 1100 c 1,8,-1
 677 1100 l 1,9,10
 688 1039 688 1039 688 974 c 0,11,12
 688 887 688 887 667 788 c 2,13,-1
 568 319 l 2,14,15
 433 -321 433 -321 -91 -430 c 1,0,-1
645 1530 m 0,16,17
 789 1530 789 1530 789 1410 c 24,18,19
 789 1176 789 1176 570 1176 c 0,20,21
 426 1176 426 1176 426 1296 c 24,22,23
 426 1530 426 1530 645 1530 c 0,16,17
EndSplineSet
Validated: 1
EndChar

StartChar: k
Encoding: 107 107 74
Width: 1223
GlyphClass: 2
Flags: W
HStem: 0 21G<150 449.947 782.5 1121> 928 192<902.065 1195> 1490 20G<391 715.5>
VStem: 425 296<1098.41 1507.95> 776 313<2.11255 376.561> 803 314<0 123.908 128.66 167.067 171.728 451.201> 989 307<799.246 926.508>
DStem2: 150.357 0 444.828 0 0.207912 0.978148<60.0122 152.16 677.695 1371.08>
LayerCount: 2
Fore
SplineSet
150 0 m 1,0,-1
 405 1198 l 2,1,2
 425 1292 425 1292 425 1345 c 0,3,4
 425 1438 425 1438 391 1510 c 1,5,-1
 710 1510 l 1,6,7
 721 1451 721 1451 721 1387 c 0,8,9
 721 1297 721 1297 699 1194 c 2,10,-1
 573 603 l 1,11,12
 653 783 653 783 766 946 c 0,13,14
 888 1120 888 1120 1094 1120 c 0,15,16
 1296 1120 1296 1120 1296 856 c 0,17,18
 1296 831 1296 831 1294 804 c 1,19,-1
 967 723 l 1,20,21
 989 823 989 823 989 874 c 0,22,23
 989 928 989 928 965 928 c 0,24,25
 921 928 921 928 782 635 c 1,26,27
 1117 614 1117 614 1117 393 c 0,28,29
 1117 357 1117 357 1108 316 c 0,30,31
 1089 225 1089 225 1089 170 c 0,32,33
 1089 76 1089 76 1121 0 c 1,34,-1
 789 0 l 1,35,36
 776 59 776 59 776 126 c 0,37,38
 776 211 776 211 797 310 c 0,39,40
 803 338 803 338 803 362 c 0,41,42
 803 460 803 460 699 475 c 1,43,-1
 439 0 l 1,44,-1
 150 0 l 1,0,-1
EndSplineSet
Validated: 1
EndChar

StartChar: l
Encoding: 108 108 75
Width: 600
GlyphClass: 2
Flags: W
HStem: 0 21G<202 530> 1490 20G<391 720>
VStem: 196 301<2.09766 422.75> 208 322<0 127.907 132.751 166.913 171.665 313.701> 423 303<1087.25 1507.78>
DStem2: 149.682 0 449.682 0 0.207912 0.978148<240.126 1366.71>
LayerCount: 2
Fore
SplineSet
208 0 m 1,0,1
 196 63 196 63 196 130 c 0,2,3
 196 218 196 218 216 312 c 2,4,-1
 405 1198 l 2,5,6
 423 1282 423 1282 423 1341 c 0,7,8
 423 1428 423 1428 391 1510 c 1,9,-1
 714 1510 l 1,10,11
 726 1450 726 1450 726 1384 c 0,12,13
 726 1296 726 1296 705 1198 c 2,14,-1
 516 312 l 2,15,16
 497 223 497 223 497 170 c 0,17,18
 497 71 497 71 530 0 c 1,19,-1
 208 0 l 1,0,1
EndSplineSet
Validated: 1
EndChar

StartChar: m
Encoding: 109 109 76
Width: 1926
GlyphClass: 2
Flags: W
HStem: 0 21G<150 449.301 813 1112.3 1527.5 1856> 930 190<800.159 1146 1479.55 1802.5> 1080 20G<304 625>
VStem: 337 291<886.7 1098.28> 1521 301<2.0813 419.562> 1646 299<591.891 921.703>
DStem2: 150 0 445 0 0.207912 0.978148<61.3339 719.729> 813 0 1108 0 0.207912 0.978148<61.3339 719.729> 1475.96 0 1775.53 0 0.207912 0.978148<233.135 850.056>
LayerCount: 2
Fore
SplineSet
150 0 m 1,0,-1
 318 792 l 2,1,2
 337 882 337 882 337 936 c 0,3,4
 337 1029 337 1029 304 1100 c 1,5,-1
 622 1100 l 1,6,7
 628 1061 628 1061 628 1020 c 0,8,9
 628 956 628 956 613 885 c 1,10,11
 740 1120 740 1120 997 1120 c 0,12,13
 1295 1120 1295 1120 1295 886 c 1,14,15
 1431 1120 1431 1120 1660 1120 c 0,16,17
 1945 1120 1945 1120 1945 858 c 0,18,19
 1945 791 1945 791 1928 712 c 2,20,-1
 1841 308 l 2,21,22
 1822 220 1822 220 1822 163 c 0,23,24
 1822 72 1822 72 1856 0 c 1,25,-1
 1534 0 l 1,26,27
 1521 61 1521 61 1521 129 c 0,28,29
 1521 212 1521 212 1541 306 c 2,30,-1
 1636 752 l 2,31,32
 1646 799 1646 799 1646 834 c 0,33,34
 1646 930 1646 930 1569 930 c 0,35,36
 1308 930 1308 930 1128 93 c 2,37,-1
 1108 0 l 1,38,-1
 813 0 l 1,39,-1
 973 752 l 2,40,41
 983 799 983 799 983 834 c 0,42,43
 983 930 983 930 906 930 c 0,44,45
 645 930 645 930 465 93 c 2,46,-1
 445 0 l 1,47,-1
 150 0 l 1,0,-1
EndSplineSet
Validated: 1
EndChar

StartChar: n
Encoding: 110 110 77
Width: 1263
GlyphClass: 2
Flags: W
HStem: 0 21G<150 449.301 864.5 1193> 930 190<800.159 1139.5> 1080 20G<304 625>
VStem: 337 291<887.026 1098.26> 858 301<1.92786 419.562> 983 299<591.891 921.703>
DStem2: 150 0 445 0 0.207912 0.978148<61.3339 719.729> 812.958 0 1112.53 0 0.207912 0.978148<235.978 850.056>
LayerCount: 2
Fore
SplineSet
150 0 m 1,0,-1
 318 792 l 2,1,2
 337 882 337 882 337 932 c 0,3,4
 337 1028 337 1028 304 1100 c 1,5,-1
 622 1100 l 1,6,7
 628 1061 628 1061 628 1020 c 0,8,9
 628 956 628 956 613 885 c 1,10,11
 740 1120 740 1120 997 1120 c 0,12,13
 1282 1120 1282 1120 1282 858 c 0,14,15
 1282 791 1282 791 1265 712 c 2,16,-1
 1178 308 l 2,17,18
 1159 220 1159 220 1159 166 c 0,19,20
 1159 62 1159 62 1193 0 c 1,21,-1
 871 0 l 1,22,23
 858 61 858 61 858 129 c 0,24,25
 858 212 858 212 878 306 c 2,26,-1
 973 752 l 2,27,28
 983 799 983 799 983 834 c 0,29,30
 983 930 983 930 906 930 c 0,31,32
 645 930 645 930 465 93 c 2,33,-1
 445 0 l 1,34,-1
 150 0 l 1,0,-1
EndSplineSet
Validated: 1
EndChar

StartChar: o
Encoding: 111 111 78
Width: 1208
GlyphClass: 2
Flags: W
HStem: -20 164<331.5 752.976> 956 164<688.279 1110.5>
VStem: 172 301<171.456 507.148> 969 301<592.852 925.513>
DStem2: 95.8374 -20 406.243 -20 0.207912 0.978148<361.898 892.481> 794.171 -20 1103.38 -20 0.207912 0.978148<336.936 867.956>
LayerCount: 2
Fore
SplineSet
628 144 m 0,0,1
 829 144 829 144 903 492 c 2,2,-1
 962 773 l 2,3,4
 969 805 969 805 969 831 c 0,5,6
 969 956 969 956 814 956 c 0,7,8
 613 956 613 956 539 608 c 2,9,-1
 480 327 l 2,10,11
 473 295 473 295 473 269 c 0,12,13
 473 144 473 144 628 144 c 0,0,1
491 -20 m 0,14,15
 172 -20 172 -20 172 270 c 0,16,17
 172 338 172 338 190 423 c 2,18,-1
 229 609 l 2,19,20
 336 1120 336 1120 951 1120 c 0,21,22
 1270 1120 1270 1120 1270 832 c 0,23,24
 1270 763 1270 763 1252 677 c 2,25,-1
 1212 491 l 2,26,27
 1102 -20 1102 -20 491 -20 c 0,14,15
EndSplineSet
Validated: 1
EndChar

StartChar: p
Encoding: 112 112 79
Width: 1223
GlyphClass: 2
Flags: W
HStem: -410 21G<63 362.248> -20 176<529.369 766.339> 928 192<799.746 1144> 1080 20G<304 634>
VStem: 63 295<-410 -115> 337 310<908.5 1097.93> 983 308<589.844 919.969>
DStem2: 63 -410 358 -410 0.207912 0.978148<61.3339 489.682 764.865 1142.58> 726.274 -410 1035.49 -410 0.207912 0.978148<724.276 1268.17>
LayerCount: 2
Fore
SplineSet
634 156 m 0,0,1
 847 156 847 156 918 492 c 2,2,-1
 973 754 l 2,3,4
 983 799 983 799 983 833 c 0,5,6
 983 928 983 928 905 928 c 0,7,8
 796 928 796 928 684 742 c 0,9,10
 557 532 557 532 518 345 c 16,11,12
 510 306 510 306 510 276 c 0,13,14
 510 156 510 156 634 156 c 0,0,1
597 -20 m 0,15,16
 514 -20 514 -20 447 9 c 1,17,-1
 358 -410 l 17,18,-1
 63 -410 l 1,19,-1
 317 788 l 2,20,21
 337 882 337 882 337 935 c 0,22,23
 337 1028 337 1028 304 1100 c 1,24,-1
 621 1100 l 1,25,26
 647 1040 647 1040 647 967 c 0,27,28
 647 949 647 949 644 935 c 1,29,30
 770 1120 770 1120 997 1120 c 0,31,32
 1291 1120 1291 1120 1291 856 c 0,33,34
 1291 791 1291 791 1275 716 c 2,35,-1
 1227 491 l 2,36,37
 1118 -20 1118 -20 597 -20 c 0,15,16
EndSplineSet
Validated: 1
EndChar

StartChar: q
Encoding: 113 113 80
Width: 1222
GlyphClass: 2
Flags: W
HStem: -410 21G<741.5 1067> -20 192<313.5 654.281> 944 176<694.583 1103>
VStem: 166 309<180.414 511.031> 734 299<-408.151 -5.38281> 948 295<630.693 921.418>
DStem2: 13.3799 -410 324.307 -410 0.207912 0.978148<759.225 1290.67> 691.557 -410 986.682 -410 0.207912 0.978148<236.859 587.892 880.171 1259.43>
LayerCount: 2
Fore
SplineSet
824 944 m 0,0,1
 611 944 611 944 540 608 c 2,2,-1
 485 346 l 2,3,4
 475 301 475 301 475 267 c 0,5,6
 475 172 475 172 553 172 c 0,7,8
 661 172 661 172 774 358 c 0,9,10
 900 564 900 564 940 755 c 16,11,12
 948 794 948 794 948 824 c 0,13,14
 948 944 948 944 824 944 c 0,0,1
461 -20 m 0,15,16
 166 -20 166 -20 166 245 c 0,17,18
 166 310 166 310 183 388 c 2,19,-1
 231 609 l 2,20,21
 342 1120 342 1120 963 1120 c 0,22,23
 1243 1120 1243 1120 1243 857 c 0,24,25
 1243 793 1243 793 1225 709 c 2,26,-1
 1053 -98 l 2,27,28
 1033 -192 1033 -192 1033 -242 c 0,29,30
 1033 -340 1033 -340 1067 -410 c 1,31,-1
 749 -410 l 1,32,33
 734 -362 734 -362 734 -296 c 0,34,35
 734 -210 734 -210 760 -88 c 2,36,-1
 814 165 l 1,37,38
 680 -20 680 -20 461 -20 c 0,15,16
EndSplineSet
Validated: 1
EndChar

StartChar: r
Encoding: 114 114 81
Width: 1133
GlyphClass: 2
Flags: W
HStem: 0 21G<150 449.301> 930 190<800.159 1146> 1080 20G<304 625>
VStem: 337 291<886.524 1098.23> 983 312<783.484 921.672>
DStem2: 150 0 445 0 0.207912 0.978148<61.3339 719.729>
LayerCount: 2
Fore
SplineSet
150 0 m 1,0,-1
 318 792 l 2,1,2
 337 882 337 882 337 935 c 0,3,4
 337 1026 337 1026 304 1100 c 1,5,-1
 622 1100 l 1,6,7
 628 1061 628 1061 628 1020 c 0,8,9
 628 956 628 956 613 885 c 1,10,11
 740 1120 740 1120 997 1120 c 0,12,13
 1295 1120 1295 1120 1295 858 c 0,14,15
 1295 825 1295 825 1290 788 c 1,16,-1
 963 704 l 1,17,-1
 973 752 l 2,18,19
 983 800 983 800 983 833 c 0,20,21
 983 930 983 930 906 930 c 0,22,23
 645 930 645 930 465 93 c 2,24,-1
 445 0 l 1,25,-1
 150 0 l 1,0,-1
EndSplineSet
Validated: 1
EndChar

StartChar: t
Encoding: 116 116 82
Width: 920
GlyphClass: 2
Flags: W
HStem: 0 21G<362 690> 933 167<293.96 508 844 1108> 1490 20G<551 878.5>
VStem: 356 302<2.23535 423.281> 581 303<1100.91 1507.75>
DStem2: 309.958 0 609.958 0 0.207912 0.978148<234.679 950.853 1187 1357.53>
LayerCount: 2
Fore
SplineSet
368 0 m 1,0,1
 356 62 356 62 356 130 c 0,2,3
 356 217 356 217 375 306 c 2,4,-1
 508 930 l 1,5,6
 340 930 340 930 187 834 c 1,7,-1
 230 1037 l 1,8,9
 370 1099 370 1099 544 1099 c 1,10,-1
 563 1190 l 2,11,12
 581 1276 581 1276 581 1332 c 0,13,14
 581 1427 581 1427 551 1510 c 1,15,-1
 873 1510 l 1,16,17
 884 1449 884 1449 884 1383 c 0,18,19
 884 1289 884 1289 863 1190 c 2,20,-1
 844 1100 l 1,21,-1
 1144 1100 l 1,22,-1
 1108 933 l 1,23,-1
 808 933 l 1,24,-1
 675 306 l 2,25,26
 658 226 658 226 658 164 c 0,27,28
 658 81 658 81 690 0 c 1,29,-1
 368 0 l 1,0,1
EndSplineSet
Validated: 1
EndChar

StartChar: u
Encoding: 117 117 83
Width: 1263
GlyphClass: 2
Flags: W
HStem: -20 190<357.5 696.841> 0 21G<872 1193> 1080 20G<304 632.5 1047.7 1347>
VStem: 215 299<178.297 508.109> 338 301<680.438 1098.07> 869 291<1.73755 212.974> 875 318<0 78.7192 82.0017 165.006>
DStem2: 145.277 -20 445.779 -20 0.207912 0.978148<357.485 971.562> 813.704 -20 1109.28 -20 0.207912 0.978148<486.675 1145.07>
LayerCount: 2
Fore
SplineSet
1193 0 m 1,0,-1
 875 0 l 1,1,2
 869 39 869 39 869 80 c 0,3,4
 869 144 869 144 884 215 c 1,5,6
 757 -20 757 -20 500 -20 c 0,7,8
 215 -20 215 -20 215 242 c 0,9,10
 215 309 215 309 232 388 c 2,11,-1
 319 792 l 2,12,13
 338 880 338 880 338 934 c 0,14,15
 338 1038 338 1038 304 1100 c 1,16,-1
 626 1100 l 1,17,18
 639 1039 639 1039 639 971 c 0,19,20
 639 888 639 888 619 794 c 2,21,-1
 524 348 l 2,22,23
 514 301 514 301 514 266 c 0,24,25
 514 170 514 170 591 170 c 0,26,27
 852 170 852 170 1032 1007 c 2,28,-1
 1052 1100 l 1,29,-1
 1347 1100 l 1,30,-1
 1179 308 l 2,31,32
 1160 218 1160 218 1160 168 c 0,33,34
 1160 72 1160 72 1193 0 c 1,0,-1
EndSplineSet
Validated: 1
EndChar

StartChar: v
Encoding: 118 118 84
Width: 1139
GlyphClass: 2
Flags: W
HStem: 0 21G<342.5 967.5> 1080 20G<239 579 978 1343>
VStem: 236 304<341.816 940.352> 274 312<619.036 1098.04> 1033 310<932.75 1100>
LayerCount: 2
Fore
SplineSet
449 0 m 1,0,1
 236 318 236 318 236 618 c 0,2,3
 236 706 236 706 254 792 c 0,4,5
 274 889 274 889 274 941 c 0,6,7
 274 1029 274 1029 239 1100 c 1,8,-1
 572 1100 l 1,9,10
 586 1046 586 1046 586 979 c 0,11,12
 586 895 586 895 564 792 c 0,13,14
 540 682 540 682 540 573 c 0,15,16
 540 386 540 386 610 204 c 1,17,18
 923 585 923 585 1033 1100 c 1,19,-1
 1343 1100 l 1,20,21
 1254 414 1254 414 681 0 c 1,22,-1
 449 0 l 1,0,1
EndSplineSet
Validated: 1
EndChar

StartChar: w
Encoding: 119 119 85
Width: 1896
GlyphClass: 2
Flags: W
HStem: -20 190<357.5 702.545> -20 147<1047 1374.02> 1080 20G<304 633 1047.7 1352 1641 1978.5>
VStem: 215 299<179.062 508.109> 337 302<680.438 1097.87> 1674 310<686.652 1097.97>
DStem2: 145.277 -20 445.779 -20 0.207912 0.978148<357.485 972.332> 813.704 -20 1114.2 -20 0.207912 0.978148<486.675 1145.07>
LayerCount: 2
Fore
SplineSet
500 -20 m 0,0,1
 215 -20 215 -20 215 244 c 0,2,3
 215 308 215 308 232 388 c 2,4,-1
 318 792 l 2,5,6
 337 881 337 881 337 935 c 0,7,8
 337 1026 337 1026 304 1100 c 1,9,-1
 627 1100 l 1,10,11
 639 1038 639 1038 639 972 c 0,12,13
 639 888 639 888 619 794 c 2,14,-1
 524 348 l 2,15,16
 514 301 514 301 514 266 c 0,17,18
 514 170 514 170 591 170 c 0,19,20
 852 170 852 170 1032 1007 c 2,21,-1
 1052 1100 l 1,22,-1
 1352 1100 l 1,23,-1
 1192 346 l 2,24,25
 1178 280 1178 280 1178 232 c 0,26,27
 1178 127 1178 127 1250 127 c 0,28,29
 1502 127 1502 127 1644 745 c 2,30,-1
 1655 793 l 2,31,32
 1674 876 1674 876 1674 930 c 0,33,34
 1674 1025 1674 1025 1641 1100 c 1,35,-1
 1973 1100 l 1,36,37
 1984 1045 1984 1045 1984 981 c 0,38,39
 1984 890 1984 890 1962 782 c 8,40,41
 1802 -20 1802 -20 1168 -20 c 0,42,43
 926 -20 926 -20 881 133 c 1,44,45
 729 -20 729 -20 500 -20 c 0,0,1
EndSplineSet
Validated: 1
EndChar

StartChar: x
Encoding: 120 120 86
Width: 1084
GlyphClass: 2
Flags: W
HStem: 0 21G<43 381 721.5 1062> 1080 20G<256 595 936.5 1275>
VStem: 268 310<679.413 922.43> 288 313<763.422 1097.67> 714 313<2.01941 357.765> 741 311<169.634 452.062>
LayerCount: 2
Fore
SplineSet
43 0 m 1,0,1
 98 348 98 348 490 544 c 1,2,3
 268 637 268 637 268 761 c 0,4,5
 268 776 268 776 271 792 c 0,6,7
 288 874 288 874 288 924 c 0,8,9
 288 1012 288 1012 256 1100 c 1,10,-1
 589 1100 l 1,11,12
 601 1039 601 1039 601 972 c 0,13,14
 601 886 601 886 581 791 c 0,15,16
 578 777 578 777 578 765 c 0,17,18
 578 697 578 697 659 654 c 1,19,20
 908 831 908 831 965 1100 c 1,21,-1
 1275 1100 l 1,22,23
 1210 754 1210 754 857 578 c 1,24,25
 1052 506 1052 506 1052 361 c 0,26,27
 1052 336 1052 336 1046 308 c 0,28,29
 1027 220 1027 220 1027 168 c 0,30,31
 1027 76 1027 76 1062 0 c 1,32,-1
 729 0 l 1,33,34
 714 53 714 53 714 121 c 0,35,36
 714 194 714 194 736 308 c 0,37,38
 741 334 741 334 741 356 c 0,39,40
 741 429 741 429 683 464 c 1,41,42
 409 260 409 260 353 0 c 1,43,-1
 43 0 l 1,0,1
EndSplineSet
Validated: 1
EndChar

StartChar: y
Encoding: 121 121 87
Width: 1263
GlyphClass: 2
Flags: W
HStem: -430 167<372.119 658.104> -20 190<357.5 696.841> 1080 20G<304 632.5 1047.7 1347>
VStem: 215 299<178.68 508.109> 338 301<680.438 1097.97>
DStem2: 58.1287 -430 358.631 -430 0.207912 0.978148<776.645 1399.43> 746.901 -430 1022 -430 0.207912 0.978148<505.078 659.41 1027.22 1497.39>
LayerCount: 2
Fore
SplineSet
500 -20 m 0,0,1
 215 -20 215 -20 215 243 c 0,2,3
 215 308 215 308 232 388 c 2,4,-1
 318 792 l 2,5,6
 338 886 338 886 338 943 c 0,7,8
 338 1031 338 1031 304 1100 c 1,9,-1
 626 1100 l 1,10,11
 639 1039 639 1039 639 971 c 0,12,13
 639 888 639 888 619 794 c 2,14,-1
 524 348 l 2,15,16
 514 301 514 301 514 266 c 0,17,18
 514 170 514 170 591 170 c 0,19,20
 852 170 852 170 1032 1007 c 2,21,-1
 1052 1100 l 1,22,-1
 1347 1100 l 1,23,-1
 1198 398 l 2,24,25
 1022 -430 1022 -430 433 -430 c 0,26,27
 162 -430 162 -430 127 -249 c 1,28,-1
 437 -168 l 1,29,30
 437 -263 437 -263 519 -263 c 0,31,32
 782 -263 782 -263 884 215 c 1,33,34
 757 -20 757 -20 500 -20 c 0,0,1
EndSplineSet
Validated: 1
EndChar

StartChar: z
Encoding: 122 122 88
Width: 964
GlyphClass: 2
Flags: W
HStem: 0 167<421 867.485> 933 167<370.102 756>
DStem2: 65 167 421 167 0.669821 0.742522<238.456 1031.62>
LayerCount: 2
Fore
SplineSet
30 0 m 1,0,-1
 65 167 l 1,1,-1
 756 933 l 1,2,-1
 619 933 l 2,3,4
 441 933 441 933 249 839 c 1,5,-1
 292 1041 l 1,6,7
 426 1100 426 1100 658 1100 c 2,8,-1
 1148 1100 l 1,9,-1
 1112 933 l 1,10,-1
 421 167 l 1,11,-1
 623 167 l 2,12,13
 816 167 816 167 991 268 c 1,14,-1
 947 63 l 1,15,16
 781 0 781 0 584 0 c 2,17,-1
 30 0 l 1,0,-1
EndSplineSet
Validated: 19457
EndChar

StartChar: braceleft
Encoding: 123 123 89
Width: 933
GlyphClass: 2
Flags: W
HStem: -319 168<716.941 855> 1680 168<1087.89 1280>
VStem: 327 317<-84.3069 289.742> 415 310<285.094 645.489>
DStem2: 242.437 -319 557.224 -319 0.207912 0.978148<444.734 855.81 1288.84 1971.19>
LayerCount: 2
Fore
SplineSet
1316 1848 m 1,0,1
 1280 1680 l 1,2,3
 982 1680 982 1680 920 1388 c 2,4,-1
 850 1057 l 2,5,6
 807 853 807 853 594 766 c 1,7,8
 725 691 725 691 725 523 c 0,9,10
 725 469 725 469 711 405 c 2,11,-1
 655 141 l 2,12,13
 644 91 644 91 644 49 c 0,14,15
 644 -151 644 -151 891 -151 c 1,16,-1
 855 -319 l 1,17,18
 327 -319 327 -319 327 23 c 0,19,20
 327 77 327 77 340 140 c 2,21,-1
 410 471 l 2,22,23
 415 496 415 496 415 520 c 0,24,25
 415 667 415 667 212 764 c 1,26,27
 497 877 497 877 535 1058 c 2,28,-1
 605 1389 l 2,29,30
 702 1848 702 1848 1316 1848 c 1,0,1
EndSplineSet
Validated: 1
EndChar

StartChar: bar
Encoding: 124 124 90
Width: 681
GlyphClass: 2
Flags: W
VStem: 154 280<-216 64> 567 281<1444 1725>
DStem2: 154 -216 434 -216 0.207912 0.978148<58.2153 1984.45>
LayerCount: 2
Fore
SplineSet
154 -216 m 1,0,-1
 567 1725 l 1,1,-1
 848 1725 l 1,2,-1
 434 -216 l 1,3,-1
 154 -216 l 1,0,-1
EndSplineSet
Validated: 1
EndChar

StartChar: braceright
Encoding: 125 125 91
Width: 933
GlyphClass: 2
Flags: W
HStem: -319 168<-22 170.106> 1680 168<403 541.059>
VStem: 533 310<883.511 1243.91> 614 317<1331.83 1613.15>
DStem2: 240.224 -319 555.437 -319 0.207912 0.978148<309.655 992.007 1425.04 1836.11>
LayerCount: 2
Fore
SplineSet
403 1848 m 1,0,1
 931 1848 931 1848 931 1506 c 0,2,3
 931 1452 931 1452 918 1389 c 2,4,-1
 848 1058 l 2,5,6
 843 1033 843 1033 843 1009 c 0,7,8
 843 862 843 862 1046 765 c 1,9,10
 761 652 761 652 723 471 c 2,11,-1
 653 140 l 2,12,13
 556 -319 556 -319 -58 -319 c 1,14,-1
 -22 -151 l 1,15,16
 276 -151 276 -151 338 141 c 2,17,-1
 408 472 l 2,18,19
 451 676 451 676 664 763 c 1,20,21
 533 838 533 838 533 1006 c 0,22,23
 533 1060 533 1060 547 1124 c 2,24,-1
 603 1388 l 2,25,26
 614 1438 614 1438 614 1480 c 0,27,28
 614 1680 614 1680 367 1680 c 1,29,-1
 403 1848 l 1,0,1
EndSplineSet
Validated: 1
EndChar

StartChar: asciitilde
Encoding: 126 126 92
Width: 1228
GlyphClass: 2
Flags: W
HStem: 547 209<866.619 1121> 756 207<424 665.102>
LayerCount: 2
Fore
SplineSet
543 963 m 24,0,1
 776 963 776 963 865 803 c 0,2,3
 891 756 891 756 918 756 c 0,4,5
 969 756 969 756 1017 984 c 1,6,-1
 1318 894 l 1,7,8
 1244 547 1244 547 998 547 c 24,9,10
 737 547 737 547 671 704 c 0,11,12
 649 756 649 756 622 756 c 0,13,14
 581 756 581 756 532 526 c 1,15,-1
 231 616 l 1,16,17
 305 963 305 963 543 963 c 24,0,1
EndSplineSet
Validated: 1
EndChar

StartChar: exclamdown
Encoding: 161 161 94
Width: 762
GlyphClass: 2
Flags: W
HStem: -410 21G<113 480.019> 743 377<466.04 693.96>
VStem: 387 386<824.281 1038.72>
LayerCount: 2
Fore
SplineSet
620 1120 m 0,0,1
 773 1120 773 1120 773 992 c 24,2,3
 773 743 773 743 540 743 c 0,4,5
 387 743 387 743 387 871 c 24,6,7
 387 1119 387 1119 620 1120 c 0,0,1
477 -410 m 1,8,-1
 113 -410 l 1,9,-1
 398 630 l 1,10,-1
 634 630 l 1,11,-1
 477 -410 l 1,8,-1
EndSplineSet
Validated: 1
EndChar

StartChar: cent
Encoding: 162 162 95
Width: 1163
GlyphClass: 2
Flags: W
HStem: -20 165<484.82 542>
VStem: 170 293<170.104 506.508> 506 130<-188 -58> 818 130<1152 1282> 958 307<805 924.55>
DStem2: 60.3791 -188 360.533 -188 0.207912 0.978148<527.698 1065.92> 506 -188 636 -188 0.207912 0.978148<27.0285 172.792 396.149 1160.3 1364.25 1502.75>
LayerCount: 2
Fore
SplineSet
486 -20 m 0,0,1
 170 -20 170 -20 170 261 c 0,2,3
 170 326 170 326 186 403 c 2,4,-1
 229 609 l 2,5,6
 321 1047 321 1047 781 1109 c 1,7,-1
 818 1282 l 1,8,-1
 948 1282 l 1,9,-1
 914 1120 l 1,10,11
 930 1120 930 1120 946 1120 c 0,12,13
 1265 1120 1265 1120 1265 835 c 0,14,15
 1265 821 1265 821 1264 805 c 1,16,-1
 948 727 l 1,17,18
 958 775 958 775 958 813 c 0,19,20
 958 919 958 919 877 946 c 1,21,-1
 713 173 l 1,22,23
 803 226 803 226 865 374 c 1,24,-1
 1177 408 l 1,25,26
 1050 61 1050 61 675 -5 c 1,27,-1
 636 -188 l 1,28,-1
 506 -188 l 1,29,-1
 542 -19 l 1,30,31
 515 -20 515 -20 486 -20 c 0,0,1
577 145 m 1,32,-1
 747 947 l 1,33,34
 591 901 591 901 529 608 c 2,35,-1
 470 327 l 2,36,37
 463 294 463 294 463 265 c 0,38,39
 463 157 463 157 577 145 c 1,32,-1
EndSplineSet
Validated: 1
EndChar

StartChar: sterling
Encoding: 163 163 96
Width: 1300
GlyphClass: 2
Flags: W
HStem: 0 187<522 1133.88> 659 180<668 880.555> 1108 21G<1080.5 1155.2> 1346 184<852.151 1265.5>
VStem: 1087 325<1191 1327.01>
DStem2: 170.407 0 490.344 0 0.207912 0.978148<258.778 673.622 924.121 1280.42>
LayerCount: 2
Fore
SplineSet
80 0 m 1,0,1
 197 125 197 125 238 318 c 2,2,-1
 310 659 l 1,3,4
 246 619 246 619 181 556 c 1,5,-1
 232 793 l 1,6,7
 289 826 289 826 348 839 c 1,8,-1
 382 999 l 2,9,10
 495 1530 495 1530 1119 1530 c 0,11,12
 1412 1530 1412 1530 1412 1234 c 0,13,14
 1412 1213 1412 1213 1411 1191 c 1,15,-1
 1074 1108 l 1,16,17
 1087 1169 1087 1169 1087 1215 c 0,18,19
 1087 1346 1087 1346 978 1346 c 0,20,21
 776 1346 776 1346 705 1013 c 2,22,-1
 668 839 l 1,23,24
 839 839 839 839 990 943 c 1,25,-1
 943 721 l 1,26,27
 790 659 790 659 630 659 c 1,28,-1
 559 323 l 2,29,30
 543 247 543 247 522 187 c 1,31,-1
 880 187 l 2,32,33
 1084 187 1084 187 1262 290 c 1,34,-1
 1214 66 l 1,35,36
 1048 0 1048 0 840 0 c 2,37,-1
 80 0 l 1,0,1
EndSplineSet
Validated: 1
EndChar

StartChar: currency
Encoding: 164 164 97
Width: 1454
GlyphClass: 2
Flags: W
HStem: 206 185<629.964 955.031> 1082 185<811.789 1137.6>
VStem: 256 321<443.093 751.936> 1190 322<726.036 1030.06>
LayerCount: 2
Fore
SplineSet
803 391 m 0,0,1
 974 391 974 391 1082 575 c 0,2,3
 1147 685 1147 685 1182 851 c 16,4,5
 1190 887 1190 887 1190 917 c 0,6,7
 1190 1082 1190 1082 964 1082 c 0,8,9
 792 1082 792 1082 684 898 c 0,10,11
 622 793 622 793 585 622 c 16,12,13
 577 586 577 586 577 556 c 0,14,15
 577 391 577 391 803 391 c 0,0,1
597 1364 m 1,16,-1
 724 1203 l 1,17,18
 893 1267 893 1267 1105 1267 c 0,19,20
 1204 1267 1204 1267 1276 1233 c 1,21,-1
 1436 1364 l 1,22,-1
 1600 1156 l 1,23,-1
 1484 1060 l 1,24,25
 1512 1006 1512 1006 1512 938 c 0,26,27
 1512 897 1512 897 1502 852 c 0,28,29
 1449 603 1449 603 1315 453 c 1,30,-1
 1422 319 l 1,31,-1
 1171 109 l 1,32,-1
 1043 270 l 1,33,34
 875 206 875 206 662 206 c 0,35,36
 567 206 567 206 491 241 c 1,37,-1
 331 110 l 1,38,-1
 168 318 l 1,39,-1
 283 414 l 1,40,41
 256 475 256 475 256 543 c 0,42,43
 256 582 256 582 265 622 c 0,44,45
 317 870 317 870 452 1021 c 1,46,-1
 346 1156 l 1,47,-1
 597 1364 l 1,16,-1
EndSplineSet
Validated: 1
EndChar

StartChar: yen
Encoding: 165 165 98
Width: 1539
GlyphClass: 2
Flags: W
HStem: 0 21G<608 932.248> 452 181<334 675 1135 1451> 760 181<399 574 1365 1518> 1490 20G<382 722.749 1477.78 1799>
VStem: 608 320<0 320> 1493 306<1204 1510>
DStem2: 716 1510 382 1510 0.316877 -0.948467<0 494.681> 1060 941 1365 941 0.60363 0.797264<184.107 715.015>
LayerCount: 2
Fore
SplineSet
608 0 m 1,0,-1
 704 452 l 1,1,-1
 295 452 l 1,2,-1
 334 633 l 1,3,-1
 675 633 l 1,4,-1
 632 760 l 1,5,-1
 361 760 l 1,6,-1
 399 941 l 1,7,-1
 574 941 l 1,8,-1
 382 1510 l 1,9,-1
 716 1510 l 1,10,-1
 908 941 l 1,11,-1
 1060 941 l 1,12,-1
 1493 1510 l 1,13,-1
 1799 1510 l 1,14,-1
 1365 941 l 1,15,-1
 1556 941 l 1,16,-1
 1518 760 l 1,17,-1
 1232 760 l 1,18,-1
 1135 633 l 1,19,-1
 1490 633 l 1,20,-1
 1451 452 l 1,21,-1
 1024 452 l 1,22,-1
 928 0 l 1,23,-1
 608 0 l 1,0,-1
EndSplineSet
Validated: 1
EndChar

StartChar: brokenbar
Encoding: 166 166 99
Width: 681
GlyphClass: 2
Flags: W
VStem: 154 281<-216 65> 341 281<381 662> 380 281<847 1128> 567 281<1444 1725>
DStem2: 154 -216 435 -216 0.207912 0.978148<58.4232 897.693 1145.18 1984.45>
LayerCount: 2
Fore
SplineSet
154 -216 m 1,0,-1
 341 662 l 1,1,-1
 622 662 l 1,2,-1
 435 -216 l 1,3,-1
 154 -216 l 1,0,-1
380 847 m 1,4,-1
 567 1725 l 1,5,-1
 848 1725 l 1,6,-1
 661 847 l 1,7,-1
 380 847 l 1,4,-1
EndSplineSet
Validated: 1
EndChar

StartChar: section
Encoding: 167 167 100
Width: 1132
GlyphClass: 2
Flags: W
HStem: -20 176<340 744.765> 408 181<577.149 797.301> 921 181<655.699 875.851> 1354 176<708.235 1113>
VStem: 196 309<176.417 288.035> 244 304<612.917 840.806> 350 299<1116.92 1291.44> 804 299<218.555 393.076> 905 304<669.194 897.083> 948 309<1221.96 1333.58>
LayerCount: 2
Fore
SplineSet
484 -20 m 0,0,1
 196 -20 196 -20 196 258 c 0,2,3
 196 270 196 270 197 283 c 1,4,-1
 514 360 l 1,5,6
 505 315 505 315 505 280 c 0,7,8
 505 156 505 156 623 156 c 0,9,10
 768 156 768 156 802 315 c 16,11,12
 804 325 804 325 804 335 c 0,13,14
 804 408 804 408 664 408 c 0,15,16
 244 408 244 408 244 658 c 0,17,18
 244 718 244 718 268 791 c 8,19,20
 291 862 291 862 347 925 c 1,21,-1
 605 862 l 1,22,23
 569 812 569 812 553 736 c 16,24,25
 548 715 548 715 548 696 c 0,26,27
 548 589 548 589 704 589 c 0,28,29
 1103 589 1103 589 1103 365 c 0,30,31
 1103 317 1103 317 1085 259 c 0,32,33
 1039 112 1039 112 833 33 c 0,34,35
 693 -20 693 -20 484 -20 c 0,0,1
969 1530 m 0,36,37
 1257 1530 1257 1530 1257 1252 c 0,38,39
 1257 1240 1257 1240 1256 1227 c 1,40,-1
 939 1150 l 1,41,42
 948 1195 948 1195 948 1230 c 0,43,44
 948 1354 948 1354 830 1354 c 0,45,46
 685 1354 685 1354 651 1195 c 16,47,48
 649 1185 649 1185 649 1175 c 0,49,50
 649 1102 649 1102 789 1102 c 0,51,52
 1209 1102 1209 1102 1209 852 c 0,53,54
 1209 792 1209 792 1185 719 c 8,55,56
 1162 648 1162 648 1106 585 c 1,57,-1
 848 648 l 1,58,59
 884 698 884 698 900 774 c 16,60,61
 905 795 905 795 905 814 c 0,62,63
 905 921 905 921 749 921 c 0,64,65
 350 921 350 921 350 1145 c 0,66,67
 350 1193 350 1193 368 1251 c 0,68,69
 414 1398 414 1398 620 1477 c 0,70,71
 760 1530 760 1530 969 1530 c 0,36,37
EndSplineSet
Validated: 1
EndChar

StartChar: dieresis
Encoding: 168 168 101
Width: 696
GlyphClass: 2
Flags: W
HStem: 1217 313<358.721 563.279 716.721 921.279>
VStem: 301 320<1275.42 1471.58> 659 320<1275.42 1471.58>
LayerCount: 2
Fore
SplineSet
852 1530 m 0,0,1
 979 1530 979 1530 979 1424 c 24,2,3
 979 1217 979 1217 786 1217 c 0,4,5
 659 1217 659 1217 659 1323 c 24,6,7
 659 1530 659 1530 852 1530 c 0,0,1
494 1530 m 0,8,9
 621 1530 621 1530 621 1424 c 0,10,11
 621 1217 621 1217 428 1217 c 0,12,13
 301 1217 301 1217 301 1323 c 24,14,15
 301 1530 301 1530 494 1530 c 0,8,9
EndSplineSet
Validated: 1
EndChar

StartChar: copyright
Encoding: 169 169 102
Width: 1296
GlyphClass: 2
Flags: W
HStem: 191 74<535.408 928.873> 339 143<570 821.425> 1022 142<800.227 1046> 1257 74<690.768 1084.47>
VStem: 254 72<485.34 878.297> 475 207<487.724 621.281> 864 218<530.04 633> 928 214<929 1020.8> 1294 72<643.703 1036.66>
DStem2: 397.151 191 607.204 191 0.207912 0.978148<393.109 865.991>
LayerCount: 2
Fore
SplineSet
713 265 m 0,0,1
 932 265 932 265 1083 389 c 0,2,3
 1255 531 1255 531 1287 761 c 0,4,5
 1294 809 1294 809 1294 853 c 0,6,7
 1294 1013 1294 1013 1207 1122 c 0,8,9
 1101 1257 1101 1257 906 1257 c 0,10,11
 687 1257 687 1257 537 1133 c 0,12,13
 365 991 365 991 333 761 c 0,14,15
 326 713 326 713 326 669 c 0,16,17
 326 509 326 509 413 400 c 0,18,19
 519 265 519 265 713 265 c 0,0,1
699 191 m 0,20,21
 476 191 476 191 354 346 c 0,22,23
 254 471 254 471 254 655 c 0,24,25
 254 706 254 706 262 761 c 0,26,27
 298 1026 298 1026 496 1189 c 0,28,29
 669 1331 669 1331 921 1331 c 0,30,31
 1144 1331 1144 1331 1266 1176 c 0,32,33
 1366 1051 1366 1051 1366 867 c 0,34,35
 1366 816 1366 816 1358 761 c 0,36,37
 1322 496 1322 496 1124 333 c 0,38,39
 951 191 951 191 699 191 c 0,20,21
1082 652 m 1,40,41
 1015 339 1015 339 665 339 c 0,42,43
 475 339 475 339 475 514 c 0,44,45
 475 556 475 556 486 609 c 2,46,-1
 534 835 l 2,47,48
 604 1164 604 1164 950 1164 c 0,49,50
 1142 1164 1142 1164 1142 970 c 0,51,52
 1142 951 1142 951 1140 929 c 1,53,-1
 920 887 l 1,54,55
 928 923 928 923 928 950 c 0,56,57
 928 1022 928 1022 870 1022 c 0,58,59
 784 1022 784 1022 744 835 c 2,60,-1
 685 557 l 2,61,62
 682 543 682 543 682 532 c 0,63,64
 682 482 682 482 741 482 c 0,65,66
 831 482 831 482 864 633 c 1,67,-1
 1082 652 l 1,40,41
EndSplineSet
Validated: 1
EndChar

StartChar: ordfeminine
Encoding: 170 170 103
Width: 795
GlyphClass: 2
Flags: W
HStem: 603 210<193 903> 878 130<449.005 616.321> 1390 140<634.25 882.5>
VStem: 308 215<984 1122.02> 760 223<1213.88 1387.77>
LayerCount: 2
Fore
SplineSet
733 1202 m 1,0,1
 549 1158 549 1158 524 1045 c 16,2,3
 523 1040 523 1040 523 1035 c 0,4,5
 523 1008 523 1008 563 1008 c 0,6,7
 636 1008 636 1008 687 1077 c 0,8,9
 715 1115 715 1115 733 1202 c 1,0,1
782 1530 m 0,10,11
 983 1530 983 1530 983 1371 c 0,12,13
 983 1338 983 1338 974 1299 c 2,14,-1
 927 1081 l 2,15,16
 920 1047 920 1047 920 1015 c 0,17,18
 920 945 920 945 956 887 c 1,19,-1
 662 887 l 1,20,-1
 660 953 l 1,21,22
 567 878 567 878 466 878 c 0,23,24
 375 878 375 878 337 926 c 0,25,26
 308 961 308 961 308 1007 c 0,27,28
 308 1024 308 1024 312 1042 c 0,29,30
 350 1239 350 1239 753 1292 c 1,31,-1
 756 1308 l 2,32,33
 760 1330 760 1330 760 1347 c 0,34,35
 760 1390 760 1390 731 1390 c 0,36,37
 669 1390 669 1390 612 1323 c 1,38,-1
 461 1387 l 1,39,40
 587 1530 587 1530 782 1530 c 0,10,11
903 603 m 1,41,-1
 148 603 l 1,42,-1
 193 813 l 1,43,-1
 948 813 l 1,44,-1
 903 603 l 1,41,-1
EndSplineSet
Validated: 1
EndChar

StartChar: guillemotleft
Encoding: 171 171 104
Width: 1273
GlyphClass: 2
Flags: W
DStem2: 283 859 538 770 0.759089 0.650987<135.63 536.3> 783 859 1038 770 0.759089 0.650987<135.63 536.3>
LayerCount: 2
Fore
SplineSet
1422 1407 m 1,0,-1
 1342 1031 l 1,1,-1
 1038 770 l 1,2,-1
 1234 522 l 1,3,-1
 1151 131 l 1,4,-1
 744 678 l 1,5,-1
 783 859 l 1,6,-1
 1422 1407 l 1,0,-1
922 1407 m 1,7,-1
 842 1031 l 1,8,-1
 538 770 l 1,9,-1
 734 522 l 1,10,-1
 651 131 l 1,11,-1
 244 678 l 1,12,-1
 283 859 l 1,13,-1
 922 1407 l 1,7,-1
EndSplineSet
Validated: 1
EndChar

StartChar: logicalnot
Encoding: 172 172 105
Width: 1184
GlyphClass: 2
Flags: W
HStem: 642 251<290 969>
LayerCount: 2
Fore
SplineSet
290 893 m 1,0,-1
 1274 893 l 1,1,-1
 1170 406 l 1,2,-1
 919 406 l 1,3,-1
 969 642 l 1,4,-1
 236 642 l 1,5,-1
 290 893 l 1,0,-1
EndSplineSet
Validated: 1
EndChar

StartChar: uni00AD
Encoding: 173 173 106
Width: 1184
GlyphClass: 2
Flags: W
HStem: 642 251<290 1220>
LayerCount: 2
Fore
SplineSet
290 893 m 1,0,-1
 1274 893 l 1,1,-1
 1220 642 l 1,2,-1
 236 642 l 1,3,-1
 290 893 l 1,0,-1
EndSplineSet
Validated: 1
EndChar

StartChar: registered
Encoding: 174 174 107
Width: 1296
GlyphClass: 2
Flags: W
HStem: 191 74<535.408 930.444> 584 143<782 826.834> 1006 144<831.562 934.742> 1257 74<690.768 1084.47>
VStem: 254 72<485.34 878.297> 490 210<345 555> 813 214<357.592 582.297> 935 205<810.465 1002.03> 1294 72<643.703 1036.66>
DStem2: 457.266 191 667.266 191 0.207912 0.978148<201.102 445.483 591.803 863.694>
LayerCount: 2
Fore
SplineSet
490 345 m 1,0,-1
 624 975 l 2,1,2
 631 1008 631 1008 631 1038 c 0,3,4
 631 1094 631 1094 609 1150 c 1,5,-1
 951 1150 l 2,6,7
 1140 1150 1140 1150 1140 990 c 0,8,9
 1140 889 1140 889 1092 804.5 c 128,-1,10
 1044 720 1044 720 946 671 c 1,11,12
 1039 647 1039 647 1039 562 c 0,13,14
 1039 543 1039 543 1034 520 c 0,15,16
 1027 487 1027 487 1027 452 c 0,17,18
 1027 407 1027 407 1038 356 c 1,19,20
 1061 371 1061 371 1083 389 c 0,21,22
 1255 531 1255 531 1287 761 c 0,23,24
 1294 809 1294 809 1294 853 c 0,25,26
 1294 1013 1294 1013 1207 1122 c 0,27,28
 1101 1257 1101 1257 906 1257 c 0,29,30
 687 1257 687 1257 537 1133 c 0,31,32
 365 991 365 991 333 761 c 0,33,34
 326 713 326 713 326 669 c 0,35,36
 326 509 326 509 413 400 c 0,37,38
 519 265 519 265 713 265 c 0,39,40
 889 265 889 265 1021 345 c 1,41,-1
 818 345 l 1,42,43
 813 384 813 384 813 421 c 0,44,45
 813 472 813 472 823 520 c 0,46,47
 827 538 827 538 827 551 c 0,48,49
 827 584 827 584 801 584 c 2,50,-1
 751 584 l 1,51,-1
 700 345 l 1,52,-1
 490 345 l 1,0,-1
782 727 m 1,53,-1
 804 727 l 2,54,55
 888 727 888 727 932 932 c 0,56,57
 935 944 935 944 935 955 c 0,58,59
 935 1006 935 1006 869 1006 c 2,60,-1
 838 1006 l 1,61,62
 836 984 836 984 834 976 c 2,63,-1
 782 727 l 1,53,-1
921 1331 m 0,64,65
 1144 1331 1144 1331 1266 1176 c 0,66,67
 1366 1051 1366 1051 1366 867 c 0,68,69
 1366 816 1366 816 1358 761 c 0,70,71
 1322 496 1322 496 1124 333 c 0,72,73
 951 191 951 191 699 191 c 0,74,75
 476 191 476 191 354 346 c 0,76,77
 254 471 254 471 254 655 c 0,78,79
 254 706 254 706 262 761 c 0,80,81
 298 1026 298 1026 496 1189 c 0,82,83
 669 1331 669 1331 921 1331 c 0,64,65
EndSplineSet
Validated: 1
EndChar

StartChar: macron
Encoding: 175 175 108
Width: 732
GlyphClass: 2
Flags: W
HStem: 1261 188<328 980>
LayerCount: 2
Fore
SplineSet
328 1449 m 1,0,-1
 1020 1449 l 1,1,-1
 980 1261 l 1,2,-1
 288 1261 l 1,3,-1
 328 1449 l 1,0,-1
EndSplineSet
Validated: 1
EndChar

StartChar: degree
Encoding: 176 176 109
Width: 744
GlyphClass: 2
Flags: W
HStem: 893 185<501.852 703.036> 1344 186<557.051 757.595>
VStem: 265 231<1086.17 1280.11> 763 231<1141.37 1336.79>
LayerCount: 2
Fore
SplineSet
752 1530 m 0,0,1
 880 1530 880 1530 948 1446 c 0,2,3
 994 1388 994 1388 994 1303 c 0,4,5
 994 1248 994 1248 975 1182 c 0,6,7
 934 1038 934 1038 786 956 c 0,8,9
 674 893 674 893 507 893 c 0,10,11
 379 893 379 893 311 977 c 0,12,13
 265 1035 265 1035 265 1120 c 0,14,15
 265 1175 265 1175 284 1241 c 0,16,17
 325 1385 325 1385 473 1467 c 0,18,19
 585 1530 585 1530 752 1530 c 0,0,1
671 1344 m 0,20,21
 535 1344 535 1344 500 1180 c 16,22,23
 496 1164 496 1164 496 1150 c 0,24,25
 496 1078 496 1078 594 1078 c 0,26,27
 725 1078 725 1078 760 1245 c 16,28,29
 763 1261 763 1261 763 1274 c 0,30,31
 763 1344 763 1344 671 1344 c 0,20,21
EndSplineSet
Validated: 1
EndChar

StartChar: plusminus
Encoding: 177 177 110
Width: 1184
GlyphClass: 2
Flags: W
HStem: 114 251<178 1108> 792 251<322 634 938 1252>
VStem: 556 250<425 675> 760 250<1135 1385>
DStem2: 489.895 114 739.895 114 0.207912 0.978148<369.926 693.145 1001.87 1299.38>
LayerCount: 2
Fore
SplineSet
178 365 m 1,0,-1
 1162 365 l 1,1,-1
 1108 114 l 1,2,-1
 124 114 l 1,3,-1
 178 365 l 1,0,-1
760 1385 m 1,4,-1
 1010 1385 l 1,5,-1
 938 1043 l 1,6,-1
 1306 1043 l 1,7,-1
 1252 792 l 1,8,-1
 884 792 l 1,9,-1
 806 425 l 1,10,-1
 556 425 l 1,11,-1
 634 792 l 1,12,-1
 268 792 l 1,13,-1
 322 1043 l 1,14,-1
 688 1043 l 1,15,-1
 760 1385 l 1,4,-1
EndSplineSet
Validated: 1
EndChar

StartChar: uni00B2
Encoding: 178 178 111
Width: 704
GlyphClass: 2
Flags: W
HStem: 792 174<500 817.922> 1117 175<538.634 679.247> 1494 174<460.911 718.603>
VStem: 719 270<1328.22 1492.04>
LayerCount: 2
Fore
SplineSet
689 1668 m 2,0,1
 741 1668 l 2,2,3
 889 1668 889 1668 952 1577 c 0,4,5
 989 1523 989 1523 989 1454 c 0,6,7
 989 1407 989 1407 972 1354 c 0,8,9
 935 1235 935 1235 816 1168 c 0,10,11
 724 1117 724 1117 586 1117 c 0,12,13
 532 1117 532 1117 500 966 c 1,14,-1
 645 966 l 2,15,16
 782 966 782 966 903 1068 c 1,17,-1
 855 841 l 1,18,19
 742 792 742 792 608 792 c 2,20,-1
 188 792 l 1,21,22
 294 1292 294 1292 593 1292 c 0,23,24
 689 1292 689 1292 716 1419 c 16,25,26
 719 1432 719 1432 719 1442 c 0,27,28
 719 1494 719 1494 654 1494 c 2,29,-1
 637 1494 l 2,30,31
 516 1494 516 1494 383 1406 c 1,32,-1
 429 1624 l 1,33,34
 575 1668 575 1668 689 1668 c 2,0,1
EndSplineSet
Validated: 1
EndChar

StartChar: uni00B3
Encoding: 179 179 112
Width: 744
GlyphClass: 2
Flags: W
HStem: 793 179<366 652.068> 1185 175<505 688.033> 1494 174<501.719 720.99>
VStem: 694 271<1012.37 1181.74> 721 270<1395.68 1523.5>
LayerCount: 2
Fore
SplineSet
729 1668 m 2,0,-1
 743 1668 l 2,1,2
 893 1668 893 1668 956 1592 c 0,3,4
 991 1550 991 1550 991 1497 c 0,5,6
 991 1465 991 1465 978 1428 c 0,7,8
 952 1354 952 1354 867 1317 c 1,9,10
 965 1266 965 1266 965 1159 c 0,11,12
 965 1118 965 1118 951 1069 c 0,13,14
 911 933 911 933 779 857 c 0,15,16
 666 793 666 793 489 793 c 0,17,18
 243 793 243 793 243 1021 c 0,19,20
 243 1039 243 1039 245 1059 c 1,21,-1
 531 1133 l 1,22,23
 521 1087 521 1087 521 1054 c 0,24,25
 522 972 522 972 580 972 c 0,26,27
 662 972 662 972 692 1122 c 16,28,29
 694 1131 694 1131 694 1139 c 0,30,31
 694 1185 694 1185 628 1185 c 2,32,-1
 468 1185 l 1,33,-1
 505 1360 l 1,34,35
 700 1360 700 1360 720 1457 c 16,36,37
 721 1462 721 1462 721 1467 c 0,38,39
 721 1494 721 1494 681 1494 c 2,40,-1
 677 1494 l 2,41,42
 567 1494 567 1494 423 1407 c 1,43,-1
 469 1624 l 1,44,45
 600 1668 600 1668 729 1668 c 2,0,-1
EndSplineSet
Validated: 1
EndChar

StartChar: acute
Encoding: 180 180 113
Width: 458
GlyphClass: 2
Flags: W
HStem: 1135 409
VStem: 291 435
LayerCount: 2
Fore
SplineSet
572 1544 m 1,0,-1
 726 1354 l 1,1,-1
 404 1135 l 1,2,-1
 291 1273 l 1,3,-1
 572 1544 l 1,0,-1
EndSplineSet
Validated: 1
EndChar

StartChar: uni00B5
Encoding: 181 181 114
Width: 1263
GlyphClass: 2
Flags: W
HStem: -410 21G<63 362.248> -20 190<522.242 702.148> 0 21G<872 1193> 1080 20G<304 632.5 1047.7 1347>
VStem: 63 295<-410 -115> 337 302<680.906 1097.89> 869 291<1.76819 213.165>
DStem2: 63 -410 358 -410 0.207912 0.978148<61.3339 489.682 756.069 1370> 751.152 -410 1025.38 -410 0.207912 0.978148<1006.77 1539.55>
LayerCount: 2
Fore
SplineSet
1193 0 m 1,0,1
 875 0 l 1,2,3
 869 39 869 39 869 80 c 0,4,5
 869 144 869 144 884 215 c 1,6,7
 757 -20 757 -20 573 -20 c 0,8,9
 498 -20 498 -20 447 9 c 1,10,-1
 358 -410 l 17,11,-1
 63 -410 l 1,12,-1
 318 792 l 2,13,14
 337 882 337 882 337 934 c 0,15,16
 337 1027 337 1027 304 1100 c 1,17,-1
 626 1100 l 1,18,19
 639 1038 639 1038 639 971 c 0,20,21
 639 888 639 888 619 794 c 2,22,-1
 524 348 l 2,23,24
 514 301 514 301 514 266 c 0,25,26
 514 170 514 170 591 170 c 0,27,28
 852 170 852 170 1032 1007 c 2,29,-1
 1052 1100 l 1,30,-1
 1347 1100 l 1,31,-1
 1178 308 l 2,32,33
 1160 224 1160 224 1160 167 c 0,34,35
 1160 74 1160 74 1193 0 c 1,0,1
EndSplineSet
Validated: 1
EndChar

StartChar: paragraph
Encoding: 182 182 115
Width: 1203
GlyphClass: 2
Flags: W
HStem: 0 21G<676 824.248 907 1057.26> 1490 20G<643 1459>
VStem: 676 144<0 144> 907 146<0 146>
DStem2: 676 0 820 0 0.207912 0.978148<29.9393 500.915> 907 0 1053 0 0.207912 0.978148<30.3551 1302.84>
LayerCount: 2
Fore
SplineSet
1053 0 m 1,0,-1
 907 0 l 1,1,-1
 1178 1276 l 1,2,-1
 1091 1276 l 1,3,-1
 820 0 l 1,4,-1
 676 0 l 1,5,-1
 780 490 l 1,6,7
 291 490 291 490 291 903 c 0,8,9
 291 993 291 993 314 1103 c 8,10,11
 400 1510 400 1510 886 1510 c 2,12,-1
 1459 1510 l 1,13,14
 1347 1379 1347 1379 1307 1193 c 2,15,-1
 1053 0 l 1,0,-1
EndSplineSet
Validated: 1
EndChar

StartChar: periodcentered
Encoding: 183 183 116
Width: 400
GlyphClass: 2
Flags: W
HStem: 575 377<248.04 475.96>
VStem: 169 386<656.281 870.719>
LayerCount: 2
Fore
SplineSet
402 952 m 0,0,1
 555 952 555 952 555 824 c 24,2,3
 555 575 555 575 322 575 c 0,4,5
 169 575 169 575 169 703 c 24,6,7
 169 951 169 951 402 952 c 0,0,1
EndSplineSet
Validated: 1
EndChar

StartChar: cedilla
Encoding: 184 184 117
Width: 452
GlyphClass: 2
Flags: W
HStem: -460 186<-25 134.75> -20 20G<64 288>
VStem: 61 225<-88.1726 0> 145 237<-259.686 -159.773>
LayerCount: 2
Fore
SplineSet
67 0 m 1,0,-1
 288 0 l 1,1,2
 286 -11 286 -11 286 -21 c 0,3,4
 286 -55 286 -55 312 -74 c 0,5,6
 382 -124 382 -124 382 -210 c 0,7,8
 382 -234 382 -234 377 -260 c 0,9,10
 334 -460 334 -460 -25 -460 c 1,11,-1
 -38 -274 l 1,12,13
 145 -274 145 -274 145 -219 c 0,14,15
 145 -199 145 -199 112 -171 c 0,16,17
 61 -128 61 -128 61 -55 c 0,18,19
 61 -29 61 -29 67 0 c 1,0,-1
EndSplineSet
Validated: 1
EndChar

StartChar: uni00B9
Encoding: 185 185 118
Width: 422
GlyphClass: 2
Flags: W
HStem: 1493 175<369 447>
VStem: 300 270<792 1062>
DStem2: 300 792 570 792 0.207912 0.978148<56.1362 715.779>
LayerCount: 2
Fore
SplineSet
369 1668 m 1,0,-1
 706 1668 l 1,1,2
 724 1619 724 1619 724 1561 c 0,3,4
 724 1515 724 1515 713 1463 c 2,5,-1
 570 792 l 1,6,-1
 300 792 l 1,7,-1
 443 1462 l 2,8,9
 446 1478 446 1478 447 1493 c 1,10,-1
 331 1493 l 1,11,-1
 369 1668 l 1,0,-1
EndSplineSet
Validated: 1
EndChar

StartChar: ordmasculine
Encoding: 186 186 119
Width: 784
GlyphClass: 2
Flags: W
HStem: 603 210<193 892> 881 144<420.5 686.158> 1385 145<611.273 879>
VStem: 316 220<1029.16 1280.71> 761 220<1130.13 1381.93>
DStem2: 213.132 603 433.635 603 0.207912 0.978148<528.111 827.057> 607.205 603 827.205 603 0.207912 0.978148<450.838 748.683>
LayerCount: 2
Fore
SplineSet
892 603 m 1,0,-1
 148 603 l 1,1,-1
 193 813 l 1,2,-1
 937 813 l 1,3,-1
 892 603 l 1,0,-1
694 1385 m 0,4,5
 599 1385 599 1385 568 1235 c 2,6,-1
 538 1094 l 2,7,8
 536 1083 536 1083 536 1074 c 0,9,10
 536 1025 536 1025 605 1025 c 0,11,12
 697 1025 697 1025 729 1176 c 2,13,-1
 759 1317 l 2,14,15
 761 1327 761 1327 761 1336 c 0,16,17
 761 1385 761 1385 694 1385 c 0,4,5
777 1530 m 0,18,19
 981 1530 981 1530 981 1360 c 0,20,21
 981 1323 981 1323 971 1278 c 2,22,-1
 949 1176 l 2,23,24
 885 881 885 881 525 881 c 0,25,26
 316 881 316 881 316 1052 c 0,27,28
 316 1089 316 1089 326 1134 c 2,29,-1
 348 1235 l 2,30,31
 412 1530 412 1530 777 1530 c 0,18,19
EndSplineSet
Validated: 1
EndChar

StartChar: guillemotright
Encoding: 187 187 120
Width: 1273
GlyphClass: 2
Flags: W
DStem2: 258 507 178 131 0.759089 0.650987<0 400.671> 758 507 678 131 0.759089 0.650987<0 400.671>
LayerCount: 2
Fore
SplineSet
949 1407 m 1,0,-1
 1356 860 l 1,1,-1
 1317 679 l 1,2,-1
 678 131 l 1,3,-1
 758 507 l 1,4,-1
 1062 768 l 1,5,-1
 866 1016 l 1,6,-1
 949 1407 l 1,0,-1
449 1407 m 1,7,-1
 856 860 l 1,8,-1
 817 679 l 1,9,-1
 178 131 l 1,10,-1
 258 507 l 1,11,-1
 562 768 l 1,12,-1
 366 1016 l 1,13,-1
 449 1407 l 1,7,-1
EndSplineSet
Validated: 1
EndChar

StartChar: questiondown
Encoding: 191 191 121
Width: 1408
GlyphClass: 2
Flags: W
HStem: -430 184<467.302 802.883> 365 176<587.968 712.01> 743 377<838.04 1065.96>
VStem: 103 314<-195.736 110> 759 386<824.281 1038.72>
LayerCount: 2
Fore
SplineSet
992 1120 m 0,0,1
 1145 1120 1145 1120 1145 992 c 24,2,3
 1145 744 1145 744 912 743 c 0,4,5
 759 743 759 743 759 871 c 24,6,7
 759 1120 759 1120 992 1120 c 0,0,1
504 -430 m 0,8,9
 103 -430 103 -430 103 -101 c 0,10,11
 103 -26 103 -26 124 66 c 0,12,13
 168 260 168 260 328 408 c 0,14,15
 470 541 470 541 665 541 c 0,16,17
 710 541 710 541 724 605 c 1,18,-1
 1067 712 l 1,19,20
 993 365 993 365 703 365 c 0,21,22
 508 365 508 365 424 -27 c 16,23,24
 417 -60 417 -60 417 -87 c 0,25,26
 417 -246 417 -246 646 -246 c 0,27,28
 916 -246 916 -246 1000 150 c 9,29,-1
 1347 231 l 1,30,31
 1207 -430 1207 -430 504 -430 c 0,8,9
EndSplineSet
Validated: 1
EndChar

StartChar: multiply
Encoding: 215 215 122
Width: 1073
GlyphClass: 2
Flags: W
DStem2: 207 505 347 327 0.771137 0.636669<0 401.667 685.519 1087.82> 545 1183 330 1005 0.618894 -0.785475<6.75231 308.294 540.72 864.445>
LayerCount: 2
Fore
SplineSet
545 1183 m 1,0,-1
 736 941 l 1,1,-1
 1050 1200 l 1,2,-1
 1190 1023 l 1,3,-1
 875 763 l 1,4,-1
 1080 504 l 1,5,-1
 864 326 l 1,6,-1
 661 586 l 1,7,-1
 347 327 l 1,8,-1
 207 505 l 1,9,-1
 520 763 l 1,10,-1
 330 1005 l 1,11,-1
 545 1183 l 1,0,-1
EndSplineSet
Validated: 1
EndChar

StartChar: divide
Encoding: 247 247 123
Width: 1185
GlyphClass: 2
Flags: W
HStem: 181 377<557.04 784.96> 642 251<291 1221> 976 377<727.04 954.96>
VStem: 478 386<262.281 476.719> 648 386<1057.28 1271.72>
LayerCount: 2
Fore
SplineSet
631 181 m 0,0,1
 478 181 478 181 478 309 c 24,2,3
 478 557 478 557 711 558 c 0,4,5
 864 558 864 558 864 430 c 24,6,7
 864 181 864 181 631 181 c 0,0,1
881 1353 m 0,8,9
 1034 1353 1034 1353 1034 1225 c 24,10,11
 1034 976 1034 976 801 976 c 0,12,13
 648 976 648 976 648 1104 c 24,14,15
 648 1352 648 1352 881 1353 c 0,8,9
291 893 m 1,16,-1
 1275 893 l 1,17,-1
 1221 642 l 1,18,-1
 237 642 l 1,19,-1
 291 893 l 1,16,-1
EndSplineSet
Validated: 1
EndChar

StartChar: Lslash
Encoding: 321 321 124
Width: 1111
GlyphClass: 2
Flags: W
HStem: 0 187<510 1021.9> 1100 20G<930.167 971.154> 1490 20G<381 735>
VStem: 419 324<1075.72 1507.64>
DStem2: 90 422 195 291 0.778229 0.627981<0 25.6887 728.871 1111.5> 149.533 0 470.252 0 0.207912 0.978148<257.859 314.881 580.842 700.525 966.278 1350.14>
LayerCount: 2
Fore
SplineSet
150 0 m 1,0,-1
 215 308 l 1,1,-1
 195 291 l 1,2,-1
 90 422 l 1,3,-1
 271 568 l 1,4,-1
 404 1193 l 2,5,6
 419 1262 419 1262 419 1325 c 0,7,8
 419 1426 419 1426 381 1510 c 1,9,-1
 727 1510 l 1,10,11
 743 1443 743 1443 743 1367 c 0,12,13
 743 1285 743 1285 724 1193 c 2,14,-1
 657 880 l 1,15,-1
 955 1120 l 1,16,-1
 1060 990 l 1,17,-1
 602 620 l 1,18,-1
 510 187 l 1,19,-1
 781 187 l 2,20,21
 977 187 977 187 1165 302 c 1,22,-1
 1115 66 l 1,23,24
 944 0 944 0 741 0 c 2,25,-1
 150 0 l 1,0,-1
EndSplineSet
Validated: 1
EndChar

StartChar: lslash
Encoding: 322 322 125
Width: 775
GlyphClass: 2
Flags: W
HStem: 0 21G<289 617> 1490 20G<478 807>
VStem: 283 301<2.09766 420.781> 295 322<0 127.907 132.751 166.913 171.665 313.885> 510 303<1090.05 1507.78>
DStem2: 109 464 214 333 0.778838 0.627225<0 144.698 815.074 962.345> 236.682 0 536.682 0 0.207912 0.978148<240.126 433.513 699.266 794.396 1059.17 1366.71>
LayerCount: 2
Fore
SplineSet
295 0 m 1,0,1
 283 63 283 63 283 130 c 0,2,3
 283 218 283 218 303 312 c 2,4,-1
 327 424 l 1,5,-1
 214 333 l 1,6,-1
 109 464 l 1,7,-1
 382 684 l 1,8,-1
 492 1198 l 2,9,10
 510 1282 510 1282 510 1341 c 0,11,12
 510 1428 510 1428 478 1510 c 1,13,-1
 801 1510 l 1,14,15
 813 1450 813 1450 813 1384 c 0,16,17
 813 1296 813 1296 792 1198 c 2,18,-1
 744 975 l 1,19,-1
 859 1067 l 1,20,-1
 964 937 l 1,21,-1
 689 716 l 1,22,-1
 603 312 l 2,23,24
 584 223 584 223 584 170 c 0,25,26
 584 71 584 71 617 0 c 1,27,-1
 295 0 l 1,0,1
EndSplineSet
Validated: 1
EndChar

StartChar: endash
Encoding: 8211 8211 126
Width: 1184
GlyphClass: 2
Flags: W
HStem: 642 251<290 1220>
LayerCount: 2
Fore
SplineSet
290 893 m 1,0,-1
 1274 893 l 1,1,-1
 1220 642 l 1,2,-1
 236 642 l 1,3,-1
 290 893 l 1,0,-1
EndSplineSet
Validated: 1
EndChar

StartChar: emdash
Encoding: 8212 8212 127
Width: 1403
GlyphClass: 2
Flags: W
HStem: 642 251<290 1439>
LayerCount: 2
Fore
SplineSet
1439 642 m 1,0,-1
 236 642 l 1,1,-1
 290 893 l 1,2,-1
 1493 893 l 1,3,-1
 1439 642 l 1,0,-1
EndSplineSet
Validated: 1
EndChar

StartChar: afii00208
Encoding: 8213 8213 128
Width: 1404
GlyphClass: 2
Flags: W
HStem: 642 251<291 1440>
LayerCount: 2
Fore
SplineSet
1440 642 m 1,0,-1
 237 642 l 1,1,-1
 291 893 l 1,2,-1
 1494 893 l 1,3,-1
 1440 642 l 1,0,-1
EndSplineSet
Validated: 1
EndChar

StartChar: quoteleft
Encoding: 8216 8216 129
Width: 422
GlyphClass: 2
Flags: W
HStem: 1510 20G<479.5 653.97>
VStem: 258 242<1071.26 1252.02>
LayerCount: 2
Fore
SplineSet
646 1530 m 1,0,-1
 699 1397 l 1,1,2
 531 1326 531 1326 504 1202 c 0,3,4
 500 1184 500 1184 500 1168 c 0,5,6
 500 1080 500 1080 608 1031 c 1,7,-1
 410 822 l 1,8,9
 258 926 258 926 258 1082 c 0,10,11
 258 1119 258 1119 266 1158 c 0,12,13
 313 1381 313 1381 646 1530 c 1,0,-1
EndSplineSet
Validated: 1
EndChar

StartChar: quoteright
Encoding: 8217 8217 130
Width: 422
GlyphClass: 2
Flags: W
HStem: 1510 20G<493.053 588>
VStem: 421 243<1099.98 1281.33>
LayerCount: 2
Fore
SplineSet
512 1530 m 1,0,1
 664 1426 664 1426 664 1270 c 0,2,3
 664 1233 664 1233 656 1194 c 0,4,5
 609 971 609 971 276 822 c 1,6,-1
 223 955 l 1,7,8
 391 1026 391 1026 417 1150 c 0,9,10
 421 1168 421 1168 421 1185 c 0,11,12
 421 1273 421 1273 314 1321 c 1,13,-1
 512 1530 l 1,0,1
EndSplineSet
Validated: 1
EndChar

StartChar: quotesinglbase
Encoding: 8218 8218 131
Width: 422
GlyphClass: 2
Flags: W
VStem: 177 243<-50.0215 130.744>
LayerCount: 2
Fore
SplineSet
268 380 m 1,0,1
 420 277 420 277 420 121 c 0,2,3
 420 84 420 84 411 44 c 0,4,5
 364 -179 364 -179 31 -328 c 1,6,-1
 -21 -195 l 1,7,8
 147 -124 147 -124 173 0 c 0,9,10
 177 18 177 18 177 34 c 0,11,12
 177 122 177 122 69 171 c 1,13,-1
 268 380 l 1,0,1
EndSplineSet
Validated: 1
EndChar

StartChar: quotereversed
Encoding: 8219 8219 132
Width: 422
GlyphClass: 2
Flags: W
HStem: 1510 20G<439 570.526>
VStem: 267 222<1007 1231.09>
LayerCount: 2
Fore
SplineSet
560 1530 m 1,0,1
 670 1321 l 1,2,3
 518 1263 518 1263 493 1150 c 0,4,5
 489 1130 489 1130 489 1112 c 0,6,7
 489 1015 489 1015 605 955 c 1,8,-1
 496 822 l 1,9,10
 267 949 267 949 267 1129 c 0,11,12
 267 1161 267 1161 274 1194 c 0,13,14
 318 1402 318 1402 560 1530 c 1,0,1
EndSplineSet
Validated: 1
EndChar

StartChar: quotedblleft
Encoding: 8220 8220 133
Width: 793
GlyphClass: 2
Flags: W
HStem: 1510 20G<479.5 653.97 850.5 1024.97>
VStem: 258 242<1071.26 1252.02> 629 242<1071.26 1252.02>
LayerCount: 2
Fore
SplineSet
646 1530 m 1,0,-1
 699 1397 l 1,1,2
 531 1326 531 1326 504 1202 c 0,3,4
 500 1184 500 1184 500 1168 c 0,5,6
 500 1080 500 1080 608 1031 c 1,7,-1
 410 822 l 1,8,9
 258 926 258 926 258 1082 c 0,10,11
 258 1119 258 1119 266 1158 c 0,12,13
 313 1381 313 1381 646 1530 c 1,0,-1
1017 1530 m 1,14,-1
 1070 1397 l 1,15,16
 902 1326 902 1326 875 1202 c 0,17,18
 871 1184 871 1184 871 1168 c 0,19,20
 871 1080 871 1080 979 1031 c 1,21,-1
 781 822 l 1,22,23
 629 926 629 926 629 1082 c 0,24,25
 629 1119 629 1119 637 1158 c 0,26,27
 684 1381 684 1381 1017 1530 c 1,14,-1
EndSplineSet
Validated: 1
EndChar

StartChar: quotedblright
Encoding: 8221 8221 134
Width: 793
GlyphClass: 2
Flags: W
HStem: 1510 20G<493.053 588 864.053 959>
VStem: 421 243<1099.98 1281.33> 792 243<1099.98 1281.33>
LayerCount: 2
Fore
SplineSet
883 1530 m 1,0,1
 1035 1426 1035 1426 1035 1270 c 0,2,3
 1035 1233 1035 1233 1027 1194 c 0,4,5
 980 971 980 971 647 822 c 1,6,-1
 594 955 l 1,7,8
 762 1026 762 1026 788 1150 c 0,9,10
 792 1168 792 1168 792 1185 c 0,11,12
 792 1273 792 1273 685 1321 c 1,13,-1
 883 1530 l 1,0,1
512 1530 m 1,14,15
 664 1426 664 1426 664 1270 c 0,16,17
 664 1233 664 1233 656 1194 c 0,18,19
 609 971 609 971 276 822 c 1,20,-1
 223 955 l 1,21,22
 391 1026 391 1026 417 1150 c 0,23,24
 421 1168 421 1168 421 1185 c 0,25,26
 421 1273 421 1273 314 1321 c 1,27,-1
 512 1530 l 1,14,15
EndSplineSet
Validated: 1
EndChar

StartChar: quotedblbase
Encoding: 8222 8222 135
Width: 793
GlyphClass: 2
Flags: W
VStem: 177 243<-50.0215 130.744> 548 243<-50.0215 130.744>
LayerCount: 2
Fore
SplineSet
639 380 m 1,0,1
 791 277 791 277 791 121 c 0,2,3
 791 84 791 84 782 44 c 0,4,5
 735 -179 735 -179 402 -328 c 1,6,-1
 350 -195 l 1,7,8
 518 -124 518 -124 544 0 c 0,9,10
 548 18 548 18 548 34 c 0,11,12
 548 122 548 122 440 171 c 1,13,-1
 639 380 l 1,0,1
268 380 m 1,14,15
 420 277 420 277 420 121 c 0,16,17
 420 84 420 84 411 44 c 0,18,19
 364 -179 364 -179 31 -328 c 1,20,-1
 -21 -195 l 1,21,22
 147 -124 147 -124 173 0 c 0,23,24
 177 18 177 18 177 34 c 0,25,26
 177 122 177 122 69 171 c 1,27,-1
 268 380 l 1,14,15
EndSplineSet
Validated: 1
EndChar

StartChar: dagger
Encoding: 8224 8224 136
Width: 1203
GlyphClass: 2
Flags: W
HStem: 0 21G<442 766.246> 975 211<352 649 1014 1310> 1490 20G<758.741 1083>
VStem: 442 320<0 320> 763 320<1190 1510>
DStem2: 442 0 762 0 0.207912 0.978148<66.5317 996.732 1279.01 1543.74>
LayerCount: 2
Fore
SplineSet
442 0 m 1,0,-1
 649 975 l 1,1,-1
 307 975 l 1,2,-1
 352 1186 l 1,3,-1
 694 1186 l 1,4,-1
 763 1510 l 1,5,-1
 1083 1510 l 1,6,-1
 1014 1186 l 1,7,-1
 1355 1186 l 1,8,-1
 1310 975 l 1,9,-1
 969 975 l 1,10,-1
 762 0 l 1,11,-1
 442 0 l 1,0,-1
EndSplineSet
Validated: 1
EndChar

StartChar: daggerdbl
Encoding: 8225 8225 137
Width: 1203
GlyphClass: 2
Flags: W
HStem: 0 21G<442 766.259> 324 211<214 511 876 1172> 975 211<352 649 1014 1310> 1490 20G<758.741 1083>
VStem: 442 320<0 320> 763 320<1190 1510>
DStem2: 442 0 762 0 0.207912 0.978148<66.5317 331.266 613.543 996.732 1279.01 1543.74>
LayerCount: 2
Fore
SplineSet
442 0 m 1,0,-1
 511 324 l 1,1,-1
 169 324 l 1,2,-1
 214 535 l 1,3,-1
 556 535 l 1,4,-1
 649 975 l 1,5,-1
 307 975 l 1,6,-1
 352 1186 l 1,7,-1
 694 1186 l 1,8,-1
 763 1510 l 1,9,-1
 1083 1510 l 1,10,-1
 1014 1186 l 1,11,-1
 1355 1186 l 1,12,-1
 1310 975 l 1,13,-1
 969 975 l 1,14,-1
 876 535 l 1,15,-1
 1217 535 l 1,16,-1
 1172 324 l 1,17,-1
 831 324 l 1,18,-1
 762 0 l 1,19,-1
 442 0 l 1,0,-1
EndSplineSet
Validated: 1
EndChar

StartChar: bullet
Encoding: 8226 8226 138
Width: 944
GlyphClass: 2
Flags: W
HStem: 387 754<499.314 769.686>
VStem: 248 773<665.424 862.576>
LayerCount: 2
Fore
SplineSet
715 1141 m 0,0,1
 1021 1141 1021 1141 1021 886 c 0,2,3
 1021 832 1021 832 1006 764 c 0,4,5
 926 387 926 387 554 387 c 16,6,7
 248 387 248 387 248 642 c 0,8,9
 248 697 248 697 262 764 c 0,10,11
 342 1141 342 1141 715 1141 c 0,0,1
EndSplineSet
Validated: 1
EndChar

StartChar: ellipsis
Encoding: 8230 8230 139
Width: 1310
GlyphClass: 2
Flags: W
HStem: -20 377<122.04 349.96 580.04 807.96 1032.04 1259.96>
VStem: 43 386<61.2812 275.719> 501 386<61.2812 275.719> 953 386<61.2812 275.719>
LayerCount: 2
Fore
SplineSet
1106 -20 m 0,0,1
 953 -20 953 -20 953 108 c 24,2,3
 953 356 953 356 1186 357 c 0,4,5
 1339 357 1339 357 1339 229 c 24,6,7
 1339 -20 1339 -20 1106 -20 c 0,0,1
654 -20 m 0,8,9
 501 -20 501 -20 501 108 c 24,10,11
 501 356 501 356 734 357 c 0,12,13
 887 357 887 357 887 229 c 24,14,15
 887 -20 887 -20 654 -20 c 0,8,9
196 -20 m 0,16,17
 43 -20 43 -20 43 108 c 24,18,19
 43 356 43 356 276 357 c 0,20,21
 429 357 429 357 429 229 c 24,22,23
 429 -20 429 -20 196 -20 c 0,16,17
EndSplineSet
Validated: 1
EndChar

StartChar: perthousand
Encoding: 8240 8240 140
Width: 2684
GlyphClass: 2
Flags: W
HStem: -20 174<1176.58 1511.42 1997.58 2332.42> 0 21G<406 740.907> 506 175<1383.72 1721.18 2204.72 2542.18> 829 174<465.578 800.421> 1355 175<672.72 1010.18> 1490 20G<1442.09 1777>
VStem: 334 253<1015.12 1254.83> 406 321<0 321> 886 257<1103.66 1344.17> 1045 253<166.122 405.833> 1456 321<1189 1510> 1597 257<254.661 495.171> 1866 253<166.122 405.833> 2418 257<254.661 495.171>
DStem2: 406 0 727 0 0.570905 0.821016<183.261 1839.18>
LayerCount: 2
Fore
SplineSet
2133 -20 m 0,0,1
 1866 -20 1866 -20 1866 208 c 0,2,3
 1866 274 1866 274 1889 360 c 0,4,5
 1932 525 1932 525 2100 615 c 0,6,7
 2222 681 2222 681 2403 681 c 0,8,9
 2675 681 2675 681 2675 461 c 0,10,11
 2675 392 2675 392 2648 301 c 0,12,13
 2602 146 2602 146 2456 57 c 0,14,15
 2329 -20 2329 -20 2133 -20 c 0,0,1
2223 154 m 0,16,17
 2367 154 2367 154 2412 368 c 16,18,19
 2418 395 2418 395 2418 416 c 0,20,21
 2418 506 2418 506 2320 506 c 0,22,23
 2169 506 2169 506 2125 296 c 16,24,25
 2119 269 2119 269 2119 247 c 0,26,27
 2119 154 2119 154 2223 154 c 0,16,17
1312 -20 m 0,28,29
 1045 -20 1045 -20 1045 208 c 0,30,31
 1045 274 1045 274 1068 360 c 0,32,33
 1111 525 1111 525 1279 615 c 0,34,35
 1401 681 1401 681 1582 681 c 0,36,37
 1854 681 1854 681 1854 461 c 0,38,39
 1854 392 1854 392 1827 301 c 0,40,41
 1781 146 1781 146 1635 57 c 0,42,43
 1508 -20 1508 -20 1312 -20 c 0,28,29
1402 154 m 0,44,45
 1546 154 1546 154 1591 368 c 16,46,47
 1597 395 1597 395 1597 416 c 0,48,49
 1597 506 1597 506 1499 506 c 0,50,51
 1348 506 1348 506 1304 296 c 16,52,53
 1298 269 1298 269 1298 247 c 0,54,55
 1298 154 1298 154 1402 154 c 0,44,45
871 1530 m 0,56,57
 1143 1530 1143 1530 1143 1310 c 0,58,59
 1143 1241 1143 1241 1116 1150 c 0,60,61
 1070 995 1070 995 924 906 c 0,62,63
 797 829 797 829 601 829 c 0,64,65
 334 829 334 829 334 1057 c 0,66,67
 334 1123 334 1123 357 1209 c 0,68,69
 400 1374 400 1374 568 1464 c 0,70,71
 690 1530 690 1530 871 1530 c 0,56,57
788 1355 m 0,72,73
 637 1355 637 1355 593 1145 c 16,74,75
 587 1118 587 1118 587 1096 c 0,76,77
 587 1003 587 1003 691 1003 c 0,78,79
 835 1003 835 1003 880 1217 c 16,80,81
 886 1244 886 1244 886 1265 c 0,82,83
 886 1355 886 1355 788 1355 c 0,72,73
406 0 m 1,84,-1
 1456 1510 l 1,85,-1
 1777 1510 l 1,86,-1
 727 0 l 1,87,-1
 406 0 l 1,84,-1
EndSplineSet
Validated: 1
EndChar

StartChar: minute
Encoding: 8242 8242 141
Width: 533
GlyphClass: 2
Flags: W
HStem: 1120 410
VStem: 258 580
LayerCount: 2
Fore
SplineSet
534 1530 m 1,0,-1
 838 1530 l 1,1,-1
 505 1120 l 1,2,-1
 258 1120 l 1,3,-1
 534 1530 l 1,0,-1
EndSplineSet
Validated: 1
EndChar

StartChar: second
Encoding: 8243 8243 142
Width: 937
GlyphClass: 2
Flags: W
HStem: 1120 410
LayerCount: 2
Fore
SplineSet
938 1530 m 1,0,-1
 1242 1530 l 1,1,-1
 909 1120 l 1,2,-1
 662 1120 l 1,3,-1
 938 1530 l 1,0,-1
534 1530 m 1,4,-1
 838 1530 l 1,5,-1
 505 1120 l 1,6,-1
 258 1120 l 1,7,-1
 534 1530 l 1,4,-1
EndSplineSet
Validated: 1
EndChar

StartChar: guilsinglleft
Encoding: 8249 8249 143
Width: 773
GlyphClass: 2
Flags: W
VStem: 244 678
DStem2: 283 859 538 770 0.759089 0.650987<135.63 536.3>
LayerCount: 2
Fore
SplineSet
922 1407 m 1,0,-1
 842 1031 l 1,1,-1
 538 770 l 1,2,-1
 734 522 l 1,3,-1
 651 131 l 1,4,-1
 244 678 l 1,5,-1
 283 859 l 1,6,-1
 922 1407 l 1,0,-1
EndSplineSet
Validated: 1
EndChar

StartChar: guilsinglright
Encoding: 8250 8250 144
Width: 773
GlyphClass: 2
Flags: W
VStem: 178 678
DStem2: 258 507 178 131 0.759089 0.650987<0 400.671>
LayerCount: 2
Fore
SplineSet
449 1407 m 1,0,-1
 856 860 l 1,1,-1
 817 679 l 1,2,-1
 178 131 l 1,3,-1
 258 507 l 1,4,-1
 562 768 l 1,5,-1
 366 1016 l 1,6,-1
 449 1407 l 1,0,-1
EndSplineSet
Validated: 1
EndChar

StartChar: fraction
Encoding: 8260 8260 145
Width: 1222
GlyphClass: 2
Flags: W
DStem2: -17 -126 237 -259 0.573288 0.819354<36.6409 2304.25>
LayerCount: 2
Fore
SplineSet
1304 1762 m 1,0,-1
 1558 1628 l 1,1,-1
 237 -259 l 1,2,-1
 -17 -126 l 1,3,-1
 1304 1762 l 1,0,-1
EndSplineSet
Validated: 1
EndChar

StartChar: Euro
Encoding: 8364 8364 146
Width: 1509
GlyphClass: 2
Flags: W
HStem: -20 184<624.628 937.022> 504 181<156 277 646 1058> 812 181<221 343 714 1125> 1346 184<903.341 1400.71>
VStem: 254 321<211.868 502.875> 1261 337<1111 1286.76>
LayerCount: 2
Fore
SplineSet
651 -20 m 0,0,1
 254 -20 254 -20 254 319 c 0,2,3
 254 392 254 392 272 480 c 2,4,-1
 277 504 l 1,5,-1
 117 504 l 1,6,-1
 156 685 l 1,7,-1
 316 685 l 1,8,-1
 343 812 l 1,9,-1
 183 812 l 1,10,-1
 221 993 l 1,11,-1
 384 993 l 1,12,13
 541 1530 541 1530 1198 1530 c 0,14,15
 1598 1530 1598 1530 1598 1184 c 0,16,17
 1598 1149 1598 1149 1594 1111 c 1,18,-1
 1247 1029 l 1,19,20
 1261 1095 1261 1095 1261 1147 c 0,21,22
 1261 1346 1261 1346 1057 1346 c 0,23,24
 812 1346 812 1346 714 993 c 1,25,-1
 1163 993 l 1,26,-1
 1125 812 l 1,27,-1
 673 812 l 1,28,-1
 646 685 l 1,29,-1
 1097 685 l 1,30,-1
 1058 504 l 1,31,-1
 607 504 l 1,32,-1
 582 384 l 2,33,34
 575 350 575 350 575 322 c 0,35,36
 575 164 575 164 792 164 c 0,37,38
 1026 164 1026 164 1133 509 c 1,39,-1
 1475 546 l 1,40,41
 1303 -20 1303 -20 651 -20 c 0,0,1
EndSplineSet
Validated: 1
EndChar

StartChar: afii61248
Encoding: 8453 8453 147
Width: 1903
GlyphClass: 2
Flags: W
HStem: -20 175<1272.5 1554.99> 0 21G<424 758.907> 661 175<1529.76 1805.5> 674 177<418.5 705.476> 1357 173<676.255 954.5> 1490 20G<1460.09 1795>
VStem: 298 265<853.17 1119.45> 424 321<0 321> 1152 264<158.17 422.984> 1474 321<1189 1510> 1662 264<393.016 658.458>
DStem2: 95.6802 -20 365.409 -20 0.207912 0.978148<997.302 1432.64> 424 0 745 0 0.570905 0.821016<183.261 1839.18> 1097.19 -20 1366.35 -20 0.207912 0.978148<285.694 723.135> 1529.39 -20 1798.82 -20 0.207912 0.978148<208.013 645.454>
LayerCount: 2
Fore
SplineSet
424 0 m 1,0,-1
 1474 1510 l 1,1,-1
 1795 1510 l 1,2,-1
 745 0 l 1,3,-1
 424 0 l 1,0,-1
1485 155 m 0,4,5
 1566 155 1566 155 1604 331 c 2,6,-1
 1660 593 l 2,7,8
 1662 602 1662 602 1662 612 c 0,9,10
 1662 661 1662 661 1605 661 c 0,11,12
 1512 661 1512 661 1474 485 c 2,13,-1
 1418 223 l 2,14,15
 1416 214 1416 214 1416 204 c 0,16,17
 1416 155 1416 155 1485 155 c 0,4,5
1393 -20 m 0,18,19
 1152 -20 1152 -20 1152 191 c 0,20,21
 1152 238 1152 238 1165 299 c 2,22,-1
 1205 487 l 2,23,24
 1279 836 1279 836 1685 836 c 0,25,26
 1926 836 1926 836 1926 625 c 0,27,28
 1926 577 1926 577 1913 517 c 2,29,-1
 1873 329 l 2,30,31
 1799 -20 1799 -20 1393 -20 c 0,18,19
831 1530 m 0,32,33
 1078 1530 1078 1530 1078 1308 c 0,34,35
 1078 1290 1078 1290 1076 1271 c 1,36,-1
 789 1200 l 1,37,38
 800 1250 800 1250 800 1284 c 0,39,40
 800 1357 800 1357 752 1357 c 0,41,42
 659 1357 659 1357 621 1181 c 2,43,-1
 565 919 l 2,44,45
 563 908 563 908 563 900 c 0,46,47
 563 851 563 851 632 851 c 0,48,49
 713 851 713 851 739 975 c 1,50,-1
 1020 1007 l 1,51,52
 949 674 949 674 539 674 c 0,53,54
 298 674 298 674 298 885 c 0,55,56
 298 933 298 933 311 993 c 2,57,-1
 351 1181 l 2,58,59
 425 1530 425 1530 831 1530 c 0,32,33
EndSplineSet
Validated: 1
EndChar

StartChar: afii61289
Encoding: 8467 8467 148
Width: 1227
GlyphClass: 2
Flags: W
HStem: 0 236<626 791.391> 1490 20G<1115.5 1207.5>
LayerCount: 2
Fore
SplineSet
680 0 m 0,0,1
 572 0 572 0 505 64 c 1,2,-1
 468 21 l 1,3,-1
 104 21 l 1,4,5
 302 184 302 184 432 338 c 1,6,7
 432 381 432 381 455.5 492.5 c 128,-1,8
 479 604 479 604 540 742 c 0,9,10
 743 1203 743 1203 949 1403 c 0,11,12
 1060 1510 1060 1510 1171 1510 c 0,13,14
 1244 1510 1244 1510 1296 1458 c 0,15,16
 1328 1426 1328 1426 1328 1357 c 0,17,18
 1328 1316 1328 1316 1316 1261 c 0,19,20
 1296 1169 1296 1169 1235 1025 c 0,21,22
 1097 704 1097 704 728 292 c 1,23,24
 728 236 728 236 739 236 c 0,25,26
 756 236 756 236 791 280 c 0,27,28
 812 306 812 306 833 339 c 1,29,-1
 1149 339 l 1,30,31
 1019 164 1019 164 904.5 82 c 128,-1,32
 790 0 790 0 680 0 c 0,0,1
EndSplineSet
Validated: 1
EndChar

StartChar: trademark
Encoding: 8482 8482 149
Width: 1911
GlyphClass: 2
Flags: W
HStem: 1336 174<434.297 589 859 1064>
VStem: 453 270<695 965> 1014 270<695 965> 1412 161<1026 1192.22> 1595 270<696.846 1063.67>
DStem2: 453 695 723 695 0.207912 0.978148<56.1362 655.269> 1014 695 1284 695 0.207912 0.978148<56.1362 661.731> 1560.43 695 1830.76 695 0.207912 0.978148<194.306 606.358>
LayerCount: 2
Fore
SplineSet
1573 1026 m 1,0,-1
 1412 1026 l 1,1,-1
 1418 1056 l 2,2,3
 1437 1152 1437 1152 1437 1209 c 0,4,5
 1437 1276 1437 1276 1410 1288 c 1,6,-1
 1284 695 l 1,7,-1
 1014 695 l 1,8,-1
 1146 1316 l 2,9,10
 1153 1348 1153 1348 1153 1377 c 0,11,12
 1153 1451 1153 1451 1109 1510 c 1,13,-1
 1347 1510 l 2,14,15
 1516 1510 1516 1510 1552 1322 c 1,16,17
 1657 1510 1657 1510 1819 1510 c 2,18,-1
 2004 1510 l 1,19,-1
 1872 889 l 2,20,21
 1865 857 1865 857 1865 828 c 0,22,23
 1865 754 1865 754 1909 695 c 1,24,-1
 1612 695 l 1,25,26
 1595 754 1595 754 1595 813 c 0,27,28
 1595 856 1595 856 1604 900 c 2,29,-1
 1687 1288 l 1,30,31
 1620 1259 1620 1259 1579 1056 c 2,32,-1
 1573 1026 l 1,0,-1
366 1250 m 1,33,-1
 409 1452 l 1,34,35
 507 1510 507 1510 656 1510 c 2,36,-1
 1101 1510 l 1,37,-1
 1064 1336 l 1,38,-1
 859 1336 l 1,39,-1
 723 695 l 1,40,-1
 453 695 l 1,41,-1
 589 1336 l 1,42,43
 480 1336 480 1336 366 1250 c 1,33,-1
EndSplineSet
Validated: 1
EndChar

StartChar: uni2126
Encoding: 8486 8486 150
Width: 1468
GlyphClass: 2
Flags: W
HStem: 0 183<254.493 436 1110 1313.12> 1346 184<877.849 1195.84>
VStem: 269 325<441.455 792.406> 1244 322<947.594 1298.47>
DStem2: 140.085 0 470.49 0 0.207912 0.978148<632.296 1219.27> 998.216 0 1327.64 0 0.207912 0.978148<629.531 1212.28>
LayerCount: 2
Fore
SplineSet
644 0 m 1,0,-1
 457 0 l 2,1,2
 267 0 267 0 124 64 c 1,3,-1
 171 289 l 1,4,5
 278 183 278 183 436 183 c 1,6,-1
 448 241 l 1,7,8
 269 290 269 290 269 524 c 0,9,10
 269 606 269 606 291 710 c 2,11,-1
 334 915 l 2,12,13
 463 1530 463 1530 1158 1530 c 0,14,15
 1566 1530 1566 1530 1566 1192 c 0,16,17
 1566 1119 1566 1119 1547 1030 c 2,18,-1
 1503 825 l 2,19,20
 1426 466 1426 466 1136 304 c 1,21,-1
 1110 183 l 1,22,23
 1285 183 1285 183 1420 293 c 1,24,-1
 1372 64 l 1,25,26
 1211 0 1211 0 1011 0 c 2,27,-1
 824 0 l 1,28,-1
 911 411 l 1,29,30
 1100 477 1100 477 1174 827 c 2,31,-1
 1237 1126 l 2,32,33
 1244 1160 1244 1160 1244 1188 c 0,34,35
 1244 1346 1244 1346 1027 1346 c 0,36,37
 755 1346 755 1346 664 913 c 2,38,-1
 601 614 l 2,39,40
 594 579 594 579 594 549 c 0,41,42
 594 423 594 423 729 401 c 1,43,-1
 644 0 l 1,0,-1
EndSplineSet
Validated: 1
EndChar

StartChar: estimated
Encoding: 8494 8494 151
Width: 1279
GlyphClass: 2
Flags: W
HStem: 0 193<505.017 872.272> 533 194<555 1031> 995 194<653.264 1022.69>
LayerCount: 2
Fore
SplineSet
638 0 m 0,0,1
 373 0 373 0 248 171 c 0,2,3
 161 290 161 290 161 452 c 0,4,5
 161 521 161 521 177 598 c 0,6,7
 232 855 232 855 431 1021 c 0,8,9
 633 1189 633 1189 888 1189 c 128,-1,10
 1143 1189 1143 1189 1266 1036 c 0,11,12
 1364 913 1364 913 1364 726 c 0,13,14
 1364 637 1364 637 1342 533 c 1,15,-1
 513 533 l 1,16,-1
 458 273 l 1,17,18
 541 193 541 193 679 193 c 0,19,20
 898 193 898 193 1064 391 c 1,21,-1
 1216 290 l 1,22,23
 1048 111 1048 111 910.5 55.5 c 128,-1,24
 773 0 773 0 638 0 c 0,0,1
1031 727 m 1,25,-1
 1071 918 l 1,26,27
 984 995 984 995 847 995 c 0,28,29
 708 995 708 995 595 917 c 1,30,-1
 555 727 l 1,31,-1
 1031 727 l 1,25,-1
EndSplineSet
Validated: 1
EndChar

StartChar: partialdiff
Encoding: 8706 8706 152
Width: 1305
GlyphClass: 2
Flags: W
HStem: -20 273<509.666 720.08> 822 261<737.302 981.967> 1257 273<771.982 1076.26>
VStem: 173 317<264.322 520.745> 1118 312<1024.79 1215.93>
LayerCount: 2
Fore
SplineSet
518 -20 m 0,0,1
 248 -20 248 -20 189 171 c 0,2,3
 173 223 173 223 173 285 c 0,4,5
 173 345 173 345 188 416 c 0,6,7
 243 673 243 673 440.5 878 c 128,-1,8
 638 1083 638 1083 910 1083 c 0,9,10
 1029 1083 1029 1083 1114 1024 c 1,11,12
 1118 1060 1118 1060 1118 1089 c 0,13,14
 1118 1144 1118 1144 1104 1173 c 0,15,16
 1066 1257 1066 1257 943 1257 c 0,17,18
 788 1257 788 1257 611 1132 c 1,19,-1
 677 1443 l 1,20,21
 841 1530 841 1530 1038 1530 c 0,22,23
 1355 1530 1355 1530 1416 1271 c 0,24,25
 1430 1213 1430 1213 1430 1145 c 0,26,27
 1430 1057 1430 1057 1407 950 c 0,28,29
 1325 563 1325 563 1080 272 c 0,30,31
 837 -20 837 -20 518 -20 c 0,0,1
1018 699 m 1,32,33
 1009 756 1009 756 972 788 c 0,34,35
 933 822 933 822 880 822 c 0,36,37
 755 822 755 822 650 706 c 0,38,39
 531 572 531 572 501 432 c 0,40,41
 490 381 490 381 490 346 c 0,42,43
 490 283 490 283 524 266 c 0,44,45
 552 253 552 253 589 253 c 0,46,47
 696 253 696 253 817 376 c 128,-1,48
 938 499 938 499 1018 699 c 1,32,33
EndSplineSet
Validated: 1
EndChar

StartChar: uni2206
Encoding: 8710 8710 153
Width: 1384
GlyphClass: 2
Flags: W
HStem: 0 177<330 1046> 1490 20G<853.675 1162.83>
DStem2: 10 0 330 177 0.492722 0.870187<311.694 1495.01> 1160 1510 909 1209 0.14032 -0.990106<262.802 1303.82>
LayerCount: 2
Fore
SplineSet
10 0 m 1,0,-1
 865 1510 l 1,1,-1
 1160 1510 l 1,2,-1
 1374 0 l 1,3,-1
 10 0 l 1,0,-1
909 1209 m 1,4,-1
 330 177 l 1,5,-1
 1046 177 l 1,6,-1
 909 1209 l 1,4,-1
EndSplineSet
Validated: 1
EndChar

StartChar: product
Encoding: 8719 8719 154
Width: 1426
GlyphClass: 2
Flags: W
HStem: -410 20G<63 387.247 869 1193.25> 1323 187<751 1237>
VStem: 63 320<-410 -90> 471 1126<384 1510> 869 320<-411 -91>
DStem2: 62.7874 -411 382.787 -411 0.207912 0.978148<67.5541 1839.2> 869 -411 1189 -411 0.207912 0.978148<66.5317 1772.62>
LayerCount: 2
Fore
SplineSet
471 1510 m 1,0,-1
 1597 1510 l 1,1,-1
 1189 -411 l 1,2,-1
 869 -411 l 1,3,-1
 1237 1323 l 1,4,-1
 751 1323 l 1,5,-1
 383 -410 l 1,6,-1
 63 -410 l 1,7,-1
 471 1510 l 1,0,-1
EndSplineSet
Validated: 1
EndChar

StartChar: summation
Encoding: 8721 8721 155
Width: 1450
GlyphClass: 2
Flags: W
HStem: -410 187<548 1172.23> 1323 187<839 1543>
DStem2: 14 -410 548 -223 0.635459 0.772134<483.724 1273.09> 839 1323 421 1510 0.394274 -0.918993<0 682.936>
LayerCount: 2
Fore
SplineSet
1173 543 m 1,0,-1
 548 -223 l 1,1,-1
 946 -223 l 2,2,3
 1126 -223 1126 -223 1328 -105 c 1,4,-1
 1277 -344 l 1,5,6
 1105 -410 1105 -410 903 -410 c 2,7,-1
 14 -410 l 1,8,-1
 823 573 l 1,9,-1
 421 1510 l 1,10,-1
 1583 1510 l 1,11,-1
 1543 1323 l 1,12,-1
 839 1323 l 1,13,-1
 1173 543 l 1,0,-1
EndSplineSet
Validated: 1
EndChar

StartChar: minus
Encoding: 8722 8722 156
Width: 1184
GlyphClass: 2
Flags: W
HStem: 642 251<290 1220>
LayerCount: 2
Fore
SplineSet
290 893 m 1,0,-1
 1274 893 l 1,1,-1
 1220 642 l 1,2,-1
 236 642 l 1,3,-1
 290 893 l 1,0,-1
EndSplineSet
Validated: 1
EndChar

StartChar: uni2215
Encoding: 8725 8725 157
Width: 1222
GlyphClass: 2
Flags: W
DStem2: -17 -126 237 -259 0.573288 0.819354<36.6409 2304.25>
LayerCount: 2
Fore
SplineSet
1304 1762 m 1,0,-1
 1558 1628 l 1,1,-1
 237 -259 l 1,2,-1
 -17 -126 l 1,3,-1
 1304 1762 l 1,0,-1
EndSplineSet
Validated: 1
EndChar

StartChar: uni2219
Encoding: 8729 8729 158
Width: 400
GlyphClass: 2
Flags: W
HStem: 575 377<248.04 475.96>
VStem: 169 386<656.281 870.719>
LayerCount: 2
Fore
SplineSet
402 952 m 0,0,1
 555 952 555 952 555 824 c 24,2,3
 555 575 555 575 322 575 c 0,4,5
 169 575 169 575 169 703 c 24,6,7
 169 951 169 951 402 952 c 0,0,1
EndSplineSet
Validated: 1
EndChar

StartChar: radical
Encoding: 8730 8730 159
Width: 1291
GlyphClass: 2
Flags: W
HStem: 0 21G<430.916 726.593> 642 166<222 335> 1353 157<1366 1529>
DStem2: 655 392 717 0 0.432493 0.901637<0 1173.98>
LayerCount: 2
Fore
SplineSet
434 0 m 1,0,-1
 335 642 l 1,1,-1
 186 642 l 1,2,-1
 222 808 l 1,3,-1
 596 808 l 1,4,-1
 655 392 l 1,5,-1
 1192 1510 l 1,6,-1
 1562 1510 l 1,7,-1
 1529 1353 l 1,8,-1
 1366 1353 l 1,9,-1
 717 0 l 1,10,-1
 434 0 l 1,0,-1
EndSplineSet
Validated: 1
EndChar

StartChar: infinity
Encoding: 8734 8734 160
Width: 1492
GlyphClass: 2
Flags: W
HStem: 379 199<473.675 735.36 1021.79 1283.89> 934 199<530.551 793.852 1079.51 1341.59>
VStem: 253 197<602.395 849.933> 816 182<663.43 848.57> 1364 197<663.767 909.509>
CounterMasks: 1 38
LayerCount: 2
Fore
SplineSet
671 934 m 0,0,1
 495 934 495 934 457 756 c 0,2,3
 450 724 450 724 450 698 c 0,4,5
 450 578 450 578 595 578 c 0,6,7
 771 578 771 578 809 756 c 0,8,9
 816 788 816 788 816 814 c 0,10,11
 816 934 816 934 671 934 c 0,0,1
1261 1133 m 0,12,13
 1433 1133 1433 1133 1514 1014 c 0,14,15
 1561 945 1561 945 1561 844 c 0,16,17
 1561 785 1561 785 1545 716 c 0,18,19
 1465 379 1465 379 1101 379 c 0,20,21
 946 379 946 379 859 480 c 1,22,23
 734 379 734 379 553 379 c 0,24,25
 407 379 407 379 316 486 c 0,26,27
 253 559 253 559 253 672 c 0,28,29
 253 730 253 730 270 800 c 0,30,31
 351 1133 351 1133 713 1133 c 0,32,33
 857 1133 857 1133 948 1027 c 1,34,35
 1078 1133 1078 1133 1261 1133 c 0,12,13
1005 756 m 0,36,37
 998 724 998 724 998 698 c 0,38,39
 998 578 998 578 1143 578 c 0,40,41
 1319 578 1319 578 1357 756 c 0,42,43
 1364 788 1364 788 1364 814 c 0,44,45
 1364 934 1364 934 1219 934 c 0,46,47
 1043 934 1043 934 1005 756 c 0,36,37
EndSplineSet
Validated: 1
EndChar

StartChar: approxequal
Encoding: 8776 8776 161
Width: 1228
GlyphClass: 2
Flags: W
HStem: 349 209<824.619 1079> 558 207<382 623.111> 830 209<926.619 1181> 1039 207<484 725.111>
LayerCount: 2
Fore
SplineSet
501 765 m 24,0,1
 734 765 734 765 823 605 c 0,2,3
 849 558 849 558 876 558 c 0,4,5
 927 558 927 558 975 786 c 1,6,-1
 1276 696 l 1,7,8
 1202 349 1202 349 956 349 c 24,9,10
 695 349 695 349 629 506 c 0,11,12
 607 558 607 558 583 558 c 0,13,14
 539 558 539 558 490 328 c 1,15,-1
 189 418 l 1,16,17
 263 765 263 765 501 765 c 24,0,1
603 1246 m 24,18,19
 836 1246 836 1246 925 1086 c 0,20,21
 951 1039 951 1039 978 1039 c 0,22,23
 1029 1039 1029 1039 1077 1267 c 1,24,-1
 1378 1177 l 1,25,26
 1304 830 1304 830 1058 830 c 24,27,28
 797 830 797 830 731 987 c 0,29,30
 709 1039 709 1039 685 1039 c 0,31,32
 641 1039 641 1039 592 809 c 1,33,-1
 291 899 l 1,34,35
 365 1246 365 1246 603 1246 c 24,18,19
EndSplineSet
Validated: 1
EndChar

StartChar: notequal
Encoding: 8800 8800 162
Width: 1203
GlyphClass: 2
Flags: W
HStem: 0 21G<164 353.476> 420 251<243 447 794 1192> 868 251<338 749 1096 1287> 1490 20G<1169.5 1361>
VStem: 164 176<0 176> 1183 178<1332 1510>
DStem2: 164 0 340 0 0.560132 0.828403<98.5833 506.447 908.742 1046.73 1449.03 1821.66>
LayerCount: 2
Fore
SplineSet
164 0 m 1,0,-1
 447 420 l 1,1,-1
 189 420 l 1,2,-1
 243 671 l 1,3,-1
 617 671 l 1,4,-1
 749 868 l 1,5,-1
 284 868 l 1,6,-1
 338 1119 l 1,7,-1
 919 1119 l 1,8,-1
 1183 1510 l 1,9,-1
 1361 1510 l 1,10,-1
 1096 1119 l 1,11,-1
 1341 1119 l 1,12,-1
 1287 868 l 1,13,-1
 926 868 l 1,14,-1
 794 671 l 1,15,-1
 1246 671 l 1,16,-1
 1192 420 l 1,17,-1
 623 420 l 1,18,-1
 340 0 l 1,19,-1
 164 0 l 1,0,-1
EndSplineSet
Validated: 1
EndChar

StartChar: lessequal
Encoding: 8804 8804 163
Width: 1156
GlyphClass: 2
Flags: W
HStem: 0 251<203 1006> 1491 20G<1290.19 1322.72>
DStem2: 693 902 319 796 0.816542 -0.577286<0 532.126>
LayerCount: 2
Fore
SplineSet
1327 1511 m 1,0,-1
 1259 1193 l 1,1,-1
 693 902 l 1,2,-1
 1134 604 l 1,3,-1
 1063 270 l 1,4,-1
 319 796 l 1,5,-1
 359 985 l 1,6,-1
 1327 1511 l 1,0,-1
150 0 m 1,7,-1
 203 251 l 1,8,-1
 1059 251 l 1,9,-1
 1006 0 l 1,10,-1
 150 0 l 1,7,-1
EndSplineSet
Validated: 1
EndChar

StartChar: greaterequal
Encoding: 8805 8805 164
Width: 1156
GlyphClass: 2
Flags: W
HStem: 0 251<203 1006> 1491 20G<466.689 499.289>
DStem2: 274 588 207 270 0.878658 0.477452<0 637.138> 471 1511 399 1177 0.816542 -0.577286<134.023 666.965>
LayerCount: 2
Fore
SplineSet
471 1511 m 1,0,-1
 1215 985 l 1,1,-1
 1175 796 l 1,2,-1
 207 270 l 1,3,-1
 274 588 l 1,4,-1
 841 879 l 1,5,-1
 399 1177 l 1,6,-1
 471 1511 l 1,0,-1
150 0 m 1,7,-1
 203 251 l 1,8,-1
 1059 251 l 1,9,-1
 1006 0 l 1,10,-1
 150 0 l 1,7,-1
EndSplineSet
Validated: 1
EndChar

StartChar: lozenge
Encoding: 9674 9674 165
Width: 1259
GlyphClass: 2
Flags: W
HStem: 0 21G<618.106 648.379> 1491 20G<932.268 961.286>
DStem2: 227 738 540 751 0.683596 0.729861<223.454 680.231> 540 751 227 738 0.478352 -0.878168<0 386.672> 726 412 629 0 0.695873 0.718165<0 446.252> 951 1511 858 1079 0.457348 -0.889288<341.639 730.74>
LayerCount: 2
Fore
SplineSet
726 412 m 1,0,-1
 1036 733 l 1,1,-1
 858 1079 l 1,2,-1
 540 751 l 1,3,-1
 726 412 l 1,0,-1
629 0 m 1,4,-1
 227 738 l 1,5,-1
 951 1511 l 1,6,-1
 1347 741 l 1,7,-1
 629 0 l 1,4,-1
EndSplineSet
Validated: 1
EndChar

StartChar: s
Encoding: 115 115 167
Width: 1128
Flags: W
HStem: -20 176<284 716.816> 511 181<581.251 791.273> 944 176<630.166 1029.5>
VStem: 260 315<704.992 884.957> 810 313<259.164 488.793> 855 319<812.51 927.873>
LayerCount: 2
Fore
SplineSet
455 -20 m 0,0,1
 113 -20 113 -20 113 220 c 0,2,3
 113 236 113 236 114 253 c 9,4,-1
 440 329 l 1,5,6
 434 300 434 300 434 276 c 0,7,8
 434 156 434 156 586 156 c 0,9,10
 761 156 761 156 805 364 c 0,11,12
 810 387 810 387 810 406 c 0,13,14
 810 511 810 511 665 511 c 0,15,16
 260 511 260 511 260 731 c 0,17,18
 260 765 260 765 270 805 c 0,19,20
 316 988 316 988 542 1070 c 0,21,22
 681 1120 681 1120 885 1120 c 0,23,24
 1174 1120 1174 1120 1174 859 c 0,25,26
 1174 839 1174 839 1172 817 c 1,27,-1
 845 740 l 1,28,29
 855 787 855 787 855 824 c 0,30,31
 855 944 855 944 746 944 c 0,32,33
 609 944 609 944 577 785 c 0,34,35
 575 774 575 774 575 765 c 0,36,37
 575 692 575 692 705 692 c 0,38,39
 1123 692 1123 692 1123 435 c 0,40,41
 1123 386 1123 386 1108 329 c 0,42,43
 1057 134 1057 134 835 42 c 0,44,45
 683 -20 683 -20 455 -20 c 0,0,1
EndSplineSet
Validated: 1
EndChar

StartChar: M
Encoding: 77 77 168
Width: 1714
Flags: W
HStem: 0 21G<150 474.245 1299 1654> 1490 20G<381 880 1414 1885>
VStem: 150 320<0 320> 869 188<984 1176.11> 1291 326<2.40869 425.039>
DStem2: 150 0 470 0 0.207912 0.978148<66.5317 1352.95> 1243.62 0 1563.62 0 0.207912 0.978148<264.397 1298.46>
LayerCount: 2
Fore
SplineSet
150 0 m 1,0,-1
 404 1193 l 2,1,2
 419 1264 419 1264 419 1328 c 0,3,4
 419 1429 419 1429 381 1510 c 1,5,-1
 703 1510 l 2,6,7
 1057 1510 1057 1510 1057 1041 c 0,8,9
 1057 1013 1057 1013 1056 984 c 1,10,-1
 1066 984 l 1,11,12
 1203 1510 1203 1510 1625 1510 c 2,13,-1
 1885 1510 l 1,14,-1
 1631 317 l 2,15,16
 1617 251 1617 251 1617 189 c 0,17,18
 1617 89 1617 89 1654 0 c 1,19,-1
 1307 0 l 1,20,21
 1291 65 1291 65 1291 139 c 0,22,23
 1291 222 1291 222 1311 317 c 2,24,-1
 1514 1270 l 1,25,26
 1261 1147 1261 1147 1152 637 c 1,27,-1
 832 637 l 1,28,29
 869 813 869 813 869 943 c 0,30,31
 869 1209 869 1209 735 1269 c 1,32,33
 731 1229 731 1229 723 1192 c 2,34,-1
 470 0 l 1,35,-1
 150 0 l 1,0,-1
EndSplineSet
Validated: 1
EndChar

StartChar: N
Encoding: 78 78 169
Width: 1426
Flags: W
HStem: 0 21G<150 474.245 965 1279.26> 1274 236<730.41 891.25>
VStem: 150 320<0 320> 1286 311<1199 1510>
DStem2: 150 0 470 0 0.207912 0.978148<66.5317 1358.99> 965 0 1275 0 0.207912 0.978148<64.4526 638.966 1127.55 1543.74>
LayerCount: 2
Fore
SplineSet
150 0 m 1,0,-1
 404 1193 l 2,1,2
 420 1269 420 1269 420 1334 c 0,3,4
 420 1435 420 1435 381 1510 c 1,5,-1
 681 1510 l 2,6,7
 1157 1510 1157 1510 1189 1103 c 1,8,-1
 1199 1103 l 1,9,-1
 1286 1510 l 1,10,-1
 1597 1510 l 1,11,-1
 1275 0 l 1,12,-1
 965 0 l 1,13,14
 1060 448 1060 448 1060 738 c 0,15,16
 1060 1274 1060 1274 736 1274 c 1,17,18
 733 1237 733 1237 723 1192 c 2,19,-1
 470 0 l 1,20,-1
 150 0 l 1,0,-1
EndSplineSet
Validated: 1
EndChar

StartChar: W
Encoding: 87 87 170
Width: 1916
Flags: W
HStem: -20 212<363.5 687.131> -20 172<1036.5 1408.26> 1080 20G<1047.64 1372> 1490 20G<381 735.5 1782.74 2107>
VStem: 217 318<193.556 511.367> 419 325<1078.25 1507.82> 1787 320<1190 1510>
DStem2: 145.364 -20 465.866 -20 0.207912 0.978148<366.725 1379.28> 813.405 -20 1133.93 -20 0.207912 0.978148<514.141 1145.13> 1461.5 -20 1781.28 -20 0.207912 0.978148<397.077 1564.24>
LayerCount: 2
Fore
SplineSet
510 -20 m 0,0,1
 217 -20 217 -20 217 250 c 0,2,3
 217 316 217 316 234 397 c 2,4,-1
 403 1192 l 2,5,6
 419 1268 419 1268 419 1334 c 0,7,8
 419 1435 419 1435 381 1510 c 1,9,-1
 727 1510 l 1,10,11
 744 1446 744 1446 744 1371 c 0,12,13
 744 1289 744 1289 724 1194 c 2,14,-1
 546 357 l 2,15,16
 535 306 535 306 535 271 c 0,17,18
 535 192 535 192 590 192 c 8,19,20
 854 192 854 192 1030 999 c 2,21,-1
 1052 1100 l 1,22,-1
 1372 1100 l 1,23,-1
 1213 352 l 2,24,25
 1202 299 1202 299 1202 260 c 0,26,27
 1202 152 1202 152 1289 152 c 8,28,29
 1498 152 1498 152 1585 561 c 2,30,-1
 1787 1510 l 1,31,-1
 2107 1510 l 1,32,-1
 1912 595 l 2,33,34
 1781 -19 1781 -19 1178 -20 c 0,35,36
 895 -20 895 -20 895 246 c 1,37,38
 748 -20 748 -20 510 -20 c 0,0,1
EndSplineSet
Validated: 1
EndChar

StartChar: A
Encoding: 65 65 171
Width: 1406
Flags: W
HStem: 0 21G<130 454.24 991 1346> 684 188<635 1081> 1347 183<840.748 1135.31>
VStem: 130 320<0 320> 983 327<2.36218 429.516> 1183 311<952.352 1301.27>
DStem2: 130 0 450 0 0.207912 0.978148<66.5317 765.732 957.94 1229.65> 936.257 0 1256.41 0 0.207912 0.978148<263.525 699.147 891.355 1215.39>
LayerCount: 2
Fore
SplineSet
979 1347 m 8,0,1
 736 1347 736 1347 644 915 c 2,2,-1
 635 872 l 1,3,-1
 1121 872 l 1,4,-1
 1176 1127 l 2,5,6
 1183 1162 1183 1162 1183 1191 c 0,7,8
 1183 1347 1183 1347 979 1347 c 8,0,1
130 0 m 1,9,-1
 324 915 l 2,10,11
 454 1530 454 1530 1096 1530 c 0,12,13
 1494 1530 1494 1530 1494 1194 c 0,14,15
 1494 1121 1494 1121 1475 1031 c 2,16,-1
 1324 318 l 2,17,18
 1310 251 1310 251 1310 188 c 0,19,20
 1310 88 1310 88 1346 0 c 1,21,-1
 999 0 l 1,22,23
 983 63 983 63 983 137 c 0,24,25
 983 219 983 219 1003 314 c 2,26,-1
 1081 684 l 1,27,-1
 595 684 l 1,28,-1
 450 0 l 1,29,-1
 130 0 l 1,9,-1
EndSplineSet
Validated: 1
EndChar

StartChar: onequarter
Encoding: 188 188 172
Width: 1828
Flags: W
HStem: 0 21G<245 579.907 1408 1682.25> 1335 175<421 500>
VStem: 245 321<0 321> 353 270<634 904> 1234 270<606 876> 1295 321<1189 1510> 1554 270<417 687>
DStem2: 218.239 0 488.239 0 0.207912 0.978148<704.3 1363.94> 245 0 566 0 0.570905 0.821016<183.261 1839.18> 1047.79 0 1317.8 0 0.207912 0.978148<446.673 895.573> 1408 0 1678 0 0.207912 0.978148<56.1362 212.603 390.493 702.343>
LayerCount: 2
Fore
SplineSet
245 0 m 1,0,-1
 1295 1510 l 1,1,-1
 1616 1510 l 1,2,-1
 566 0 l 1,3,-1
 245 0 l 1,0,-1
421 1510 m 1,4,-1
 758 1510 l 1,5,6
 776 1461 776 1461 776 1403 c 0,7,8
 776 1357 776 1357 765 1305 c 2,9,-1
 623 634 l 1,10,-1
 353 634 l 1,11,-1
 495 1304 l 2,12,13
 498 1320 498 1320 500 1335 c 1,14,-1
 384 1335 l 1,15,-1
 421 1510 l 1,4,-1
1678 0 m 1,16,-1
 1408 0 l 1,17,-1
 1452 208 l 1,18,-1
 1092 208 l 1,19,-1
 1234 876 l 1,20,-1
 1504 876 l 1,21,-1
 1399 382 l 1,22,-1
 1489 382 l 1,23,-1
 1554 687 l 1,24,-1
 1824 687 l 1,25,-1
 1678 0 l 1,16,-1
EndSplineSet
Validated: 1
EndChar

StartChar: onehalf
Encoding: 189 189 173
Width: 1786
Flags: W
HStem: 0 174<1283 1600.92> 325 175<1321.63 1462.25> 702 174<1243.91 1501.6> 1335 175<421 500>
VStem: 245 321<0 321> 353 270<634 904> 1295 321<1189 1510> 1502 270<536.217 700.045>
DStem2: 218.239 0 488.239 0 0.207912 0.978148<704.3 1363.94> 245 0 566 0 0.570905 0.821016<183.261 1839.18>
LayerCount: 2
Fore
SplineSet
971 0 m 1,0,1
 1077 500 1077 500 1376 500 c 0,2,3
 1472 500 1472 500 1499 627 c 16,4,5
 1502 640 1502 640 1502 650 c 0,6,7
 1502 702 1502 702 1437 702 c 2,8,-1
 1420 702 l 2,9,10
 1299 702 1299 702 1166 614 c 1,11,-1
 1212 832 l 1,12,13
 1358 876 1358 876 1472 876 c 2,14,-1
 1524 876 l 2,15,16
 1672 876 1672 876 1735 785 c 0,17,18
 1772 731 1772 731 1772 662 c 0,19,20
 1772 615 1772 615 1755 562 c 0,21,22
 1718 443 1718 443 1599 376 c 0,23,24
 1507 325 1507 325 1369 325 c 0,25,26
 1315 325 1315 325 1283 174 c 1,27,-1
 1428 174 l 2,28,29
 1565 174 1565 174 1686 276 c 1,30,-1
 1638 49 l 1,31,32
 1525 0 1525 0 1391 0 c 2,33,-1
 971 0 l 1,0,1
245 0 m 1,34,-1
 1295 1510 l 1,35,-1
 1616 1510 l 1,36,-1
 566 0 l 1,37,-1
 245 0 l 1,34,-1
421 1510 m 1,38,-1
 758 1510 l 1,39,40
 776 1461 776 1461 776 1403 c 0,41,42
 776 1357 776 1357 765 1305 c 2,43,-1
 623 634 l 1,44,-1
 353 634 l 1,45,-1
 495 1304 l 2,46,47
 498 1320 498 1320 500 1335 c 1,48,-1
 384 1335 l 1,49,-1
 421 1510 l 1,38,-1
EndSplineSet
Validated: 1
EndChar

StartChar: threequarters
Encoding: 190 190 174
Width: 2052
Flags: W
HStem: 0 21G<468 802.907 1632 1906.25> 635 179<413 699.068> 1027 175<552 735.033> 1336 174<548.719 767.99>
VStem: 468 321<0 321> 741 271<854.371 1023.74> 768 270<1237.68 1365.5> 1458 270<606 876> 1518 321<1189 1510> 1778 270<417 687>
DStem2: 468 0 789 0 0.570905 0.821016<183.261 1839.18> 1271.79 0 1541.8 0 0.207912 0.978148<446.673 895.573> 1632 0 1902 0 0.207912 0.978148<56.1362 212.603 390.493 702.343>
LayerCount: 2
Fore
SplineSet
776 1510 m 2,0,-1
 790 1510 l 2,1,2
 940 1510 940 1510 1003 1434 c 0,3,4
 1038 1392 1038 1392 1038 1339 c 0,5,6
 1038 1307 1038 1307 1025 1270 c 0,7,8
 999 1196 999 1196 914 1159 c 1,9,10
 1012 1108 1012 1108 1012 1001 c 0,11,12
 1012 960 1012 960 998 911 c 0,13,14
 958 775 958 775 826 699 c 0,15,16
 713 635 713 635 536 635 c 0,17,18
 290 635 290 635 290 863 c 0,19,20
 290 881 290 881 292 901 c 1,21,-1
 578 975 l 1,22,23
 568 929 568 929 568 896 c 0,24,25
 569 814 569 814 627 814 c 0,26,27
 709 814 709 814 739 964 c 16,28,29
 741 973 741 973 741 981 c 0,30,31
 741 1027 741 1027 675 1027 c 2,32,-1
 515 1027 l 1,33,-1
 552 1202 l 1,34,35
 747 1202 747 1202 767 1299 c 16,36,37
 768 1304 768 1304 768 1309 c 0,38,39
 768 1336 768 1336 728 1336 c 2,40,-1
 724 1336 l 2,41,42
 614 1336 614 1336 470 1249 c 1,43,-1
 516 1466 l 1,44,45
 647 1510 647 1510 776 1510 c 2,0,-1
468 0 m 1,46,-1
 1518 1510 l 1,47,-1
 1839 1510 l 1,48,-1
 789 0 l 1,49,-1
 468 0 l 1,46,-1
1902 0 m 1,50,-1
 1632 0 l 1,51,-1
 1676 208 l 1,52,-1
 1316 208 l 1,53,-1
 1458 876 l 1,54,-1
 1728 876 l 1,55,-1
 1623 382 l 1,56,-1
 1713 382 l 1,57,-1
 1778 687 l 1,58,-1
 2048 687 l 1,59,-1
 1902 0 l 1,50,-1
EndSplineSet
Validated: 1
EndChar

StartChar: AE
Encoding: 198 198 175
Width: 1917
Flags: W
HStem: 0 187<1296 1807.9> 667 188<632 1078 1438 1880> 1323 187<1477 2019> 1347 183<840.748 1138.11>
VStem: 130 320<0 320> 1183 312<952 1302.97>
DStem2: 130 0 450 0 0.207912 0.978148<66.5317 748.48 940.688 1229.65> 936 0 1256.25 0 0.207912 0.978148<257.762 681.948 940.688 1215.44>
LayerCount: 2
Fore
SplineSet
130 0 m 1,0,-1
 324 915 l 2,1,2
 454 1530 454 1530 1096 1530 c 0,3,4
 1187 1530 1187 1530 1267 1510 c 1,5,-1
 2059 1510 l 1,6,-1
 2019 1323 l 1,7,-1
 1477 1323 l 1,8,9
 1495 1266 1495 1266 1495 1194 c 0,10,11
 1495 1120 1495 1120 1476 1031 c 2,12,-1
 1438 855 l 1,13,-1
 1920 855 l 1,14,-1
 1880 667 l 1,15,-1
 1398 667 l 1,16,-1
 1296 187 l 1,17,-1
 1567 187 l 2,18,19
 1763 187 1763 187 1951 302 c 1,20,-1
 1901 66 l 1,21,22
 1730 0 1730 0 1527 0 c 2,23,-1
 936 0 l 1,24,-1
 1078 667 l 1,25,-1
 592 667 l 1,26,-1
 450 0 l 1,27,-1
 130 0 l 1,0,-1
979 1347 m 0,28,29
 736 1347 736 1347 644 915 c 2,30,-1
 632 855 l 1,31,-1
 1118 855 l 1,32,-1
 1176 1127 l 2,33,34
 1183 1162 1183 1162 1183 1191 c 0,35,36
 1183 1347 1183 1347 979 1347 c 0,28,29
EndSplineSet
Validated: 1
EndChar

StartChar: germandbls
Encoding: 223 223 176
Width: 1277
Flags: W
HStem: 0 167<614 785.024> 746 165<773 882.004> 1366 164<831.89 1028.28>
VStem: 150 300<0 300> 985 312<406.773 686.267> 1041 299<1098.09 1355.09>
DStem2: 150 0 450 0 0.207912 0.978148<62.3735 1249.15>
LayerCount: 2
Fore
SplineSet
150 0 m 1,0,-1
 345 917 l 2,1,2
 475 1530 475 1530 1006 1530 c 0,3,4
 1219 1530 1219 1530 1301 1406 c 0,5,6
 1340 1347 1340 1347 1340 1270 c 0,7,8
 1340 1227 1340 1227 1328 1179 c 0,9,10
 1283 999 1283 999 1036 882 c 1,11,12
 1297 825 1297 825 1297 603 c 0,13,14
 1297 535 1297 535 1273 452 c 0,15,16
 1215 254 1215 254 1040 127 c 0,17,18
 864 0 864 0 579 0 c 1,19,-1
 614 167 l 1,20,21
 902 167 902 167 980 535 c 16,22,23
 985 561 985 561 985 583 c 0,24,25
 985 735 985 735 738 746 c 1,26,-1
 773 911 l 1,27,28
 979 949 979 949 1034 1206 c 16,29,30
 1041 1241 1041 1241 1041 1268 c 0,31,32
 1041 1366 1041 1366 947 1366 c 0,33,34
 740 1366 740 1366 644 914 c 2,35,-1
 450 0 l 1,36,-1
 150 0 l 1,0,-1
EndSplineSet
Validated: 1
EndChar

StartChar: Eth
Encoding: 208 208 177
Width: 1408
Flags: W
HStem: 0 187<510 889.27> 665 168<217 291 647 860> 1323 187<739 1158.49>
VStem: 419 320<1059.78 1323> 1210 322<930.234 1273.57>
DStem2: 150 0 470.252 0 0.207912 0.978148<257.762 679.784 918.129 1348.12> 968.065 0 1298.28 0 0.207912 0.978148<413.576 1190.94>
LayerCount: 2
Fore
SplineSet
896 833 m 1,0,-1
 860 665 l 1,1,-1
 611 665 l 1,2,-1
 510 187 l 1,3,-1
 738 187 l 2,4,5
 1008 187 1008 187 1099 616 c 2,6,-1
 1203 1106 l 2,7,8
 1210 1139 1210 1139 1210 1167 c 0,9,10
 1210 1323 1210 1323 991 1323 c 2,11,-1
 739 1323 l 1,12,13
 737 1258 737 1258 722 1187 c 2,14,-1
 647 833 l 1,15,-1
 896 833 l 1,0,-1
150 0 m 1,16,-1
 291 665 l 1,17,-1
 181 665 l 1,18,-1
 217 833 l 1,19,-1
 327 833 l 1,20,-1
 404 1193 l 2,21,22
 419 1261 419 1261 419 1323 c 0,23,24
 419 1423 419 1423 381 1510 c 1,25,-1
 1134 1510 l 2,26,27
 1532 1510 1532 1510 1532 1174 c 0,28,29
 1532 1101 1532 1101 1513 1011 c 2,30,-1
 1429 615 l 2,31,32
 1299 0 1299 0 621 0 c 2,33,-1
 150 0 l 1,16,-1
EndSplineSet
Validated: 1
EndChar

StartChar: Dcroat
Encoding: 272 272 178
Width: 1408
Flags: W
HStem: 0 187<510 889.27> 665 168<217 291 647 860> 1323 187<739 1158.49>
VStem: 419 320<1059.78 1323> 1210 322<930.234 1273.57>
DStem2: 150 0 470.252 0 0.207912 0.978148<257.762 679.784 918.129 1348.12> 968.065 0 1298.28 0 0.207912 0.978148<413.576 1190.94>
LayerCount: 2
Fore
SplineSet
896 833 m 1,0,-1
 860 665 l 1,1,-1
 611 665 l 1,2,-1
 510 187 l 1,3,-1
 738 187 l 2,4,5
 1008 187 1008 187 1099 616 c 2,6,-1
 1203 1106 l 2,7,8
 1210 1139 1210 1139 1210 1167 c 0,9,10
 1210 1323 1210 1323 991 1323 c 2,11,-1
 739 1323 l 1,12,13
 737 1258 737 1258 722 1187 c 2,14,-1
 647 833 l 1,15,-1
 896 833 l 1,0,-1
150 0 m 1,16,-1
 291 665 l 1,17,-1
 181 665 l 1,18,-1
 217 833 l 1,19,-1
 327 833 l 1,20,-1
 404 1193 l 2,21,22
 419 1261 419 1261 419 1323 c 0,23,24
 419 1423 419 1423 381 1510 c 1,25,-1
 1134 1510 l 2,26,27
 1532 1510 1532 1510 1532 1174 c 0,28,29
 1532 1101 1532 1101 1513 1011 c 2,30,-1
 1429 615 l 2,31,32
 1299 0 1299 0 621 0 c 2,33,-1
 150 0 l 1,16,-1
EndSplineSet
Validated: 1
EndChar

StartChar: Hbar
Encoding: 294 294 179
Width: 1426
Flags: W
HStem: 0 21G<150 474.241 1011.5 1366> 665 188<651 1097> 1178 168<326 400 743 1206 1562 1636> 1490 20G<381 735 1272.73 1597>
VStem: 150 320<0 320> 418 325<1346 1507.5> 1004 324<2.40881 436.695>
DStem2: 150 0 470 0 0.207912 0.978148<66.5317 746.315 938.524 1204.24> 956.045 0 1275.62 0 0.207912 0.978148<261.167 679.774 871.983 1204.23 1442.57 1543.73>
LayerCount: 2
Fore
SplineSet
150 0 m 1,0,-1
 400 1178 l 1,1,-1
 290 1178 l 1,2,-1
 326 1346 l 1,3,-1
 418 1346 l 1,4,5
 418 1430 418 1430 381 1510 c 1,6,-1
 727 1510 l 1,7,8
 743 1435 743 1435 743 1346 c 1,9,-1
 1242 1346 l 1,10,-1
 1277 1510 l 1,11,-1
 1597 1510 l 1,12,-1
 1562 1346 l 1,13,-1
 1672 1346 l 1,14,-1
 1636 1178 l 1,15,-1
 1526 1178 l 1,16,-1
 1343 317 l 2,17,18
 1328 248 1328 248 1328 186 c 0,19,20
 1328 85 1328 85 1366 0 c 1,21,-1
 1019 0 l 1,22,23
 1004 69 1004 69 1004 143 c 0,24,25
 1004 226 1004 226 1023 315 c 2,26,-1
 1097 665 l 1,27,-1
 611 665 l 1,28,-1
 470 0 l 1,29,-1
 150 0 l 1,0,-1
1206 1178 m 1,30,-1
 720 1178 l 1,31,-1
 651 853 l 1,32,-1
 1137 853 l 1,33,-1
 1206 1178 l 1,30,-1
EndSplineSet
Validated: 1
EndChar

StartChar: Eng
Encoding: 330 330 180
Width: 1426
Flags: W
HStem: -430 21G<668.171 938> 0 21G<150 474.245> 1274 236<730.41 913.629>
VStem: 150 320<0 320> 1286 311<1199 1510>
DStem2: 58.6007 -430 378.601 -430 0.207912 0.978148<506.138 1798.6> 872.858 -430 1184.52 -430 0.207912 0.978148<501.165 1232.44 1567.31 1983.5>
LayerCount: 2
Fore
SplineSet
150 0 m 1,0,-1
 404 1193 l 2,1,2
 420 1269 420 1269 420 1334 c 0,3,4
 420 1435 420 1435 381 1510 c 1,5,-1
 681 1510 l 2,6,7
 1157 1510 1157 1510 1189 1103 c 1,8,-1
 1199 1103 l 1,9,-1
 1286 1510 l 1,10,-1
 1597 1510 l 1,11,-1
 1345 325 l 2,12,13
 1212 -302 1212 -302 664 -430 c 1,14,-1
 703 -243 l 1,15,16
 939 -115 939 -115 1031 314 c 0,17,18
 1090 593 1090 593 1090 790 c 0,19,20
 1090 1274 1090 1274 736 1274 c 1,21,22
 733 1237 733 1237 723 1192 c 2,23,-1
 470 0 l 1,24,-1
 150 0 l 1,0,-1
EndSplineSet
Validated: 1
EndChar

StartChar: OE
Encoding: 338 338 181
Width: 1959
Flags: W
HStem: -20 184<563.164 884.204> 0 187<1338 1849.9> 667 188<1480 1922> 1323 187<1517 2061> 1346 184<848.234 1165.64>
VStem: 193 322<211.719 559.57> 1214 322<950.195 1298.34>
DStem2: 105.722 -20 436.127 -20 0.207912 0.978148<419.53 1239.82> 963.853 -20 1294 -20 0.207912 0.978148<334.876 770.984 963.192 1233.7>
LayerCount: 2
Fore
SplineSet
601 -20 m 0,0,1
 193 -20 193 -20 193 319 c 0,2,3
 193 390 193 390 212 480 c 2,4,-1
 304 915 l 2,5,6
 434 1530 434 1530 1128 1530 c 0,7,8
 1220 1530 1220 1530 1302 1510 c 1,9,-1
 2101 1510 l 1,10,-1
 2061 1323 l 1,11,-1
 1517 1323 l 1,12,13
 1536 1262 1536 1262 1536 1187 c 0,14,15
 1536 1120 1536 1120 1517 1030 c 2,16,-1
 1480 855 l 1,17,-1
 1962 855 l 1,18,-1
 1922 667 l 1,19,-1
 1440 667 l 1,20,-1
 1424 595 l 1,21,-1
 1338 187 l 1,22,-1
 1609 187 l 2,23,24
 1805 187 1805 187 1993 302 c 1,25,-1
 1943 66 l 1,26,27
 1772 0 1772 0 1569 0 c 2,28,-1
 978 0 l 1,29,-1
 987 43 l 1,30,31
 823 -20 823 -20 601 -20 c 0,0,1
732 164 m 0,32,33
 1003 164 1003 164 1095 597 c 2,34,-1
 1207 1126 l 2,35,36
 1214 1160 1214 1160 1214 1189 c 0,37,38
 1214 1346 1214 1346 997 1346 c 0,39,40
 726 1346 726 1346 634 913 c 2,41,-1
 522 384 l 2,42,43
 515 350 515 350 515 321 c 0,44,45
 515 164 515 164 732 164 c 0,32,33
EndSplineSet
Validated: 1
EndChar

StartChar: Oslash
Encoding: 216 216 182
Width: 1409
Flags: W
HStem: -20 184<556.889 884.208> 1346 184<846.769 1173.62>
DStem2: 90.2051 -93 411.62 -93 0.207912 0.978148<602.532 1313.81> 163 -20 270 -93 0.62399 0.781432<9.7224 167.826 577.062 1514.61 1918.55 2076.17> 959.336 -93 1278.76 -93 0.207912 0.978148<486.81 1202.21>
LayerCount: 2
Fore
SplineSet
733 164 m 0,0,1
 1014 164 1014 164 1106 597 c 2,2,-1
 1209 1083 l 1,3,-1
 531 234 l 1,4,5
 582 164 582 164 733 164 c 0,0,1
602 -20 m 0,6,7
 457 -20 457 -20 363 23 c 1,8,-1
 270 -93 l 1,9,-1
 163 -20 l 1,10,-1
 259 101 l 1,11,12
 193 183 193 183 193 319 c 0,13,14
 193 392 193 392 212 480 c 2,15,-1
 305 915 l 2,16,17
 436 1530 436 1530 1129 1530 c 0,18,19
 1274 1530 1274 1530 1367 1487 c 1,20,-1
 1459 1602 l 1,21,-1
 1566 1530 l 1,22,-1
 1470 1409 l 1,23,24
 1536 1327 1536 1327 1536 1191 c 0,25,26
 1536 1118 1536 1118 1517 1030 c 2,27,-1
 1425 595 l 2,28,29
 1295 -20 1295 -20 602 -20 c 0,6,7
523 431 m 1,30,-1
 1199 1277 l 1,31,32
 1148 1346 1148 1346 998 1346 c 0,33,34
 717 1346 717 1346 625 913 c 2,35,-1
 523 431 l 1,30,-1
EndSplineSet
Validated: 1
EndChar

StartChar: Tbar
Encoding: 358 358 183
Width: 1160
Flags: W
HStem: 0 21G<420 744.249> 659 168<393 560 916 1083> 1323 187<418.969 701 1021 1431>
VStem: 420 320<0 320>
DStem2: 420 0 740 0 0.207912 0.978148<66.5317 673.707 912.052 1352.51>
LayerCount: 2
Fore
SplineSet
420 0 m 1,0,-1
 560 659 l 1,1,-1
 357 659 l 1,2,-1
 393 827 l 1,3,-1
 596 827 l 1,4,-1
 701 1323 l 1,5,-1
 651 1323 l 2,6,7
 476 1323 476 1323 267 1209 c 1,8,-1
 316 1439 l 1,9,10
 483 1510 483 1510 691 1510 c 2,11,-1
 1471 1510 l 1,12,-1
 1431 1323 l 1,13,-1
 1021 1323 l 1,14,-1
 916 827 l 1,15,-1
 1119 827 l 1,16,-1
 1083 659 l 1,17,-1
 880 659 l 1,18,-1
 740 0 l 1,19,-1
 420 0 l 1,0,-1
EndSplineSet
Validated: 1
EndChar

StartChar: ae
Encoding: 230 230 184
Width: 1800
Flags: W
HStem: -20 190<238.5 573.162> -20 164<942 1326.86> 545 151<580.513 807> 956 164<691.826 970 1283.52 1702>
VStem: 84 313<177.166 372.881> 1552 309<756.068 928.762>
DStem2: 1134 596 1086 371 0.927291 0.374342<0 440.85>
LayerCount: 2
Fore
SplineSet
393 -20 m 0,0,1
 84 -20 84 -20 84 212 c 0,2,3
 84 248 84 248 91 289 c 0,4,5
 130 507 130 507 385 617 c 0,6,7
 568 696 568 696 860 696 c 1,8,-1
 870 744 l 2,9,10
 883 806 883 806 883 851 c 0,11,12
 883 956 883 956 810 956 c 0,13,14
 688 956 688 956 562 768 c 1,15,-1
 327 870 l 1,16,17
 540 1120 540 1120 887 1120 c 0,18,19
 1053 1120 1053 1120 1124 1032 c 1,20,21
 1290 1120 1290 1120 1543 1120 c 0,22,23
 1861 1120 1861 1120 1861 827 c 0,24,25
 1861 760 1861 760 1844 677 c 1,26,-1
 1086 371 l 1,27,-1
 1075 321 l 2,28,29
 1068 287 1068 287 1068 260 c 0,30,31
 1068 144 1068 144 1203 144 c 0,32,33
 1364 144 1364 144 1452 374 c 1,34,-1
 1774 408 l 1,35,36
 1610 -20 1610 -20 1083 -20 c 0,37,38
 801 -20 801 -20 771 204 c 1,39,40
 611 -20 611 -20 393 -20 c 0,0,1
807 545 m 1,41,42
 461 545 461 545 400 263 c 0,43,44
 397 247 397 247 397 234 c 0,45,46
 397 170 397 170 479 170 c 0,47,48
 649 170 649 170 807 545 c 1,41,42
1134 596 m 1,49,-1
 1542 763 l 1,50,-1
 1545 776 l 2,51,52
 1552 808 1552 808 1552 834 c 0,53,54
 1552 956 1552 956 1406 956 c 0,55,56
 1210 956 1210 956 1138 614 c 2,57,-1
 1134 596 l 1,49,-1
EndSplineSet
Validated: 1
EndChar

StartChar: dcroat
Encoding: 273 273 185
Width: 1218
Flags: W
HStem: -20 192<312.5 657.254> 0 21G<823 1153> 944 176<690.504 927.208> 1178 168<815 1028 1347 1458> 1490 20G<1019 1342>
VStem: 165 309<180.414 510.156> 810 309<1.94226 191.28> 1051 297<1346 1507.99>
DStem2: 95.1271 -20 406.204 -20 0.207912 0.978148<360.543 904.247> 773.269 -20 1068.43 -20 0.207912 0.978148<482.218 861.498 1135.94 1224.78>
LayerCount: 2
Fore
SplineSet
1153 0 m 1,0,-1
 836 0 l 1,1,2
 810 57 810 57 810 123 c 0,3,4
 810 151 810 151 813 165 c 1,5,6
 687 -20 687 -20 460 -20 c 0,7,8
 165 -20 165 -20 165 245 c 0,9,10
 165 309 165 309 181 384 c 2,11,-1
 229 609 l 2,12,13
 338 1120 338 1120 860 1120 c 0,14,15
 943 1120 943 1120 1010 1091 c 1,16,-1
 1028 1178 l 1,17,-1
 779 1178 l 1,18,-1
 815 1346 l 1,19,-1
 1051 1346 l 1,20,21
 1051 1446 1051 1446 1019 1510 c 1,22,-1
 1336 1510 l 1,23,24
 1348 1448 1348 1448 1348 1382 c 0,25,26
 1348 1364 1348 1364 1347 1346 c 1,27,-1
 1494 1346 l 1,28,-1
 1458 1178 l 1,29,-1
 1323 1178 l 1,30,-1
 1139 312 l 2,31,32
 1119 218 1119 218 1119 164 c 0,33,34
 1119 67 1119 67 1153 0 c 1,0,-1
552 172 m 0,35,36
 661 172 661 172 773 358 c 0,37,38
 899 566 899 566 938 755 c 16,39,40
 946 794 946 794 946 825 c 0,41,42
 946 944 946 944 823 944 c 0,43,44
 610 944 610 944 539 608 c 2,45,-1
 484 346 l 2,46,47
 474 301 474 301 474 267 c 0,48,49
 474 172 474 172 552 172 c 0,35,36
EndSplineSet
Validated: 1
EndChar

StartChar: longs
Encoding: 383 383 186
Width: 935
Flags: W
HStem: 0 21G<200 504.257> 1354 176<857.457 1159.37>
VStem: 200 300<0 300>
DStem2: 200 0 500 0 0.207912 0.978148<62.3735 689.981 850.65 1300.98>
LayerCount: 2
Fore
SplineSet
200 0 m 1,0,-1
 343 675 l 1,1,2
 241 654 241 654 133 579 c 1,3,-1
 177 785 l 1,4,5
 268 836 268 836 380 847 c 1,6,-1
 416 1015 l 2,7,8
 525 1530 525 1530 1059 1530 c 0,9,10
 1163 1530 1163 1530 1249 1522 c 1,11,-1
 1148 1289 l 1,12,13
 1086 1354 1086 1354 975 1354 c 0,14,15
 788 1354 788 1354 715 1010 c 2,16,-1
 500 0 l 1,17,-1
 200 0 l 1,0,-1
EndSplineSet
Validated: 1
EndChar

StartChar: hbar
Encoding: 295 295 187
Width: 1263
Flags: W
HStem: 0 21G<150 449.301 864.5 1193> 930 190<793.244 1139.5> 1178 168<316 400 719 944> 1490 20G<391 714.5>
VStem: 421 299<1346 1507.75> 858 301<2.09717 419.562> 983 299<591.891 921.32>
DStem2: 150 0 445 0 0.207912 0.978148<61.3339 719.729 1017.28 1204.24> 812.958 0 1112.53 0 0.207912 0.978148<236.926 850.056>
LayerCount: 2
Fore
SplineSet
150 0 m 1,0,-1
 400 1178 l 1,1,-1
 280 1178 l 1,2,-1
 316 1346 l 1,3,-1
 421 1346 l 1,4,5
 421 1438 421 1438 391 1510 c 1,6,-1
 709 1510 l 1,7,8
 720 1454 720 1454 720 1390 c 0,9,10
 720 1368 720 1368 719 1346 c 1,11,-1
 980 1346 l 1,12,-1
 944 1178 l 1,13,-1
 695 1178 l 1,14,-1
 644 935 l 1,15,16
 750 1120 750 1120 997 1120 c 0,17,18
 1282 1120 1282 1120 1282 857 c 0,19,20
 1282 791 1282 791 1265 712 c 2,21,-1
 1178 308 l 2,22,23
 1159 220 1159 220 1159 167 c 0,24,25
 1159 73 1159 73 1193 0 c 1,26,-1
 871 0 l 1,27,28
 858 61 858 61 858 129 c 0,29,30
 858 212 858 212 878 306 c 2,31,-1
 973 752 l 2,32,33
 983 799 983 799 983 834 c 0,34,35
 983 930 983 930 906 930 c 0,36,37
 645 930 645 930 465 93 c 2,38,-1
 445 0 l 1,39,-1
 150 0 l 1,0,-1
EndSplineSet
Validated: 19457
EndChar

StartChar: eng
Encoding: 331 331 188
Width: 1263
Flags: W
HStem: -430 21G<517.171 780.5> 0 21G<150 449.301> 930 190<800.159 1139.5> 1080 20G<304 625>
VStem: 337 291<887.026 1098.25> 983 299<589.406 921.32>
DStem2: 58.6007 -430 353.601 -430 0.207912 0.978148<500.94 1159.34> 721.858 -430 1021.52 -430 0.207912 0.978148<490.766 1289.6>
LayerCount: 2
Fore
SplineSet
150 0 m 1,0,-1
 318 792 l 2,1,2
 337 882 337 882 337 932 c 0,3,4
 337 1027 337 1027 304 1100 c 1,5,-1
 622 1100 l 1,6,7
 628 1061 628 1061 628 1020 c 0,8,9
 628 956 628 956 613 885 c 1,10,11
 740 1120 740 1120 997 1120 c 0,12,13
 1282 1120 1282 1120 1282 857 c 0,14,15
 1282 791 1282 791 1265 712 c 2,16,-1
 1182 325 l 2,17,18
 1048 -302 1048 -302 513 -430 c 1,19,-1
 552 -243 l 1,20,21
 789 -114 789 -114 880 314 c 2,22,-1
 973 752 l 2,23,24
 983 799 983 799 983 834 c 0,25,26
 983 930 983 930 906 930 c 0,27,28
 645 930 645 930 465 93 c 2,29,-1
 445 0 l 1,30,-1
 150 0 l 1,0,-1
EndSplineSet
Validated: 1
EndChar

StartChar: eth
Encoding: 240 240 189
Width: 1208
Flags: W
HStem: -20 164<331.5 752.976> 956 164<689.063 943.232> 1510 20G<885.544 956.5>
VStem: 172 301<171.456 507.148> 969 310<596.5 1050.58>
DStem2: 95.8374 -20 406.243 -20 0.207912 0.978148<361.898 913.912> 628 1294 681 1149 0.889013 0.457881<0 186.954 468.664 616.261> 794.171 -20 1103.38 -20 0.207912 0.978148<336.936 867.956>
LayerCount: 2
Fore
SplineSet
628 144 m 0,0,1
 829 144 829 144 903 492 c 2,2,-1
 962 773 l 2,3,4
 969 805 969 805 969 831 c 0,5,6
 969 956 969 956 814 956 c 0,7,8
 613 956 613 956 539 608 c 2,9,-1
 480 327 l 2,10,11
 473 295 473 295 473 269 c 0,12,13
 473 144 473 144 628 144 c 0,0,1
491 -20 m 0,14,15
 172 -20 172 -20 172 270 c 0,16,17
 172 338 172 338 190 423 c 2,18,-1
 229 609 l 2,19,20
 336 1120 336 1120 860 1120 c 0,21,22
 906 1120 906 1120 962 1102 c 1,23,24
 945 1197 945 1197 892 1258 c 1,25,-1
 681 1149 l 1,26,-1
 628 1294 l 1,27,-1
 794 1380 l 1,28,29
 760 1417 760 1417 719 1451 c 1,30,-1
 942 1530 l 1,31,32
 971 1508 971 1508 999 1485 c 1,33,-1
 1193 1585 l 1,34,-1
 1246 1440 l 1,35,-1
 1115 1372 l 1,36,37
 1279 1188 1279 1188 1279 914 c 0,38,39
 1279 803 1279 803 1252 677 c 2,40,-1
 1212 491 l 2,41,42
 1102 -20 1102 -20 491 -20 c 0,14,15
EndSplineSet
Validated: 1
EndChar

StartChar: oslash
Encoding: 248 248 190
Width: 1208
Flags: W
HStem: -20 164<454 756.154> 956 164<685.1 989>
DStem2: 74.1567 -122 374.949 -122 0.207912 0.978148<541.064 996.76> 157 -50 266 -122 0.626271 0.779606<12.1319 149.332 505.692 1131.74 1492.72 1623.9> 782.49 -122 1081.7 -122 0.207912 0.978148<439.135 890.06>
LayerCount: 2
Fore
SplineSet
491 -20 m 0,0,1
 417 -20 417 -20 360 -4 c 1,2,-1
 266 -122 l 1,3,-1
 157 -50 l 1,4,-1
 245 59 l 1,5,6
 172 131 172 131 172 270 c 0,7,8
 172 338 172 338 190 423 c 2,9,-1
 229 609 l 2,10,11
 336 1120 336 1120 951 1120 c 0,12,13
 1027 1120 1027 1120 1084 1104 c 1,14,-1
 1174 1216 l 1,15,-1
 1283 1144 l 1,16,-1
 1199 1040 l 1,17,18
 1270 968 1270 968 1270 832 c 0,19,20
 1270 763 1270 763 1252 677 c 2,21,-1
 1212 491 l 2,22,23
 1102 -20 1102 -20 491 -20 c 0,0,1
628 144 m 0,24,25
 840 144 840 144 913 492 c 2,26,-1
 967 751 l 1,27,-1
 505 175 l 1,28,29
 546 144 546 144 628 144 c 0,24,25
474 344 m 1,30,-1
 939 923 l 1,31,32
 898 956 898 956 814 956 c 0,33,34
 602 956 602 956 529 608 c 2,35,-1
 474 344 l 1,30,-1
EndSplineSet
Validated: 1
EndChar

StartChar: oe
Encoding: 339 339 191
Width: 1902
Flags: W
HStem: -20 164<331.5 753.455 1093 1428.86> 956 164<688.279 1042.5 1384.15 1804>
VStem: 172 301<171.456 507.148> 1654 309<756.068 928.762>
DStem2: 95.8374 -20 406.243 -20 0.207912 0.978148<361.898 892.481> 1236 596 1188 371 0.927291 0.374342<0 440.85>
LayerCount: 2
Fore
SplineSet
491 -20 m 0,0,1
 172 -20 172 -20 172 270 c 0,2,3
 172 338 172 338 190 423 c 2,4,-1
 229 609 l 2,5,6
 336 1120 336 1120 951 1120 c 0,7,8
 1134 1120 1134 1120 1212 1025 c 1,9,10
 1382 1120 1382 1120 1645 1120 c 0,11,12
 1963 1120 1963 1120 1963 827 c 0,13,14
 1963 760 1963 760 1946 677 c 1,15,-1
 1188 371 l 1,16,-1
 1177 321 l 2,17,18
 1170 287 1170 287 1170 260 c 0,19,20
 1170 144 1170 144 1305 144 c 0,21,22
 1466 144 1466 144 1554 374 c 1,23,-1
 1876 408 l 1,24,25
 1712 -20 1712 -20 1185 -20 c 0,26,27
 1001 -20 1001 -20 924 75 c 1,28,29
 754 -20 754 -20 491 -20 c 0,0,1
628 144 m 0,30,31
 829 144 829 144 903 492 c 2,32,-1
 962 773 l 2,33,34
 969 805 969 805 969 831 c 0,35,36
 969 956 969 956 814 956 c 0,37,38
 613 956 613 956 539 608 c 2,39,-1
 480 327 l 2,40,41
 473 295 473 295 473 269 c 0,42,43
 473 144 473 144 628 144 c 0,30,31
1508 956 m 0,44,45
 1312 956 1312 956 1240 614 c 2,46,-1
 1236 596 l 1,47,-1
 1644 763 l 1,48,-1
 1647 776 l 2,49,50
 1654 808 1654 808 1654 834 c 0,51,52
 1654 956 1654 956 1508 956 c 0,44,45
EndSplineSet
Validated: 1
EndChar

StartChar: tbar
Encoding: 359 359 192
Width: 920
Flags: W
HStem: 0 21G<362 690> 596 168<259 437 772 950> 933 167<293.96 508 844 1108> 1490 20G<551 878.5>
VStem: 356 302<2.23535 423.812> 581 303<1100.91 1507.75>
DStem2: 309.958 0 609.958 0 0.207912 0.978148<234.679 609.39 843.369 950.853 1187 1357.53>
LayerCount: 2
Fore
SplineSet
368 0 m 1,0,1
 356 62 356 62 356 130 c 0,2,3
 356 217 356 217 375 306 c 2,4,-1
 437 596 l 1,5,-1
 224 596 l 1,6,-1
 259 764 l 1,7,-1
 473 764 l 1,8,-1
 508 930 l 1,9,10
 340 930 340 930 187 834 c 1,11,-1
 230 1037 l 1,12,13
 370 1099 370 1099 544 1099 c 1,14,-1
 563 1190 l 2,15,16
 581 1276 581 1276 581 1332 c 0,17,18
 581 1427 581 1427 551 1510 c 1,19,-1
 873 1510 l 1,20,21
 884 1449 884 1449 884 1383 c 0,22,23
 884 1289 884 1289 863 1190 c 2,24,-1
 844 1100 l 1,25,-1
 1144 1100 l 1,26,-1
 1108 933 l 1,27,-1
 808 933 l 1,28,-1
 772 764 l 1,29,-1
 985 764 l 1,30,-1
 950 596 l 1,31,-1
 737 596 l 1,32,-1
 675 306 l 2,33,34
 658 226 658 226 658 164 c 0,35,36
 658 81 658 81 690 0 c 1,37,-1
 368 0 l 1,0,1
EndSplineSet
Validated: 1
EndChar

StartChar: Thorn
Encoding: 222 222 193
Width: 1314
Flags: W
HStem: 0 21G<150 474.257> 249 188<563 864.789> 1089 188<738 1033.28> 1490 20G<381 737>
VStem: 420 324<1278.53 1507.65> 1086 328<747.868 1041.26>
DStem2: 150 0 470 0 0.207912 0.978148<66.5317 321.11 513.318 1179.76>
LayerCount: 2
Fore
SplineSet
150 0 m 1,0,-1
 404 1193 l 2,1,2
 420 1266 420 1266 420 1330 c 0,3,4
 420 1431 420 1431 381 1510 c 1,5,-1
 730 1510 l 1,6,7
 744 1439 744 1439 744 1369 c 0,8,9
 744 1323 744 1323 738 1277 c 1,10,-1
 1010 1277 l 2,11,12
 1262 1277 1262 1277 1355 1144 c 0,13,14
 1414 1059 1414 1059 1414 950 c 0,15,16
 1414 887 1414 887 1399 822 c 0,17,18
 1268 249 1268 249 599 249 c 2,19,-1
 523 249 l 1,20,-1
 470 0 l 1,21,-1
 150 0 l 1,0,-1
701 1089 m 1,22,-1
 563 437 l 1,23,-1
 716 437 l 2,24,25
 980 437 980 437 1078 867 c 0,26,27
 1086 902 1086 902 1086 931 c 0,28,29
 1086 1089 1086 1089 867 1089 c 2,30,-1
 701 1089 l 1,22,-1
EndSplineSet
Validated: 1
EndChar

StartChar: thorn
Encoding: 254 254 194
Width: 1223
Flags: W
HStem: -410 21G<63 362.248> -20 176<529.369 766.339> 928 192<799.746 1144> 1490 20G<391 714.5>
VStem: 63 295<-410 -115> 424 296<1089.38 1507.84> 983 308<589.844 919.969>
DStem2: 63 -410 358 -410 0.207912 0.978148<61.3339 489.682 764.865 1142.21 1436.41 1787.08> 726.274 -410 1035.49 -410 0.207912 0.978148<724.276 1268.17>
LayerCount: 2
Fore
SplineSet
597 -20 m 0,0,1
 514 -20 514 -20 447 9 c 1,2,-1
 358 -410 l 17,3,-1
 63 -410 l 1,4,-1
 405 1198 l 2,5,6
 424 1287 424 1287 424 1342 c 0,7,8
 424 1432 424 1432 391 1510 c 1,9,-1
 709 1510 l 1,10,11
 720 1450 720 1450 720 1385 c 0,12,13
 720 1291 720 1291 698 1188 c 2,14,-1
 644 935 l 1,15,16
 770 1120 770 1120 997 1120 c 0,17,18
 1291 1120 1291 1120 1291 856 c 0,19,20
 1291 791 1291 791 1275 716 c 2,21,-1
 1227 491 l 2,22,23
 1118 -20 1118 -20 597 -20 c 0,0,1
634 156 m 0,24,25
 847 156 847 156 918 492 c 2,26,-1
 973 754 l 2,27,28
 983 799 983 799 983 833 c 0,29,30
 983 928 983 928 905 928 c 0,31,32
 796 928 796 928 684 742 c 0,33,34
 557 531 557 531 518 345 c 16,35,36
 510 306 510 306 510 276 c 0,37,38
 510 156 510 156 634 156 c 0,24,25
EndSplineSet
Validated: 1
EndChar

StartChar: florin
Encoding: 402 402 195
Width: 935
Flags: W
HStem: -430 21G<-86.7396 170.5> 680 169<680 945> 1354 176<855.865 1158.98>
DStem2: 109.008 -430 408.795 -430 0.207912 0.978148<478.263 1134.81 1369.77 1740.06>
LayerCount: 2
Fore
SplineSet
-91 -430 m 1,0,-1
 -55 -261 l 1,1,2
 173 -130 173 -130 268 318 c 2,3,-1
 345 680 l 1,4,5
 295 680 295 680 223 613 c 1,6,-1
 263 802 l 1,7,8
 315 838 315 838 380 849 c 1,9,-1
 416 1014 l 2,10,11
 526 1530 526 1530 1058 1530 c 0,12,13
 1173 1530 1173 1530 1249 1522 c 1,14,-1
 1148 1289 l 1,15,16
 1079 1354 1079 1354 968 1354 c 0,17,18
 788 1354 788 1354 715 1013 c 2,19,-1
 680 849 l 1,20,-1
 980 849 l 1,21,-1
 945 680 l 1,22,-1
 645 680 l 1,23,-1
 568 319 l 2,24,25
 432 -321 432 -321 -91 -430 c 1,0,-1
EndSplineSet
Validated: 1
EndChar

StartChar: circumflex
Encoding: 710 710 196
Width: 728
Flags: W
HStem: 1170 409
LayerCount: 2
Fore
SplineSet
700 1579 m 1,0,-1
 991 1331 l 1,1,-1
 793 1170 l 1,2,-1
 654 1364 l 1,3,-1
 433 1170 l 1,4,-1
 303 1331 l 1,5,-1
 700 1579 l 1,0,-1
EndSplineSet
Validated: 1
EndChar

StartChar: caron
Encoding: 711 711 197
Width: 728
Flags: W
HStem: 1170 409
LayerCount: 2
Fore
SplineSet
520 1579 m 1,0,-1
 658 1385 l 1,1,-1
 880 1579 l 1,2,-1
 1009 1418 l 1,3,-1
 613 1170 l 1,4,-1
 321 1418 l 1,5,-1
 520 1579 l 1,0,-1
EndSplineSet
Validated: 1
EndChar

StartChar: uni02C9
Encoding: 713 713 198
Width: 732
Flags: W
HStem: 1261 188<328 980>
LayerCount: 2
Fore
SplineSet
328 1449 m 1,0,-1
 1020 1449 l 1,1,-1
 980 1261 l 1,2,-1
 288 1261 l 1,3,-1
 328 1449 l 1,0,-1
EndSplineSet
Validated: 1
EndChar

StartChar: breve
Encoding: 728 728 199
Width: 732
Flags: W
HStem: 1242 153<579.208 764.654> 1496 20G<497.474 583.5 775.5 870.105>
VStem: 322 257<1317.5 1459>
LayerCount: 2
Fore
SplineSet
588 1516 m 1,0,1
 579 1475 579 1475 579 1448 c 0,2,3
 579 1395 579 1395 613 1395 c 2,4,-1
 713 1395 l 2,5,6
 763 1395 763 1395 788 1516 c 1,7,-1
 1022 1459 l 1,8,9
 976 1242 976 1242 786 1242 c 2,10,-1
 514 1242 l 2,11,12
 322 1242 322 1242 322 1393 c 0,13,14
 322 1423 322 1423 330 1459 c 1,15,-1
 588 1516 l 1,0,1
EndSplineSet
Validated: 1
EndChar

StartChar: dotaccent
Encoding: 729 729 200
Width: 379
Flags: W
HStem: 1176 354<367.191 587.809>
VStem: 296 363<1246.34 1459.66>
LayerCount: 2
Fore
SplineSet
515 1530 m 0,0,1
 659 1530 659 1530 659 1410 c 24,2,3
 659 1176 659 1176 440 1176 c 0,4,5
 296 1176 296 1176 296 1296 c 24,6,7
 296 1530 296 1530 515 1530 c 0,0,1
EndSplineSet
Validated: 1
EndChar

StartChar: ring
Encoding: 730 730 201
Width: 449
Flags: W
HStem: 1170 129<438.822 581.446> 1454 129<453.395 596.675>
VStem: 306 132<1300.84 1441.08> 598 131<1316.65 1451.61>
LayerCount: 2
Fore
SplineSet
534 1454 m 0,0,1
 457 1454 457 1454 441 1376 c 0,2,3
 438 1362 438 1362 438 1352 c 0,4,5
 438 1299 438 1299 501 1299 c 0,6,7
 577 1299 577 1299 595 1376 c 0,8,9
 598 1389 598 1389 598 1401 c 0,10,11
 598 1454 598 1454 534 1454 c 0,0,1
561 1583 m 0,12,13
 729 1583 729 1583 729 1443 c 0,14,15
 729 1412 729 1412 721 1376 c 0,16,17
 677 1170 677 1170 474 1170 c 0,18,19
 306 1170 306 1170 306 1310 c 0,20,21
 306 1342 306 1342 313 1376 c 0,22,23
 357 1583 357 1583 561 1583 c 0,12,13
EndSplineSet
Validated: 1
EndChar

StartChar: ogonek
Encoding: 731 731 202
Width: 409
Flags: W
HStem: 0 133<269.5 337.713>
VStem: -21 235<-227.92 -63.5862>
LayerCount: 2
Fore
SplineSet
137 -460 m 1,0,1
 -21 -381 -21 -381 -21 -227 c 0,2,3
 -21 -192 -21 -192 -13 -154 c 0,4,5
 31 54 31 54 332 133 c 1,6,-1
 385 0 l 1,7,8
 238 -26 238 -26 217 -127 c 0,9,10
 214 -142 214 -142 214 -155 c 0,11,12
 214 -236 214 -236 336 -251 c 1,13,-1
 137 -460 l 1,0,1
EndSplineSet
Validated: 1
EndChar

StartChar: tilde
Encoding: 732 732 203
Width: 731
Flags: W
HStem: 1213 140<706.232 886> 1353 139<417 586.575>
VStem: 288 202<1254.74 1332.21> 816 202<1372.79 1450.26>
LayerCount: 2
Fore
SplineSet
497 1492 m 24,0,1
 654 1492 654 1492 713 1385 c 0,2,3
 730 1353 730 1353 744 1353 c 0,4,5
 784 1353 784 1353 816 1506 c 1,6,-1
 1018 1446 l 1,7,8
 968 1213 968 1213 804 1213 c 24,9,10
 629 1213 629 1213 583 1318 c 0,11,12
 568 1353 568 1353 556 1353 c 0,13,14
 523 1353 523 1353 490 1199 c 1,15,-1
 288 1259 l 1,16,17
 337 1492 337 1492 497 1492 c 24,0,1
EndSplineSet
Validated: 1
EndChar

StartChar: hungarumlaut
Encoding: 733 733 204
Width: 826
Flags: W
HStem: 1135 409
LayerCount: 2
Fore
SplineSet
940 1544 m 1,0,-1
 1094 1354 l 1,1,-1
 772 1135 l 1,2,-1
 659 1273 l 1,3,-1
 940 1544 l 1,0,-1
572 1544 m 1,4,-1
 726 1354 l 1,5,-1
 404 1135 l 1,6,-1
 291 1273 l 1,7,-1
 572 1544 l 1,4,-1
EndSplineSet
Validated: 1
EndChar

StartChar: uni203D
Encoding: 8253 8253 205
Width: 1408
Flags: W
HStem: -20 377<576.04 803.96> 559 177<958.796 1054.03> 1510 20G<786.5 1338.5>
VStem: 497 386<61.2812 275.719> 1225 314<988.167 1295.63>
DStem2: 595.785 -20 797.307 -20 0.207912 0.978148<814.788 1355.18>
LayerCount: 2
Fore
SplineSet
1138 1530 m 0,0,1
 1539 1530 1539 1530 1539 1201 c 0,2,3
 1539 1126 1539 1126 1518 1034 c 0,4,5
 1474 840 1474 840 1314 692 c 0,6,7
 1172 559 1172 559 977 559 c 0,8,9
 932 559 932 559 918 495 c 1,10,-1
 575 388 l 1,11,12
 620 599 620 599 745 682 c 1,13,-1
 852 1311 l 1,14,15
 701 1228 701 1228 642 950 c 1,16,-1
 295 869 l 1,17,18
 435 1530 435 1530 1138 1530 c 0,0,1
650 -20 m 0,19,20
 497 -20 497 -20 497 108 c 0,21,22
 497 356 497 356 730 357 c 0,23,24
 883 357 883 357 883 229 c 0,25,26
 883 -20 883 -20 650 -20 c 0,19,20
1108 1333 m 1,27,-1
 958 736 l 1,28,29
 1138 754 1138 754 1218 1127 c 0,30,31
 1225 1160 1225 1160 1225 1187 c 0,32,33
 1225 1301 1225 1301 1108 1333 c 1,27,-1
EndSplineSet
Validated: 1
EndChar

StartChar: afii61352
Encoding: 8470 8470 206
Width: 2118
Flags: W
HStem: 0 210<1369 2068> 278 144<1596.5 1862.16> 782 145<1787.27 2055> 1274 236<730.41 891.25>
VStem: 150 320<0 320> 1286 311<1199 1510> 1492 220<426.157 677.712> 1937 220<527.131 778.932>
DStem2: 150 0 470 0 0.207912 0.978148<66.5317 1358.99> 965 0 1275 0 0.207912 0.978148<64.4526 638.966 1127.55 1543.74> 1389.13 0 1609.63 0 0.207912 0.978148<528.111 827.057> 1783.21 0 2003.21 0 0.207912 0.978148<450.838 748.683>
LayerCount: 2
Fore
SplineSet
2068 0 m 1,0,-1
 1324 0 l 1,1,-1
 1369 210 l 1,2,-1
 2113 210 l 1,3,-1
 2068 0 l 1,0,-1
1870 782 m 0,4,5
 1775 782 1775 782 1744 632 c 2,6,-1
 1714 491 l 2,7,8
 1712 480 1712 480 1712 471 c 0,9,10
 1712 422 1712 422 1781 422 c 0,11,12
 1873 422 1873 422 1905 573 c 2,13,-1
 1935 714 l 2,14,15
 1937 724 1937 724 1937 733 c 0,16,17
 1937 782 1937 782 1870 782 c 0,4,5
1953 927 m 0,18,19
 2157 927 2157 927 2157 757 c 0,20,21
 2157 720 2157 720 2147 675 c 2,22,-1
 2125 573 l 2,23,24
 2061 278 2061 278 1701 278 c 0,25,26
 1492 278 1492 278 1492 449 c 0,27,28
 1492 486 1492 486 1502 531 c 2,29,-1
 1524 632 l 2,30,31
 1588 927 1588 927 1953 927 c 0,18,19
150 0 m 1,32,-1
 404 1193 l 2,33,34
 420 1269 420 1269 420 1334 c 0,35,36
 420 1435 420 1435 381 1510 c 1,37,-1
 681 1510 l 2,38,39
 1157 1510 1157 1510 1189 1103 c 1,40,-1
 1199 1103 l 1,41,-1
 1286 1510 l 1,42,-1
 1597 1510 l 1,43,-1
 1275 0 l 1,44,-1
 965 0 l 1,45,46
 1060 448 1060 448 1060 738 c 0,47,48
 1060 1274 1060 1274 736 1274 c 1,49,50
 733 1237 733 1237 723 1192 c 2,51,-1
 470 0 l 1,52,-1
 150 0 l 1,32,-1
EndSplineSet
Validated: 1
EndChar

StartChar: uni2117
Encoding: 8471 8471 207
Width: 1296
Flags: W
HStem: 191 74<535.408 928.873> 584 143<782 869.391> 1006 144<831.562 934.742> 1257 74<690.768 1084.47>
VStem: 254 72<485.34 878.297> 490 210<345 555> 935 205<812.858 1002.03> 1294 72<643.703 1036.66>
DStem2: 457.266 191 667.266 191 0.207912 0.978148<201.102 445.483 591.803 863.694>
LayerCount: 2
Fore
SplineSet
713 265 m 0,0,1
 932 265 932 265 1083 389 c 0,2,3
 1255 531 1255 531 1287 761 c 0,4,5
 1294 809 1294 809 1294 853 c 0,6,7
 1294 1013 1294 1013 1207 1122 c 0,8,9
 1101 1257 1101 1257 906 1257 c 0,10,11
 687 1257 687 1257 537 1133 c 0,12,13
 365 991 365 991 333 761 c 0,14,15
 326 713 326 713 326 669 c 0,16,17
 326 509 326 509 413 400 c 0,18,19
 519 265 519 265 713 265 c 0,0,1
699 191 m 0,20,21
 476 191 476 191 354 346 c 0,22,23
 254 471 254 471 254 655 c 0,24,25
 254 706 254 706 262 761 c 0,26,27
 298 1026 298 1026 496 1189 c 0,28,29
 669 1331 669 1331 921 1331 c 0,30,31
 1144 1331 1144 1331 1266 1176 c 0,32,33
 1366 1051 1366 1051 1366 867 c 0,34,35
 1366 816 1366 816 1358 761 c 0,36,37
 1322 496 1322 496 1124 333 c 0,38,39
 951 191 951 191 699 191 c 0,20,21
782 727 m 1,40,-1
 804 727 l 2,41,42
 881 727 881 727 932 928 c 16,43,44
 935 940 935 940 935 955 c 0,45,46
 935 1006 935 1006 869 1006 c 2,47,-1
 838 1006 l 1,48,49
 836 987 836 987 834 976 c 2,50,-1
 782 727 l 1,40,-1
490 345 m 1,51,-1
 624 975 l 2,52,53
 631 1008 631 1008 631 1038 c 0,54,55
 631 1094 631 1094 609 1150 c 1,56,-1
 951 1150 l 2,57,58
 1140 1150 1140 1150 1140 990 c 0,59,60
 1140 911 1140 911 1091 802 c 0,61,62
 992 584 992 584 801 584 c 2,63,-1
 751 584 l 1,64,-1
 700 345 l 1,65,-1
 490 345 l 1,51,-1
EndSplineSet
Validated: 1
EndChar

StartChar: integral
Encoding: 8747 8747 208
Width: 1170
Flags: W
HStem: -430 176<9.41907 311.543> 1354 176<1092.46 1394.37>
DStem2: 343.471 -430 643.533 -430 0.207912 0.978148<325.645 1740.61>
LayerCount: 2
Fore
SplineSet
-80 -422 m 1,0,-1
 21 -189 l 1,1,2
 83 -254 83 -254 194 -254 c 0,3,4
 381 -254 381 -254 454 90 c 2,5,-1
 651 1015 l 2,6,7
 760 1530 760 1530 1294 1530 c 0,8,9
 1398 1530 1398 1530 1484 1522 c 1,10,-1
 1383 1289 l 1,11,12
 1321 1354 1321 1354 1210 1354 c 0,13,14
 1023 1354 1023 1354 950 1010 c 2,15,-1
 753 85 l 2,16,17
 644 -430 644 -430 110 -430 c 0,18,19
 5 -430 5 -430 -80 -422 c 1,0,-1
EndSplineSet
Validated: 1
EndChar

StartChar: uni1E9E
Encoding: 7838 7838 209
Width: 1396
Flags: W
HStem: 0 187<739 910.664> 1346 184<864.062 1308.5>
VStem: 151 320<0 320> 768 278<824.5 1036.36> 1112 321<427.811 725.573>
DStem2: 151 0 471 0 0.207912 0.978148<66.5317 1219.11>
LayerCount: 2
Fore
SplineSet
151 0 m 1,0,-1
 345 915 l 2,1,2
 475 1530 475 1530 1149 1530 c 0,3,4
 1468 1530 1468 1530 1468 1198 c 0,5,6
 1468 1178 1468 1178 1467 1157 c 1,7,8
 1082 1110 1082 1110 1048 972 c 0,9,10
 1046 963 1046 963 1046 957 c 0,11,12
 1046 931 1046 931 1076 931 c 0,13,14
 1433 931 1433 931 1433 649 c 0,15,16
 1433 571 1433 571 1406 471 c 0,17,18
 1350 267 1350 267 1172 134 c 0,19,20
 992 0 992 0 699 0 c 1,21,-1
 739 187 l 1,22,23
 1026 187 1026 187 1101 539 c 16,24,25
 1112 589 1112 589 1112 627 c 0,26,27
 1112 742 1112 742 1012 742 c 0,28,29
 768 742 768 742 768 907 c 0,30,31
 768 935 768 935 775 968 c 8,32,33
 818 1168 818 1168 1147 1269 c 1,34,35
 1139 1346 1139 1346 1006 1346 c 24,36,37
 756 1346 756 1346 664 910 c 2,38,-1
 471 0 l 1,39,-1
 151 0 l 1,0,-1
EndSplineSet
Validated: 1
EndChar

StartChar: ntilde
Encoding: 241 241 210
Width: 1263
Flags: W
HStem: 0 21G<150 449.301 864.5 1193> 930 190<800.159 1139.5> 1080 20G<304 625> 1214 140<948.672 1128.5> 1354 139<659 828.624>
VStem: 337 291<887.026 1098.26> 530 202<1255.74 1333.21> 858 301<1.92786 419.562> 983 299<591.891 921.703> 1058 203<1373.79 1451.24>
DStem2: 150 0 445 0 0.207912 0.978148<61.3339 719.729> 812.958 0 1112.53 0 0.207912 0.978148<235.978 850.056>
LayerCount: 2
Fore
SplineSet
150 0 m 1,0,-1
 318 792 l 2,1,2
 337 882 337 882 337 932 c 0,3,4
 337 1028 337 1028 304 1100 c 1,5,-1
 622 1100 l 1,6,7
 628 1061 628 1061 628 1020 c 0,8,9
 628 956 628 956 613 885 c 1,10,11
 740 1120 740 1120 997 1120 c 0,12,13
 1282 1120 1282 1120 1282 858 c 0,14,15
 1282 791 1282 791 1265 712 c 2,16,-1
 1178 308 l 2,17,18
 1159 220 1159 220 1159 166 c 0,19,20
 1159 62 1159 62 1193 0 c 1,21,-1
 871 0 l 1,22,23
 858 61 858 61 858 129 c 0,24,25
 858 212 858 212 878 306 c 2,26,-1
 973 752 l 2,27,28
 983 799 983 799 983 834 c 0,29,30
 983 930 983 930 906 930 c 0,31,32
 645 930 645 930 465 93 c 2,33,-1
 445 0 l 1,34,-1
 150 0 l 1,0,-1
739 1493 m 24,35,36
 896 1493 896 1493 956 1386 c 0,37,38
 973 1354 973 1354 986 1354 c 0,39,40
 1026 1354 1026 1354 1058 1507 c 1,41,-1
 1261 1447 l 1,42,43
 1211 1214 1211 1214 1046 1214 c 24,44,45
 871 1214 871 1214 825 1319 c 0,46,47
 810 1354 810 1354 798 1354 c 0,48,49
 765 1354 765 1354 732 1200 c 1,50,-1
 530 1260 l 1,51,52
 579 1493 579 1493 739 1493 c 24,35,36
EndSplineSet
Validated: 1
EndChar

StartChar: ograve
Encoding: 242 242 211
Width: 1208
Flags: W
HStem: -20 164<331.5 752.976> 956 164<688.279 1110.5>
VStem: 172 301<171.456 507.148> 969 301<592.852 925.513>
DStem2: 95.8374 -20 406.243 -20 0.207912 0.978148<361.898 892.481> 794.171 -20 1103.38 -20 0.207912 0.978148<336.936 867.956>
LayerCount: 2
Fore
SplineSet
628 144 m 0,0,1
 829 144 829 144 903 492 c 2,2,-1
 962 773 l 2,3,4
 969 805 969 805 969 831 c 0,5,6
 969 956 969 956 814 956 c 0,7,8
 613 956 613 956 539 608 c 2,9,-1
 480 327 l 2,10,11
 473 295 473 295 473 269 c 0,12,13
 473 144 473 144 628 144 c 0,0,1
491 -20 m 0,14,15
 172 -20 172 -20 172 270 c 0,16,17
 172 338 172 338 190 423 c 2,18,-1
 229 609 l 2,19,20
 336 1120 336 1120 951 1120 c 0,21,22
 1270 1120 1270 1120 1270 832 c 0,23,24
 1270 763 1270 763 1252 677 c 2,25,-1
 1212 491 l 2,26,27
 1102 -20 1102 -20 491 -20 c 0,14,15
846 1579 m 1,28,-1
 1028 1288 l 1,29,-1
 881 1170 l 1,30,-1
 635 1409 l 1,31,-1
 846 1579 l 1,28,-1
EndSplineSet
Validated: 1
EndChar

StartChar: Agrave
Encoding: 192 192 212
Width: 1406
Flags: W
HStem: 0 21G<130 454.24 991 1346> 684 188<635 1081> 1347 183<840.748 1135.31>
VStem: 130 320<0 320> 983 327<2.36218 429.516> 1183 311<952.352 1301.27>
DStem2: 130 0 450 0 0.207912 0.978148<66.5317 765.732 957.94 1229.65> 936.257 0 1256.41 0 0.207912 0.978148<263.525 699.147 891.355 1215.39>
LayerCount: 2
Fore
SplineSet
979 1347 m 8,0,1
 736 1347 736 1347 644 915 c 2,2,-1
 635 872 l 1,3,-1
 1121 872 l 1,4,-1
 1176 1127 l 2,5,6
 1183 1162 1183 1162 1183 1191 c 0,7,8
 1183 1347 1183 1347 979 1347 c 8,0,1
130 0 m 1,9,-1
 324 915 l 2,10,11
 454 1530 454 1530 1096 1530 c 0,12,13
 1494 1530 1494 1530 1494 1194 c 0,14,15
 1494 1121 1494 1121 1475 1031 c 2,16,-1
 1324 318 l 2,17,18
 1310 251 1310 251 1310 188 c 0,19,20
 1310 88 1310 88 1346 0 c 1,21,-1
 999 0 l 1,22,23
 983 63 983 63 983 137 c 0,24,25
 983 219 983 219 1003 314 c 2,26,-1
 1081 684 l 1,27,-1
 595 684 l 1,28,-1
 450 0 l 1,29,-1
 130 0 l 1,9,-1
1047 1969 m 1,30,-1
 1229 1678 l 1,31,-1
 1082 1560 l 1,32,-1
 836 1799 l 1,33,-1
 1047 1969 l 1,30,-1
EndSplineSet
Validated: 1
EndChar

StartChar: Sacute
Encoding: 346 346 213
Width: 1328
Flags: W
HStem: -20 184<346.5 839.552> 711 212<712.535 977.81> 1346 184<790.623 1263>
VStem: 152 336<220.5 399> 331 339<965.376 1198.5> 1023 330<388.657 667.116> 1104 334<1108.56 1308.14>
LayerCount: 2
Fore
SplineSet
1192 1969 m 1,0,-1
 1346 1779 l 1,1,-1
 1024 1560 l 1,2,-1
 911 1698 l 1,3,-1
 1192 1969 l 1,0,-1
541 -20 m 0,4,5
 152 -19 152 -19 152 332 c 0,6,7
 152 364 152 364 155 399 c 1,8,-1
 502 480 l 1,9,10
 488 413 488 413 488 360 c 0,11,12
 488 164 488 164 682 164 c 0,13,14
 942 164 942 164 1017 515 c 16,15,16
 1023 543 1023 543 1023 568 c 0,17,18
 1023 711 1023 711 812 711 c 0,19,20
 331 711 331 711 331 1001 c 0,21,22
 331 1063 331 1063 353 1139 c 0,23,24
 412 1340 412 1340 650 1450 c 0,25,26
 822 1530 822 1530 1088 1530 c 0,27,28
 1438 1530 1438 1530 1438 1191 c 0,29,30
 1438 1154 1438 1154 1434 1112 c 1,31,-1
 1087 1031 l 1,32,33
 1104 1111 1104 1111 1104 1171 c 0,34,35
 1104 1346 1104 1346 957 1346 c 0,36,37
 725 1346 725 1346 676 1112 c 16,38,39
 670 1085 670 1085 670 1063 c 0,40,41
 670 923 670 923 880 923 c 0,42,43
 1353 923 1353 923 1353 599 c 0,44,45
 1353 545 1353 545 1340 481 c 0,46,47
 1287 230 1287 230 1020 80 c 0,48,49
 841 -20 841 -20 541 -20 c 0,4,5
EndSplineSet
Validated: 1
EndChar

StartChar: Aacute
Encoding: 193 193 214
Width: 1406
Flags: W
HStem: 0 21G<130 454.24 991 1346> 684 188<635 1081> 1347 183<840.748 1135.31>
VStem: 130 320<0 320> 983 327<2.36218 429.516> 1183 311<952.352 1301.27>
DStem2: 130 0 450 0 0.207912 0.978148<66.5317 765.732 957.94 1229.65> 936.257 0 1256.41 0 0.207912 0.978148<263.525 699.147 891.355 1215.39>
LayerCount: 2
Fore
SplineSet
1232 1969 m 1,0,-1
 1386 1779 l 1,1,-1
 1064 1560 l 1,2,-1
 951 1698 l 1,3,-1
 1232 1969 l 1,0,-1
979 1347 m 8,4,5
 736 1347 736 1347 644 915 c 2,6,-1
 635 872 l 1,7,-1
 1121 872 l 1,8,-1
 1176 1127 l 2,9,10
 1183 1162 1183 1162 1183 1191 c 0,11,12
 1183 1347 1183 1347 979 1347 c 8,4,5
130 0 m 1,13,-1
 324 915 l 2,14,15
 454 1530 454 1530 1096 1530 c 0,16,17
 1494 1530 1494 1530 1494 1194 c 0,18,19
 1494 1121 1494 1121 1475 1031 c 2,20,-1
 1324 318 l 2,21,22
 1310 251 1310 251 1310 188 c 0,23,24
 1310 88 1310 88 1346 0 c 1,25,-1
 999 0 l 1,26,27
 983 63 983 63 983 137 c 0,28,29
 983 219 983 219 1003 314 c 2,30,-1
 1081 684 l 1,31,-1
 595 684 l 1,32,-1
 450 0 l 1,33,-1
 130 0 l 1,13,-1
EndSplineSet
Validated: 1
EndChar

StartChar: Acircumflex
Encoding: 194 194 215
Width: 1406
Flags: W
HStem: 0 21G<130 454.24 991 1346> 684 188<635 1081> 1347 183<840.748 1135.31>
VStem: 130 320<0 320> 983 327<2.36218 429.516> 1183 311<952.352 1301.27>
DStem2: 130 0 450 0 0.207912 0.978148<66.5317 765.732 957.94 1229.65> 936.257 0 1256.41 0 0.207912 0.978148<263.525 699.147 891.355 1215.39>
LayerCount: 2
Fore
SplineSet
979 1347 m 8,0,1
 736 1347 736 1347 644 915 c 2,2,-1
 635 872 l 1,3,-1
 1121 872 l 1,4,-1
 1176 1127 l 2,5,6
 1183 1162 1183 1162 1183 1191 c 0,7,8
 1183 1347 1183 1347 979 1347 c 8,0,1
130 0 m 1,9,-1
 324 915 l 2,10,11
 454 1530 454 1530 1096 1530 c 0,12,13
 1494 1530 1494 1530 1494 1194 c 0,14,15
 1494 1121 1494 1121 1475 1031 c 2,16,-1
 1324 318 l 2,17,18
 1310 251 1310 251 1310 188 c 0,19,20
 1310 88 1310 88 1346 0 c 1,21,-1
 999 0 l 1,22,23
 983 63 983 63 983 137 c 0,24,25
 983 219 983 219 1003 314 c 2,26,-1
 1081 684 l 1,27,-1
 595 684 l 1,28,-1
 450 0 l 1,29,-1
 130 0 l 1,9,-1
1147 1969 m 1,30,-1
 1438 1721 l 1,31,-1
 1240 1560 l 1,32,-1
 1101 1754 l 1,33,-1
 880 1560 l 1,34,-1
 750 1721 l 1,35,-1
 1147 1969 l 1,30,-1
EndSplineSet
Validated: 1
EndChar

StartChar: Atilde
Encoding: 195 195 216
Width: 1406
Flags: W
HStem: 0 21G<130 454.24 991 1346> 684 188<635 1081> 1347 183<840.748 1135.31> 1624 140<1147.72 1327.5> 1764 139<858 1028.08>
VStem: 130 320<0 320> 729 202<1665.74 1743.21> 983 327<2.36218 429.516> 1183 311<952.352 1301.27> 1257 203<1783.79 1861.24>
DStem2: 130 0 450 0 0.207912 0.978148<66.5317 765.732 957.94 1229.65> 936.257 0 1256.41 0 0.207912 0.978148<263.525 699.147 891.355 1215.39>
LayerCount: 2
Fore
SplineSet
979 1347 m 8,0,1
 736 1347 736 1347 644 915 c 2,2,-1
 635 872 l 1,3,-1
 1121 872 l 1,4,-1
 1176 1127 l 2,5,6
 1183 1162 1183 1162 1183 1191 c 0,7,8
 1183 1347 1183 1347 979 1347 c 8,0,1
130 0 m 1,9,-1
 324 915 l 2,10,11
 454 1530 454 1530 1096 1530 c 0,12,13
 1494 1530 1494 1530 1494 1194 c 0,14,15
 1494 1121 1494 1121 1475 1031 c 2,16,-1
 1324 318 l 2,17,18
 1310 251 1310 251 1310 188 c 0,19,20
 1310 88 1310 88 1346 0 c 1,21,-1
 999 0 l 1,22,23
 983 63 983 63 983 137 c 0,24,25
 983 219 983 219 1003 314 c 2,26,-1
 1081 684 l 1,27,-1
 595 684 l 1,28,-1
 450 0 l 1,29,-1
 130 0 l 1,9,-1
938 1903 m 24,30,31
 1095 1903 1095 1903 1155 1796 c 0,32,33
 1172 1764 1172 1764 1185 1764 c 0,34,35
 1225 1764 1225 1764 1257 1917 c 1,36,-1
 1460 1857 l 1,37,38
 1410 1624 1410 1624 1245 1624 c 24,39,40
 1070 1624 1070 1624 1025 1729 c 0,41,42
 1010 1764 1010 1764 997 1764 c 0,43,44
 964 1764 964 1764 931 1610 c 1,45,-1
 729 1670 l 1,46,47
 778 1903 778 1903 938 1903 c 24,30,31
EndSplineSet
Validated: 1
EndChar

StartChar: Adieresis
Encoding: 196 196 217
Width: 1406
Flags: W
HStem: 0 21G<130 454.24 991 1346> 684 188<635 1081> 1347 183<840.748 1135.31> 1607 313<813.721 1018.28 1171.72 1376.28>
VStem: 130 320<0 320> 756 320<1665.42 1861.58> 983 327<2.36218 429.516> 1114 320<1665.42 1861.58> 1183 311<952.352 1301.27>
DStem2: 130 0 450 0 0.207912 0.978148<66.5317 765.732 957.94 1229.65> 936.257 0 1256.41 0 0.207912 0.978148<263.525 699.147 891.355 1215.39>
LayerCount: 2
Fore
SplineSet
1307 1920 m 0,0,1
 1434 1920 1434 1920 1434 1814 c 24,2,3
 1434 1607 1434 1607 1241 1607 c 0,4,5
 1114 1607 1114 1607 1114 1713 c 24,6,7
 1114 1920 1114 1920 1307 1920 c 0,0,1
949 1920 m 0,8,9
 1076 1920 1076 1920 1076 1814 c 0,10,11
 1076 1607 1076 1607 883 1607 c 0,12,13
 756 1607 756 1607 756 1713 c 24,14,15
 756 1920 756 1920 949 1920 c 0,8,9
979 1347 m 8,16,17
 736 1347 736 1347 644 915 c 2,18,-1
 635 872 l 1,19,-1
 1121 872 l 1,20,-1
 1176 1127 l 2,21,22
 1183 1162 1183 1162 1183 1191 c 0,23,24
 1183 1347 1183 1347 979 1347 c 8,16,17
130 0 m 1,25,-1
 324 915 l 2,26,27
 454 1530 454 1530 1096 1530 c 0,28,29
 1494 1530 1494 1530 1494 1194 c 0,30,31
 1494 1121 1494 1121 1475 1031 c 2,32,-1
 1324 318 l 2,33,34
 1310 251 1310 251 1310 188 c 0,35,36
 1310 88 1310 88 1346 0 c 1,37,-1
 999 0 l 1,38,39
 983 63 983 63 983 137 c 0,40,41
 983 219 983 219 1003 314 c 2,42,-1
 1081 684 l 1,43,-1
 595 684 l 1,44,-1
 450 0 l 1,45,-1
 130 0 l 1,25,-1
EndSplineSet
Validated: 1
EndChar

StartChar: Aring
Encoding: 197 197 218
Width: 1406
Flags: W
HStem: 0 21G<130 454.24 991 1346> 684 188<635 1081> 1347 183<840.748 1135.31> 1560 129<1028.82 1171.45> 1844 129<1043.39 1186.67>
VStem: 130 320<0 320> 896 132<1690.84 1831.08> 983 327<2.36218 429.516> 1183 311<952.352 1301.27> 1188 131<1706.65 1841.61>
DStem2: 130 0 450 0 0.207912 0.978148<66.5317 765.732 957.94 1229.65> 936.257 0 1256.41 0 0.207912 0.978148<263.525 699.147 891.355 1215.39>
LayerCount: 2
Fore
SplineSet
1124 1844 m 0,0,1
 1047 1844 1047 1844 1031 1766 c 0,2,3
 1028 1752 1028 1752 1028 1742 c 0,4,5
 1028 1689 1028 1689 1091 1689 c 0,6,7
 1167 1689 1167 1689 1185 1766 c 0,8,9
 1188 1779 1188 1779 1188 1791 c 0,10,11
 1188 1844 1188 1844 1124 1844 c 0,0,1
1151 1973 m 0,12,13
 1319 1973 1319 1973 1319 1833 c 0,14,15
 1319 1802 1319 1802 1311 1766 c 0,16,17
 1267 1560 1267 1560 1064 1560 c 0,18,19
 896 1560 896 1560 896 1700 c 0,20,21
 896 1732 896 1732 903 1766 c 0,22,23
 947 1973 947 1973 1151 1973 c 0,12,13
979 1347 m 8,24,25
 736 1347 736 1347 644 915 c 2,26,-1
 635 872 l 1,27,-1
 1121 872 l 1,28,-1
 1176 1127 l 2,29,30
 1183 1162 1183 1162 1183 1191 c 0,31,32
 1183 1347 1183 1347 979 1347 c 8,24,25
130 0 m 1,33,-1
 324 915 l 2,34,35
 454 1530 454 1530 1096 1530 c 0,36,37
 1494 1530 1494 1530 1494 1194 c 0,38,39
 1494 1121 1494 1121 1475 1031 c 2,40,-1
 1324 318 l 2,41,42
 1310 251 1310 251 1310 188 c 0,43,44
 1310 88 1310 88 1346 0 c 1,45,-1
 999 0 l 1,46,47
 983 63 983 63 983 137 c 0,48,49
 983 219 983 219 1003 314 c 2,50,-1
 1081 684 l 1,51,-1
 595 684 l 1,52,-1
 450 0 l 1,53,-1
 130 0 l 1,33,-1
EndSplineSet
Validated: 1
EndChar

StartChar: Amacron
Encoding: 256 256 219
Width: 1406
Flags: W
HStem: 0 21G<130 454.24 991 1346> 684 188<635 1081> 1347 183<840.748 1135.31> 1670 188<769 1421>
VStem: 130 320<0 320> 983 327<2.36218 429.516> 1183 311<952.352 1301.27>
DStem2: 130 0 450 0 0.207912 0.978148<66.5317 765.732 957.94 1229.65> 936.257 0 1256.41 0 0.207912 0.978148<263.525 699.147 891.355 1215.39>
LayerCount: 2
Fore
SplineSet
979 1347 m 8,0,1
 736 1347 736 1347 644 915 c 2,2,-1
 635 872 l 1,3,-1
 1121 872 l 1,4,-1
 1176 1127 l 2,5,6
 1183 1162 1183 1162 1183 1191 c 0,7,8
 1183 1347 1183 1347 979 1347 c 8,0,1
130 0 m 1,9,-1
 324 915 l 2,10,11
 454 1530 454 1530 1096 1530 c 0,12,13
 1494 1530 1494 1530 1494 1194 c 0,14,15
 1494 1121 1494 1121 1475 1031 c 2,16,-1
 1324 318 l 2,17,18
 1310 251 1310 251 1310 188 c 0,19,20
 1310 88 1310 88 1346 0 c 1,21,-1
 999 0 l 1,22,23
 983 63 983 63 983 137 c 0,24,25
 983 219 983 219 1003 314 c 2,26,-1
 1081 684 l 1,27,-1
 595 684 l 1,28,-1
 450 0 l 1,29,-1
 130 0 l 1,9,-1
769 1858 m 1,30,-1
 1461 1858 l 1,31,-1
 1421 1670 l 1,32,-1
 729 1670 l 1,33,-1
 769 1858 l 1,30,-1
EndSplineSet
Validated: 1
EndChar

StartChar: Abreve
Encoding: 258 258 220
Width: 1406
Flags: W
HStem: 0 21G<130 454.24 991 1346> 684 188<635 1081> 1347 183<840.748 1135.31> 1641 153<1018.21 1203.65>
VStem: 130 320<0 320> 761 257<1716.5 1858> 983 327<2.36218 429.516> 1183 311<952.352 1301.27>
DStem2: 130 0 450 0 0.207912 0.978148<66.5317 765.732 957.94 1229.65> 936.257 0 1256.41 0 0.207912 0.978148<263.525 699.147 891.355 1215.39>
LayerCount: 2
Fore
SplineSet
1027 1915 m 1,0,1
 1018 1874 1018 1874 1018 1847 c 0,2,3
 1018 1794 1018 1794 1052 1794 c 2,4,-1
 1152 1794 l 2,5,6
 1202 1794 1202 1794 1227 1915 c 1,7,-1
 1461 1858 l 1,8,9
 1415 1641 1415 1641 1225 1641 c 2,10,-1
 953 1641 l 2,11,12
 761 1641 761 1641 761 1792 c 0,13,14
 761 1822 761 1822 769 1858 c 1,15,-1
 1027 1915 l 1,0,1
979 1347 m 8,16,17
 736 1347 736 1347 644 915 c 2,18,-1
 635 872 l 1,19,-1
 1121 872 l 1,20,-1
 1176 1127 l 2,21,22
 1183 1162 1183 1162 1183 1191 c 0,23,24
 1183 1347 1183 1347 979 1347 c 8,16,17
130 0 m 1,25,-1
 324 915 l 2,26,27
 454 1530 454 1530 1096 1530 c 0,28,29
 1494 1530 1494 1530 1494 1194 c 0,30,31
 1494 1121 1494 1121 1475 1031 c 2,32,-1
 1324 318 l 2,33,34
 1310 251 1310 251 1310 188 c 0,35,36
 1310 88 1310 88 1346 0 c 1,37,-1
 999 0 l 1,38,39
 983 63 983 63 983 137 c 0,40,41
 983 219 983 219 1003 314 c 2,42,-1
 1081 684 l 1,43,-1
 595 684 l 1,44,-1
 450 0 l 1,45,-1
 130 0 l 1,25,-1
EndSplineSet
Validated: 1
EndChar

StartChar: Aogonek
Encoding: 260 260 221
Width: 1406
Flags: W
HStem: 0 21G<130 454.24> 684 188<635 1081> 1347 183<840.748 1135.31>
VStem: 130 320<0 320> 770 235<-298.689 -60.915> 983 327<71.9274 429.516> 1183 311<952.352 1301.27>
DStem2: 32.224 -460 352.224 -460 0.207912 0.978148<536.808 1236.01 1428.22 1699.93> 838.481 -460 1158.63 -460 0.207912 0.978148<733.801 1169.42 1361.63 1685.66>
LayerCount: 2
Fore
SplineSet
130 0 m 1,0,-1
 324 915 l 2,1,2
 454 1530 454 1530 1096 1530 c 0,3,4
 1494 1530 1494 1530 1494 1194 c 0,5,6
 1494 1121 1494 1121 1475 1031 c 2,7,-1
 1324 318 l 2,8,9
 1310 251 1310 251 1310 188 c 0,10,11
 1310 88 1310 88 1346 0 c 1,12,-1
 1176 0 l 1,13,14
 1029 -26 1029 -26 1008 -127 c 0,15,16
 1005 -142 1005 -142 1005 -155 c 0,17,18
 1005 -236 1005 -236 1127 -251 c 1,19,-1
 928 -460 l 1,20,21
 770 -381 770 -381 770 -227 c 0,22,23
 770 -192 770 -192 778 -154 c 0,24,25
 811 1 811 1 985 84 c 1,26,27
 983 110 983 110 983 137 c 0,28,29
 983 219 983 219 1003 314 c 2,30,-1
 1081 684 l 1,31,-1
 595 684 l 1,32,-1
 450 0 l 1,33,-1
 130 0 l 1,0,-1
979 1347 m 0,34,35
 736 1347 736 1347 644 915 c 2,36,-1
 635 872 l 1,37,-1
 1121 872 l 1,38,-1
 1176 1127 l 2,39,40
 1183 1162 1183 1162 1183 1191 c 0,41,42
 1183 1347 1183 1347 979 1347 c 0,34,35
EndSplineSet
Validated: 1
EndChar

StartChar: Aringacute
Encoding: 506 506 222
Width: 1406
Flags: W
HStem: 0 21G<130 454.24 991 1346> 684 188<635 1081> 1347 183<840.318 1135.31> 1560 129<858.822 1001.45> 1844 129<873.395 1016.67>
VStem: 130 320<0 320> 726 132<1690.84 1831.08> 983 327<2.36218 429.516> 1018 131<1706.65 1841.61> 1183 311<952.352 1301.27>
DStem2: 130 0 450 0 0.207912 0.978148<66.5317 765.732 957.94 1229.47> 936.257 0 1256.41 0 0.207912 0.978148<263.555 699.147 891.355 1215.3>
LayerCount: 2
Fore
SplineSet
954 1844 m 0,0,1
 877 1844 877 1844 861 1766 c 0,2,3
 858 1752 858 1752 858 1742 c 0,4,5
 858 1689 858 1689 921 1689 c 0,6,7
 997 1689 997 1689 1015 1766 c 0,8,9
 1018 1779 1018 1779 1018 1791 c 0,10,11
 1018 1844 1018 1844 954 1844 c 0,0,1
981 1973 m 0,12,13
 1149 1973 1149 1973 1149 1833 c 0,14,15
 1149 1802 1149 1802 1141 1766 c 0,16,17
 1097 1560 1097 1560 894 1560 c 0,18,19
 726 1560 726 1560 726 1700 c 0,20,21
 726 1732 726 1732 733 1766 c 0,22,23
 777 1973 777 1973 981 1973 c 0,12,13
1420 1969 m 1,24,-1
 1574 1779 l 1,25,-1
 1252 1560 l 1,26,-1
 1139 1698 l 1,27,-1
 1420 1969 l 1,24,-1
979 1347 m 8,28,29
 734 1347 734 1347 644 915 c 2,30,-1
 635 872 l 1,31,-1
 1121 872 l 1,32,-1
 1176 1127 l 2,33,34
 1183 1159 1183 1159 1183 1191 c 0,35,36
 1183 1347 1183 1347 979 1347 c 8,28,29
130 0 m 1,37,-1
 324 915 l 2,38,39
 454 1530 454 1530 1096 1530 c 0,40,41
 1494 1530 1494 1530 1494 1194 c 0,42,43
 1494 1121 1494 1121 1475 1031 c 2,44,-1
 1324 318 l 2,45,46
 1310 252 1310 252 1310 188 c 0,47,48
 1310 88 1310 88 1346 0 c 1,49,-1
 999 0 l 1,50,51
 983 63 983 63 983 137 c 0,52,53
 983 219 983 219 1003 314 c 2,54,-1
 1081 684 l 1,55,-1
 595 684 l 1,56,-1
 450 0 l 1,57,-1
 130 0 l 1,37,-1
EndSplineSet
Validated: 1
EndChar

StartChar: AEacute
Encoding: 508 508 223
Width: 1917
Flags: W
HStem: 0 187<1296 1807.9> 667 188<632 1078 1438 1880> 1323 187<1477 2019> 1347 183<840.748 1138.11>
VStem: 130 320<0 320> 1183 312<952 1302.97>
DStem2: 130 0 450 0 0.207912 0.978148<66.5317 748.48 940.688 1229.65> 936 0 1256.25 0 0.207912 0.978148<257.762 681.948 940.688 1215.44>
LayerCount: 2
Fore
SplineSet
1515 1969 m 1,0,-1
 1669 1779 l 1,1,-1
 1347 1560 l 1,2,-1
 1234 1698 l 1,3,-1
 1515 1969 l 1,0,-1
130 0 m 1,4,-1
 324 915 l 2,5,6
 454 1530 454 1530 1096 1530 c 0,7,8
 1187 1530 1187 1530 1267 1510 c 1,9,-1
 2059 1510 l 1,10,-1
 2019 1323 l 1,11,-1
 1477 1323 l 1,12,13
 1495 1266 1495 1266 1495 1194 c 0,14,15
 1495 1120 1495 1120 1476 1031 c 2,16,-1
 1438 855 l 1,17,-1
 1920 855 l 1,18,-1
 1880 667 l 1,19,-1
 1398 667 l 1,20,-1
 1296 187 l 1,21,-1
 1567 187 l 2,22,23
 1763 187 1763 187 1951 302 c 1,24,-1
 1901 66 l 1,25,26
 1730 0 1730 0 1527 0 c 2,27,-1
 936 0 l 1,28,-1
 1078 667 l 1,29,-1
 592 667 l 1,30,-1
 450 0 l 1,31,-1
 130 0 l 1,4,-1
979 1347 m 0,32,33
 736 1347 736 1347 644 915 c 2,34,-1
 632 855 l 1,35,-1
 1118 855 l 1,36,-1
 1176 1127 l 2,37,38
 1183 1162 1183 1162 1183 1191 c 0,39,40
 1183 1347 1183 1347 979 1347 c 0,32,33
EndSplineSet
Validated: 1
EndChar

StartChar: Ccedilla
Encoding: 199 199 224
Width: 1410
Flags: W
HStem: -460 186<465 624.75> -19 183<516 554 776 880.693> 1346 184<852.286 1340.71>
VStem: 194 322<213.467 559.57> 551 225<-88.1726 -19> 635 237<-259.686 -159.773> 1202 335<1110 1288.89>
DStem2: 13.1968 -460 343.602 -460 0.207912 0.978148<869.36 1689.78>
LayerCount: 2
Fore
SplineSet
554 -19 m 1,0,1
 194 -3 194 -3 194 317 c 0,2,3
 194 391 194 391 213 480 c 2,4,-1
 305 915 l 2,5,6
 435 1530 435 1530 1139 1530 c 0,7,8
 1537 1530 1537 1530 1537 1190 c 0,9,10
 1537 1152 1537 1152 1532 1110 c 1,11,-1
 1188 1029 l 1,12,13
 1202 1095 1202 1095 1202 1147 c 0,14,15
 1202 1346 1202 1346 998 1346 c 0,16,17
 727 1346 727 1346 635 913 c 2,18,-1
 523 384 l 2,19,20
 516 350 516 350 516 321 c 0,21,22
 516 164 516 164 733 164 c 0,23,24
 967 164 967 164 1074 509 c 1,25,-1
 1416 546 l 1,26,27
 1270 65 1270 65 777 -7 c 1,28,29
 776 -14 776 -14 776 -21 c 0,30,31
 776 -55 776 -55 802 -74 c 0,32,33
 872 -124 872 -124 872 -210 c 0,34,35
 872 -234 872 -234 867 -260 c 0,36,37
 824 -460 824 -460 465 -460 c 1,38,-1
 452 -274 l 1,39,40
 635 -274 635 -274 635 -219 c 0,41,42
 635 -199 635 -199 602 -171 c 0,43,44
 551 -128 551 -128 551 -55 c 0,45,46
 551 -38 551 -38 554 -19 c 1,0,1
EndSplineSet
Validated: 1
EndChar

StartChar: Cacute
Encoding: 262 262 225
Width: 1410
Flags: W
HStem: -20 184<565.597 878.022> 1346 184<852.286 1340.71>
VStem: 194 322<211.033 559.57> 1202 335<1110 1288.89>
DStem2: 106.722 -20 437.127 -20 0.207912 0.978148<419.53 1239.95>
LayerCount: 2
Fore
SplineSet
1232 1969 m 1,0,-1
 1386 1779 l 1,1,-1
 1064 1560 l 1,2,-1
 951 1698 l 1,3,-1
 1232 1969 l 1,0,-1
592 -20 m 0,4,5
 194 -20 194 -20 194 317 c 0,6,7
 194 391 194 391 213 480 c 2,8,-1
 305 915 l 2,9,10
 435 1530 435 1530 1139 1530 c 0,11,12
 1537 1530 1537 1530 1537 1190 c 0,13,14
 1537 1152 1537 1152 1532 1110 c 1,15,-1
 1188 1029 l 1,16,17
 1202 1095 1202 1095 1202 1147 c 0,18,19
 1202 1346 1202 1346 998 1346 c 0,20,21
 727 1346 727 1346 635 913 c 2,22,-1
 523 384 l 2,23,24
 516 350 516 350 516 321 c 0,25,26
 516 164 516 164 733 164 c 0,27,28
 967 164 967 164 1074 509 c 9,29,-1
 1416 546 l 1,30,31
 1244 -20 1244 -20 592 -20 c 0,4,5
EndSplineSet
Validated: 1
EndChar

StartChar: Ccircumflex
Encoding: 264 264 226
Width: 1410
Flags: W
HStem: -20 184<565.597 878.022> 1346 184<852.286 1340.71>
VStem: 194 322<211.033 559.57> 1202 335<1110 1288.89>
DStem2: 106.722 -20 437.127 -20 0.207912 0.978148<419.53 1239.95>
LayerCount: 2
Fore
SplineSet
592 -20 m 0,0,1
 194 -20 194 -20 194 317 c 0,2,3
 194 391 194 391 213 480 c 2,4,-1
 305 915 l 2,5,6
 435 1530 435 1530 1139 1530 c 0,7,8
 1537 1530 1537 1530 1537 1190 c 0,9,10
 1537 1152 1537 1152 1532 1110 c 1,11,-1
 1188 1029 l 1,12,13
 1202 1095 1202 1095 1202 1147 c 0,14,15
 1202 1346 1202 1346 998 1346 c 0,16,17
 727 1346 727 1346 635 913 c 2,18,-1
 523 384 l 2,19,20
 516 350 516 350 516 321 c 0,21,22
 516 164 516 164 733 164 c 0,23,24
 967 164 967 164 1074 509 c 9,25,-1
 1416 546 l 1,26,27
 1244 -20 1244 -20 592 -20 c 0,0,1
1147 1969 m 1,28,-1
 1438 1721 l 1,29,-1
 1240 1560 l 1,30,-1
 1101 1754 l 1,31,-1
 880 1560 l 1,32,-1
 750 1721 l 1,33,-1
 1147 1969 l 1,28,-1
EndSplineSet
Validated: 1
EndChar

StartChar: Cdotaccent
Encoding: 266 266 227
Width: 1410
Flags: W
HStem: -20 184<565.597 878.022> 1346 184<852.286 1340.71> 1587 354<993.191 1213.81>
VStem: 194 322<211.033 559.57> 922 363<1657.34 1870.66> 1202 335<1110 1288.89>
DStem2: 106.722 -20 437.127 -20 0.207912 0.978148<419.53 1239.95>
LayerCount: 2
Fore
SplineSet
1141 1941 m 0,0,1
 1285 1941 1285 1941 1285 1821 c 24,2,3
 1285 1587 1285 1587 1066 1587 c 0,4,5
 922 1587 922 1587 922 1707 c 24,6,7
 922 1941 922 1941 1141 1941 c 0,0,1
592 -20 m 0,8,9
 194 -20 194 -20 194 317 c 0,10,11
 194 391 194 391 213 480 c 2,12,-1
 305 915 l 2,13,14
 435 1530 435 1530 1139 1530 c 0,15,16
 1537 1530 1537 1530 1537 1190 c 0,17,18
 1537 1152 1537 1152 1532 1110 c 1,19,-1
 1188 1029 l 1,20,21
 1202 1095 1202 1095 1202 1147 c 0,22,23
 1202 1346 1202 1346 998 1346 c 0,24,25
 727 1346 727 1346 635 913 c 2,26,-1
 523 384 l 2,27,28
 516 350 516 350 516 321 c 0,29,30
 516 164 516 164 733 164 c 0,31,32
 967 164 967 164 1074 509 c 9,33,-1
 1416 546 l 1,34,35
 1244 -20 1244 -20 592 -20 c 0,8,9
EndSplineSet
Validated: 1
EndChar

StartChar: Ccaron
Encoding: 268 268 228
Width: 1410
Flags: W
HStem: -20 184<565.597 878.022> 1346 184<852.286 1340.71>
VStem: 194 322<211.033 559.57> 1202 335<1110 1288.89>
DStem2: 106.722 -20 437.127 -20 0.207912 0.978148<419.53 1239.95>
LayerCount: 2
Fore
SplineSet
592 -20 m 0,0,1
 194 -20 194 -20 194 317 c 0,2,3
 194 391 194 391 213 480 c 2,4,-1
 305 915 l 2,5,6
 435 1530 435 1530 1139 1530 c 0,7,8
 1537 1530 1537 1530 1537 1190 c 0,9,10
 1537 1152 1537 1152 1532 1110 c 1,11,-1
 1188 1029 l 1,12,13
 1202 1095 1202 1095 1202 1147 c 0,14,15
 1202 1346 1202 1346 998 1346 c 0,16,17
 727 1346 727 1346 635 913 c 2,18,-1
 523 384 l 2,19,20
 516 350 516 350 516 321 c 0,21,22
 516 164 516 164 733 164 c 0,23,24
 967 164 967 164 1074 509 c 9,25,-1
 1416 546 l 1,26,27
 1244 -20 1244 -20 592 -20 c 0,0,1
981 1969 m 1,28,-1
 1119 1775 l 1,29,-1
 1341 1969 l 1,30,-1
 1470 1808 l 1,31,-1
 1074 1560 l 1,32,-1
 782 1808 l 1,33,-1
 981 1969 l 1,28,-1
EndSplineSet
Validated: 1
EndChar

StartChar: Dcaron
Encoding: 270 270 229
Width: 1408
Flags: W
HStem: 0 187<510 889.27> 1323 187<739 1158.49>
VStem: 419 320<1062.52 1323> 1210 322<930.234 1273.57>
DStem2: 150 0 470.252 0 0.207912 0.978148<257.762 1348.12> 968.065 0 1298.28 0 0.207912 0.978148<413.576 1190.94>
LayerCount: 2
Fore
SplineSet
510 187 m 1,0,-1
 738 187 l 2,1,2
 1008 187 1008 187 1099 616 c 2,3,-1
 1203 1106 l 2,4,5
 1210 1139 1210 1139 1210 1167 c 0,6,7
 1210 1323 1210 1323 991 1323 c 2,8,-1
 739 1323 l 1,9,10
 737 1258 737 1258 722 1187 c 2,11,-1
 510 187 l 1,0,-1
150 0 m 1,12,-1
 404 1193 l 2,13,14
 419 1261 419 1261 419 1323 c 0,15,16
 419 1423 419 1423 381 1510 c 1,17,-1
 1134 1510 l 2,18,19
 1532 1510 1532 1510 1532 1174 c 0,20,21
 1532 1101 1532 1101 1513 1011 c 2,22,-1
 1429 615 l 2,23,24
 1299 0 1299 0 621 0 c 2,25,-1
 150 0 l 1,12,-1
900 1969 m 1,26,-1
 1038 1775 l 1,27,-1
 1260 1969 l 1,28,-1
 1389 1808 l 1,29,-1
 993 1560 l 1,30,-1
 701 1808 l 1,31,-1
 900 1969 l 1,26,-1
EndSplineSet
Validated: 1
EndChar

StartChar: Egrave
Encoding: 200 200 230
Width: 1131
Flags: W
HStem: 0 187<510 1021.9> 667 188<652 1094> 1323 187<739 1233>
VStem: 420 319<1062.52 1323>
DStem2: 150 0 470.252 0 0.207912 0.978148<257.762 748.48 940.688 1356.09>
LayerCount: 2
Fore
SplineSet
150 0 m 1,0,-1
 404 1193 l 2,1,2
 420 1267 420 1267 420 1331 c 0,3,4
 420 1432 420 1432 381 1510 c 1,5,-1
 1273 1510 l 1,6,-1
 1233 1323 l 1,7,-1
 739 1323 l 1,8,9
 737 1256 737 1256 723 1189 c 2,10,-1
 652 855 l 1,11,-1
 1134 855 l 1,12,-1
 1094 667 l 1,13,-1
 612 667 l 1,14,-1
 510 187 l 1,15,-1
 781 187 l 2,16,17
 977 187 977 187 1165 302 c 1,18,-1
 1115 66 l 1,19,20
 944 0 944 0 741 0 c 2,21,-1
 150 0 l 1,0,-1
846 1969 m 1,22,-1
 1028 1678 l 1,23,-1
 881 1560 l 1,24,-1
 635 1799 l 1,25,-1
 846 1969 l 1,22,-1
EndSplineSet
Validated: 1
EndChar

StartChar: Eacute
Encoding: 201 201 231
Width: 1131
Flags: W
HStem: 0 187<510 1021.9> 667 188<652 1094> 1323 187<739 1233>
VStem: 420 319<1062.52 1323>
DStem2: 150 0 470.252 0 0.207912 0.978148<257.762 748.48 940.688 1356.09>
LayerCount: 2
Fore
SplineSet
1039 1969 m 1,0,-1
 1193 1779 l 1,1,-1
 871 1560 l 1,2,-1
 758 1698 l 1,3,-1
 1039 1969 l 1,0,-1
150 0 m 1,4,-1
 404 1193 l 2,5,6
 420 1267 420 1267 420 1331 c 0,7,8
 420 1432 420 1432 381 1510 c 1,9,-1
 1273 1510 l 1,10,-1
 1233 1323 l 1,11,-1
 739 1323 l 1,12,13
 737 1256 737 1256 723 1189 c 2,14,-1
 652 855 l 1,15,-1
 1134 855 l 1,16,-1
 1094 667 l 1,17,-1
 612 667 l 1,18,-1
 510 187 l 1,19,-1
 781 187 l 2,20,21
 977 187 977 187 1165 302 c 1,22,-1
 1115 66 l 1,23,24
 944 0 944 0 741 0 c 2,25,-1
 150 0 l 1,4,-1
EndSplineSet
Validated: 1
EndChar

StartChar: Ecircumflex
Encoding: 202 202 232
Width: 1131
Flags: W
HStem: 0 187<510 1021.9> 667 188<652 1094> 1323 187<739 1233>
VStem: 420 319<1062.52 1323>
DStem2: 150 0 470.252 0 0.207912 0.978148<257.762 748.48 940.688 1356.09>
LayerCount: 2
Fore
SplineSet
150 0 m 1,0,-1
 404 1193 l 2,1,2
 420 1267 420 1267 420 1331 c 0,3,4
 420 1432 420 1432 381 1510 c 1,5,-1
 1273 1510 l 1,6,-1
 1233 1323 l 1,7,-1
 739 1323 l 1,8,9
 737 1256 737 1256 723 1189 c 2,10,-1
 652 855 l 1,11,-1
 1134 855 l 1,12,-1
 1094 667 l 1,13,-1
 612 667 l 1,14,-1
 510 187 l 1,15,-1
 781 187 l 2,16,17
 977 187 977 187 1165 302 c 1,18,-1
 1115 66 l 1,19,20
 944 0 944 0 741 0 c 2,21,-1
 150 0 l 1,0,-1
946 1969 m 1,22,-1
 1237 1721 l 1,23,-1
 1039 1560 l 1,24,-1
 900 1754 l 1,25,-1
 679 1560 l 1,26,-1
 549 1721 l 1,27,-1
 946 1969 l 1,22,-1
EndSplineSet
Validated: 1
EndChar

